%TF.GenerationSoftware,KiCad,Pcbnew,10.0.4*%
%TF.CreationDate,2026-07-02T18:15:22+06:00*%
%TF.ProjectId,Transformerless power supply,5472616e-7366-46f7-926d-65726c657373,rev?*%
%TF.SameCoordinates,Original*%
%TF.FileFunction,Copper,L1,Top*%
%TF.FilePolarity,Positive*%
%FSLAX46Y46*%
G04 Gerber Fmt 4.6, Leading zero omitted, Abs format (unit mm)*
G04 Created by KiCad (PCBNEW 10.0.4) date 2026-07-02 18:15:22*
%MOMM*%
%LPD*%
G01*
G04 APERTURE LIST*
G04 Aperture macros list*
%AMRoundRect*
0 Rectangle with rounded corners*
0 $1 Rounding radius*
0 $2 $3 $4 $5 $6 $7 $8 $9 X,Y pos of 4 corners*
0 Add a 4 corners polygon primitive as box body*
4,1,4,$2,$3,$4,$5,$6,$7,$8,$9,$2,$3,0*
0 Add four circle primitives for the rounded corners*
1,1,$1+$1,$2,$3*
1,1,$1+$1,$4,$5*
1,1,$1+$1,$6,$7*
1,1,$1+$1,$8,$9*
0 Add four rect primitives between the rounded corners*
20,1,$1+$1,$2,$3,$4,$5,0*
20,1,$1+$1,$4,$5,$6,$7,0*
20,1,$1+$1,$6,$7,$8,$9,0*
20,1,$1+$1,$8,$9,$2,$3,0*%
G04 Aperture macros list end*
%TA.AperFunction,ComponentPad*%
%ADD10C,2.800000*%
%TD*%
%TA.AperFunction,ComponentPad*%
%ADD11RoundRect,0.250001X1.149999X-1.149999X1.149999X1.149999X-1.149999X1.149999X-1.149999X-1.149999X0*%
%TD*%
%TA.AperFunction,ComponentPad*%
%ADD12C,2.200000*%
%TD*%
%TA.AperFunction,ComponentPad*%
%ADD13RoundRect,0.249999X-0.850001X0.850001X-0.850001X-0.850001X0.850001X-0.850001X0.850001X0.850001X0*%
%TD*%
%TA.AperFunction,ComponentPad*%
%ADD14R,1.905000X2.000000*%
%TD*%
%TA.AperFunction,ComponentPad*%
%ADD15O,1.905000X2.000000*%
%TD*%
%TA.AperFunction,ComponentPad*%
%ADD16C,1.400000*%
%TD*%
%TA.AperFunction,ComponentPad*%
%ADD17R,1.800000X1.800000*%
%TD*%
%TA.AperFunction,ComponentPad*%
%ADD18C,1.800000*%
%TD*%
%TA.AperFunction,ComponentPad*%
%ADD19RoundRect,0.250000X1.050000X1.050000X-1.050000X1.050000X-1.050000X-1.050000X1.050000X-1.050000X0*%
%TD*%
%TA.AperFunction,ComponentPad*%
%ADD20C,2.600000*%
%TD*%
%TA.AperFunction,ComponentPad*%
%ADD21RoundRect,0.250000X0.550000X0.550000X-0.550000X0.550000X-0.550000X-0.550000X0.550000X-0.550000X0*%
%TD*%
%TA.AperFunction,ComponentPad*%
%ADD22C,1.600000*%
%TD*%
%TA.AperFunction,ComponentPad*%
%ADD23RoundRect,0.250000X0.550000X-0.550000X0.550000X0.550000X-0.550000X0.550000X-0.550000X-0.550000X0*%
%TD*%
%TA.AperFunction,ComponentPad*%
%ADD24C,2.400000*%
%TD*%
%TA.AperFunction,Conductor*%
%ADD25C,0.500000*%
%TD*%
G04 APERTURE END LIST*
D10*
%TO.P,J2,2,Pin_2_2*%
%TO.N,GND*%
X114467500Y-86250000D03*
D11*
%TO.P,J2,1,Pin_1_1*%
%TO.N,/+ve*%
X114467500Y-91250000D03*
%TD*%
D12*
%TO.P,D4,2,A_2*%
%TO.N,GND*%
X71000000Y-97580000D03*
D13*
%TO.P,D4,1,K_1*%
%TO.N,Net-(D3-A)*%
X71000000Y-87420000D03*
%TD*%
D14*
%TO.P,U1,1,VI_1*%
%TO.N,Net-(D1-K)*%
X98460000Y-92950000D03*
D15*
%TO.P,U1,2,GND_2*%
%TO.N,GND*%
X101000000Y-92950000D03*
%TO.P,U1,3,VO_3*%
%TO.N,/+ve*%
X103540000Y-92950000D03*
%TD*%
D16*
%TO.P,R4,1*%
%TO.N,Net-(D7-A)*%
X116040000Y-74000000D03*
%TO.P,R4,2*%
%TO.N,Net-(D1-K)*%
X110960000Y-74000000D03*
%TD*%
%TO.P,R3,1*%
%TO.N,GND*%
X106000000Y-75460000D03*
%TO.P,R3,2*%
%TO.N,Net-(D5-A)*%
X106000000Y-80540000D03*
%TD*%
%TO.P,R2,1*%
%TO.N,GND*%
X81500000Y-80540000D03*
%TO.P,R2,2*%
%TO.N,Net-(D6-A)*%
X81500000Y-75460000D03*
%TD*%
%TO.P,R1,1*%
%TO.N,Net-(J1-Pin_1)*%
X69920000Y-107000000D03*
%TO.P,R1,2*%
%TO.N,Net-(D3-A)*%
X75000000Y-107000000D03*
%TD*%
D11*
%TO.P,J1,1,Pin_1_1*%
%TO.N,Net-(J1-Pin_1)*%
X56967500Y-90750000D03*
D10*
%TO.P,J1,2,Pin_2_2*%
%TO.N,Net-(D1-A)*%
X56967500Y-85750000D03*
%TD*%
D17*
%TO.P,D7,1,K_1*%
%TO.N,GND*%
X114775000Y-79000000D03*
D18*
%TO.P,D7,2,A_2*%
%TO.N,Net-(D7-A)*%
X112235000Y-79000000D03*
%TD*%
D19*
%TO.P,D6,1,K_1*%
%TO.N,Net-(D1-K)*%
X101120000Y-74730000D03*
D20*
%TO.P,D6,2,A_2*%
%TO.N,Net-(D6-A)*%
X85880000Y-74730000D03*
%TD*%
D19*
%TO.P,D5,1,K_1*%
%TO.N,Net-(D1-K)*%
X101120000Y-82000000D03*
D20*
%TO.P,D5,2,A_2*%
%TO.N,Net-(D5-A)*%
X85880000Y-82000000D03*
%TD*%
D13*
%TO.P,D3,1,K_1*%
%TO.N,Net-(D1-K)*%
X71000000Y-72920000D03*
D12*
%TO.P,D3,2,A_2*%
%TO.N,Net-(D3-A)*%
X71000000Y-83080000D03*
%TD*%
D13*
%TO.P,D2,1,K_1*%
%TO.N,Net-(D1-A)*%
X66500000Y-87500000D03*
D12*
%TO.P,D2,2,A_2*%
%TO.N,GND*%
X66500000Y-97660000D03*
%TD*%
D13*
%TO.P,D1,1,K_1*%
%TO.N,Net-(D1-K)*%
X66500000Y-72920000D03*
D12*
%TO.P,D1,2,A_2*%
%TO.N,Net-(D1-A)*%
X66500000Y-83080000D03*
%TD*%
D21*
%TO.P,C4,1*%
%TO.N,/+ve*%
X105000000Y-103500000D03*
D22*
%TO.P,C4,2*%
%TO.N,GND*%
X102500000Y-103500000D03*
%TD*%
%TO.P,C3,1*%
%TO.N,Net-(D1-K)*%
X77500000Y-75000000D03*
%TO.P,C3,2*%
%TO.N,GND*%
X77500000Y-80000000D03*
%TD*%
D23*
%TO.P,C2,1*%
%TO.N,Net-(D1-K)*%
X79000000Y-93500000D03*
D22*
%TO.P,C2,2*%
%TO.N,GND*%
X79000000Y-91000000D03*
%TD*%
D24*
%TO.P,C1,1*%
%TO.N,Net-(J1-Pin_1)*%
X71000000Y-102500000D03*
%TO.P,C1,2*%
%TO.N,Net-(D3-A)*%
X86000000Y-102500000D03*
%TD*%
%TO.N,Net-(D5-A)*%
D25*
X104000000Y-78540000D02*
X106000000Y-80540000D01*
X104000000Y-78500000D02*
X104000000Y-78540000D01*
X89380000Y-78500000D02*
X104000000Y-78500000D01*
X85880000Y-82000000D02*
X89380000Y-78500000D01*
%TD*%
M02*
