M48
; DRILL file KiCad 10.0.4 date 2026-07-02T18:15:41
; FORMAT={-:-/ absolute / metric / decimal}
; #@! TF.CreationDate,2026-07-02T18:15:41+06:00
; #@! TF.GenerationSoftware,Kicad,Pcbnew,10.0.4
; #@! TF.FileFunction,Plated,1,2,PTH
FMAT,2
METRIC
; #@! TA.AperFunction,Plated,PTH,ComponentDrill
T1C0.700
; #@! TA.AperFunction,Plated,PTH,ComponentDrill
T2C0.800
; #@! TA.AperFunction,Plated,PTH,ComponentDrill
T3C0.900
; #@! TA.AperFunction,Plated,PTH,ComponentDrill
T4C1.100
; #@! TA.AperFunction,Plated,PTH,ComponentDrill
T5C1.200
; #@! TA.AperFunction,Plated,PTH,ComponentDrill
T6C1.300
%
G90
G05
T1
X69.92Y-107.0
X75.0Y-107.0
X81.5Y-75.46
X81.5Y-80.54
X106.0Y-75.46
X106.0Y-80.54
X110.96Y-74.0
X116.04Y-74.0
T2
X77.5Y-75.0
X77.5Y-80.0
X79.0Y-91.0
X79.0Y-93.5
X102.5Y-103.5
X105.0Y-103.5
T3
X112.235Y-79.0
X114.775Y-79.0
T4
X66.5Y-72.92
X66.5Y-83.08
X66.5Y-87.5
X66.5Y-97.66
X71.0Y-72.92
X71.0Y-83.08
X71.0Y-87.42
X71.0Y-97.58
X98.46Y-92.95
X101.0Y-92.95
X103.54Y-92.95
T5
X71.0Y-102.5
X86.0Y-102.5
T6
X56.967Y-85.75
X56.967Y-90.75
X85.88Y-74.73
X85.88Y-82.0
X101.12Y-74.73
X101.12Y-82.0
X114.468Y-86.25
X114.468Y-91.25
M30
