%TF.GenerationSoftware,KiCad,Pcbnew,10.0.4*%
%TF.CreationDate,2026-07-02T18:15:22+06:00*%
%TF.ProjectId,Transformerless power supply,5472616e-7366-46f7-926d-65726c657373,rev?*%
%TF.SameCoordinates,Original*%
%TF.FileFunction,Legend,Top*%
%TF.FilePolarity,Positive*%
%FSLAX46Y46*%
G04 Gerber Fmt 4.6, Leading zero omitted, Abs format (unit mm)*
G04 Created by KiCad (PCBNEW 10.0.4) date 2026-07-02 18:15:22*
%MOMM*%
%LPD*%
G01*
G04 APERTURE LIST*
%ADD10C,0.100000*%
%ADD11C,0.150000*%
%ADD12C,0.120000*%
G04 APERTURE END LIST*
D10*
X52827693Y-97872419D02*
X52256265Y-97872419D01*
X52541979Y-97872419D02*
X52541979Y-96872419D01*
X52541979Y-96872419D02*
X52446741Y-97015276D01*
X52446741Y-97015276D02*
X52351503Y-97110514D01*
X52351503Y-97110514D02*
X52256265Y-97158133D01*
X53780074Y-97872419D02*
X53208646Y-97872419D01*
X53494360Y-97872419D02*
X53494360Y-96872419D01*
X53494360Y-96872419D02*
X53399122Y-97015276D01*
X53399122Y-97015276D02*
X53303884Y-97110514D01*
X53303884Y-97110514D02*
X53208646Y-97158133D01*
X54399122Y-96872419D02*
X54494360Y-96872419D01*
X54494360Y-96872419D02*
X54589598Y-96920038D01*
X54589598Y-96920038D02*
X54637217Y-96967657D01*
X54637217Y-96967657D02*
X54684836Y-97062895D01*
X54684836Y-97062895D02*
X54732455Y-97253371D01*
X54732455Y-97253371D02*
X54732455Y-97491466D01*
X54732455Y-97491466D02*
X54684836Y-97681942D01*
X54684836Y-97681942D02*
X54637217Y-97777180D01*
X54637217Y-97777180D02*
X54589598Y-97824800D01*
X54589598Y-97824800D02*
X54494360Y-97872419D01*
X54494360Y-97872419D02*
X54399122Y-97872419D01*
X54399122Y-97872419D02*
X54303884Y-97824800D01*
X54303884Y-97824800D02*
X54256265Y-97777180D01*
X54256265Y-97777180D02*
X54208646Y-97681942D01*
X54208646Y-97681942D02*
X54161027Y-97491466D01*
X54161027Y-97491466D02*
X54161027Y-97253371D01*
X54161027Y-97253371D02*
X54208646Y-97062895D01*
X54208646Y-97062895D02*
X54256265Y-96967657D01*
X54256265Y-96967657D02*
X54303884Y-96920038D01*
X54303884Y-96920038D02*
X54399122Y-96872419D01*
X55161027Y-97491466D02*
X55922932Y-97491466D01*
X56351503Y-96967657D02*
X56399122Y-96920038D01*
X56399122Y-96920038D02*
X56494360Y-96872419D01*
X56494360Y-96872419D02*
X56732455Y-96872419D01*
X56732455Y-96872419D02*
X56827693Y-96920038D01*
X56827693Y-96920038D02*
X56875312Y-96967657D01*
X56875312Y-96967657D02*
X56922931Y-97062895D01*
X56922931Y-97062895D02*
X56922931Y-97158133D01*
X56922931Y-97158133D02*
X56875312Y-97300990D01*
X56875312Y-97300990D02*
X56303884Y-97872419D01*
X56303884Y-97872419D02*
X56922931Y-97872419D01*
X57303884Y-96967657D02*
X57351503Y-96920038D01*
X57351503Y-96920038D02*
X57446741Y-96872419D01*
X57446741Y-96872419D02*
X57684836Y-96872419D01*
X57684836Y-96872419D02*
X57780074Y-96920038D01*
X57780074Y-96920038D02*
X57827693Y-96967657D01*
X57827693Y-96967657D02*
X57875312Y-97062895D01*
X57875312Y-97062895D02*
X57875312Y-97158133D01*
X57875312Y-97158133D02*
X57827693Y-97300990D01*
X57827693Y-97300990D02*
X57256265Y-97872419D01*
X57256265Y-97872419D02*
X57875312Y-97872419D01*
X58494360Y-96872419D02*
X58589598Y-96872419D01*
X58589598Y-96872419D02*
X58684836Y-96920038D01*
X58684836Y-96920038D02*
X58732455Y-96967657D01*
X58732455Y-96967657D02*
X58780074Y-97062895D01*
X58780074Y-97062895D02*
X58827693Y-97253371D01*
X58827693Y-97253371D02*
X58827693Y-97491466D01*
X58827693Y-97491466D02*
X58780074Y-97681942D01*
X58780074Y-97681942D02*
X58732455Y-97777180D01*
X58732455Y-97777180D02*
X58684836Y-97824800D01*
X58684836Y-97824800D02*
X58589598Y-97872419D01*
X58589598Y-97872419D02*
X58494360Y-97872419D01*
X58494360Y-97872419D02*
X58399122Y-97824800D01*
X58399122Y-97824800D02*
X58351503Y-97777180D01*
X58351503Y-97777180D02*
X58303884Y-97681942D01*
X58303884Y-97681942D02*
X58256265Y-97491466D01*
X58256265Y-97491466D02*
X58256265Y-97253371D01*
X58256265Y-97253371D02*
X58303884Y-97062895D01*
X58303884Y-97062895D02*
X58351503Y-96967657D01*
X58351503Y-96967657D02*
X58399122Y-96920038D01*
X58399122Y-96920038D02*
X58494360Y-96872419D01*
X59113408Y-96872419D02*
X59446741Y-97872419D01*
X59446741Y-97872419D02*
X59780074Y-96872419D01*
X110780074Y-95372419D02*
X110303884Y-95372419D01*
X110303884Y-95372419D02*
X110256265Y-95848609D01*
X110256265Y-95848609D02*
X110303884Y-95800990D01*
X110303884Y-95800990D02*
X110399122Y-95753371D01*
X110399122Y-95753371D02*
X110637217Y-95753371D01*
X110637217Y-95753371D02*
X110732455Y-95800990D01*
X110732455Y-95800990D02*
X110780074Y-95848609D01*
X110780074Y-95848609D02*
X110827693Y-95943847D01*
X110827693Y-95943847D02*
X110827693Y-96181942D01*
X110827693Y-96181942D02*
X110780074Y-96277180D01*
X110780074Y-96277180D02*
X110732455Y-96324800D01*
X110732455Y-96324800D02*
X110637217Y-96372419D01*
X110637217Y-96372419D02*
X110399122Y-96372419D01*
X110399122Y-96372419D02*
X110303884Y-96324800D01*
X110303884Y-96324800D02*
X110256265Y-96277180D01*
X111113408Y-95372419D02*
X111446741Y-96372419D01*
X111446741Y-96372419D02*
X111780074Y-95372419D01*
X112875313Y-96372419D02*
X112875313Y-95372419D01*
X112875313Y-95372419D02*
X113113408Y-95372419D01*
X113113408Y-95372419D02*
X113256265Y-95420038D01*
X113256265Y-95420038D02*
X113351503Y-95515276D01*
X113351503Y-95515276D02*
X113399122Y-95610514D01*
X113399122Y-95610514D02*
X113446741Y-95800990D01*
X113446741Y-95800990D02*
X113446741Y-95943847D01*
X113446741Y-95943847D02*
X113399122Y-96134323D01*
X113399122Y-96134323D02*
X113351503Y-96229561D01*
X113351503Y-96229561D02*
X113256265Y-96324800D01*
X113256265Y-96324800D02*
X113113408Y-96372419D01*
X113113408Y-96372419D02*
X112875313Y-96372419D01*
X114446741Y-96277180D02*
X114399122Y-96324800D01*
X114399122Y-96324800D02*
X114256265Y-96372419D01*
X114256265Y-96372419D02*
X114161027Y-96372419D01*
X114161027Y-96372419D02*
X114018170Y-96324800D01*
X114018170Y-96324800D02*
X113922932Y-96229561D01*
X113922932Y-96229561D02*
X113875313Y-96134323D01*
X113875313Y-96134323D02*
X113827694Y-95943847D01*
X113827694Y-95943847D02*
X113827694Y-95800990D01*
X113827694Y-95800990D02*
X113875313Y-95610514D01*
X113875313Y-95610514D02*
X113922932Y-95515276D01*
X113922932Y-95515276D02*
X114018170Y-95420038D01*
X114018170Y-95420038D02*
X114161027Y-95372419D01*
X114161027Y-95372419D02*
X114256265Y-95372419D01*
X114256265Y-95372419D02*
X114399122Y-95420038D01*
X114399122Y-95420038D02*
X114446741Y-95467657D01*
X115780075Y-96372419D02*
X115684837Y-96324800D01*
X115684837Y-96324800D02*
X115637218Y-96277180D01*
X115637218Y-96277180D02*
X115589599Y-96181942D01*
X115589599Y-96181942D02*
X115589599Y-95896228D01*
X115589599Y-95896228D02*
X115637218Y-95800990D01*
X115637218Y-95800990D02*
X115684837Y-95753371D01*
X115684837Y-95753371D02*
X115780075Y-95705752D01*
X115780075Y-95705752D02*
X115922932Y-95705752D01*
X115922932Y-95705752D02*
X116018170Y-95753371D01*
X116018170Y-95753371D02*
X116065789Y-95800990D01*
X116065789Y-95800990D02*
X116113408Y-95896228D01*
X116113408Y-95896228D02*
X116113408Y-96181942D01*
X116113408Y-96181942D02*
X116065789Y-96277180D01*
X116065789Y-96277180D02*
X116018170Y-96324800D01*
X116018170Y-96324800D02*
X115922932Y-96372419D01*
X115922932Y-96372419D02*
X115780075Y-96372419D01*
X116970551Y-95705752D02*
X116970551Y-96372419D01*
X116541980Y-95705752D02*
X116541980Y-96229561D01*
X116541980Y-96229561D02*
X116589599Y-96324800D01*
X116589599Y-96324800D02*
X116684837Y-96372419D01*
X116684837Y-96372419D02*
X116827694Y-96372419D01*
X116827694Y-96372419D02*
X116922932Y-96324800D01*
X116922932Y-96324800D02*
X116970551Y-96277180D01*
X117303885Y-95705752D02*
X117684837Y-95705752D01*
X117446742Y-95372419D02*
X117446742Y-96229561D01*
X117446742Y-96229561D02*
X117494361Y-96324800D01*
X117494361Y-96324800D02*
X117589599Y-96372419D01*
X117589599Y-96372419D02*
X117684837Y-96372419D01*
X53756265Y-95586704D02*
X54232455Y-95586704D01*
X53661027Y-95872419D02*
X53994360Y-94872419D01*
X53994360Y-94872419D02*
X54327693Y-95872419D01*
X55232455Y-95777180D02*
X55184836Y-95824800D01*
X55184836Y-95824800D02*
X55041979Y-95872419D01*
X55041979Y-95872419D02*
X54946741Y-95872419D01*
X54946741Y-95872419D02*
X54803884Y-95824800D01*
X54803884Y-95824800D02*
X54708646Y-95729561D01*
X54708646Y-95729561D02*
X54661027Y-95634323D01*
X54661027Y-95634323D02*
X54613408Y-95443847D01*
X54613408Y-95443847D02*
X54613408Y-95300990D01*
X54613408Y-95300990D02*
X54661027Y-95110514D01*
X54661027Y-95110514D02*
X54708646Y-95015276D01*
X54708646Y-95015276D02*
X54803884Y-94920038D01*
X54803884Y-94920038D02*
X54946741Y-94872419D01*
X54946741Y-94872419D02*
X55041979Y-94872419D01*
X55041979Y-94872419D02*
X55184836Y-94920038D01*
X55184836Y-94920038D02*
X55232455Y-94967657D01*
X56422932Y-95872419D02*
X56422932Y-95205752D01*
X56422932Y-94872419D02*
X56375313Y-94920038D01*
X56375313Y-94920038D02*
X56422932Y-94967657D01*
X56422932Y-94967657D02*
X56470551Y-94920038D01*
X56470551Y-94920038D02*
X56422932Y-94872419D01*
X56422932Y-94872419D02*
X56422932Y-94967657D01*
X56899122Y-95205752D02*
X56899122Y-95872419D01*
X56899122Y-95300990D02*
X56946741Y-95253371D01*
X56946741Y-95253371D02*
X57041979Y-95205752D01*
X57041979Y-95205752D02*
X57184836Y-95205752D01*
X57184836Y-95205752D02*
X57280074Y-95253371D01*
X57280074Y-95253371D02*
X57327693Y-95348609D01*
X57327693Y-95348609D02*
X57327693Y-95872419D01*
X52161027Y-101262475D02*
X52732455Y-101262475D01*
X52446741Y-102262475D02*
X52446741Y-101262475D01*
X53065789Y-102262475D02*
X53065789Y-101595808D01*
X53065789Y-101786284D02*
X53113408Y-101691046D01*
X53113408Y-101691046D02*
X53161027Y-101643427D01*
X53161027Y-101643427D02*
X53256265Y-101595808D01*
X53256265Y-101595808D02*
X53351503Y-101595808D01*
X54113408Y-102262475D02*
X54113408Y-101738665D01*
X54113408Y-101738665D02*
X54065789Y-101643427D01*
X54065789Y-101643427D02*
X53970551Y-101595808D01*
X53970551Y-101595808D02*
X53780075Y-101595808D01*
X53780075Y-101595808D02*
X53684837Y-101643427D01*
X54113408Y-102214856D02*
X54018170Y-102262475D01*
X54018170Y-102262475D02*
X53780075Y-102262475D01*
X53780075Y-102262475D02*
X53684837Y-102214856D01*
X53684837Y-102214856D02*
X53637218Y-102119617D01*
X53637218Y-102119617D02*
X53637218Y-102024379D01*
X53637218Y-102024379D02*
X53684837Y-101929141D01*
X53684837Y-101929141D02*
X53780075Y-101881522D01*
X53780075Y-101881522D02*
X54018170Y-101881522D01*
X54018170Y-101881522D02*
X54113408Y-101833903D01*
X54589599Y-101595808D02*
X54589599Y-102262475D01*
X54589599Y-101691046D02*
X54637218Y-101643427D01*
X54637218Y-101643427D02*
X54732456Y-101595808D01*
X54732456Y-101595808D02*
X54875313Y-101595808D01*
X54875313Y-101595808D02*
X54970551Y-101643427D01*
X54970551Y-101643427D02*
X55018170Y-101738665D01*
X55018170Y-101738665D02*
X55018170Y-102262475D01*
X55446742Y-102214856D02*
X55541980Y-102262475D01*
X55541980Y-102262475D02*
X55732456Y-102262475D01*
X55732456Y-102262475D02*
X55827694Y-102214856D01*
X55827694Y-102214856D02*
X55875313Y-102119617D01*
X55875313Y-102119617D02*
X55875313Y-102071998D01*
X55875313Y-102071998D02*
X55827694Y-101976760D01*
X55827694Y-101976760D02*
X55732456Y-101929141D01*
X55732456Y-101929141D02*
X55589599Y-101929141D01*
X55589599Y-101929141D02*
X55494361Y-101881522D01*
X55494361Y-101881522D02*
X55446742Y-101786284D01*
X55446742Y-101786284D02*
X55446742Y-101738665D01*
X55446742Y-101738665D02*
X55494361Y-101643427D01*
X55494361Y-101643427D02*
X55589599Y-101595808D01*
X55589599Y-101595808D02*
X55732456Y-101595808D01*
X55732456Y-101595808D02*
X55827694Y-101643427D01*
X56161028Y-101595808D02*
X56541980Y-101595808D01*
X56303885Y-102262475D02*
X56303885Y-101405332D01*
X56303885Y-101405332D02*
X56351504Y-101310094D01*
X56351504Y-101310094D02*
X56446742Y-101262475D01*
X56446742Y-101262475D02*
X56541980Y-101262475D01*
X57018171Y-102262475D02*
X56922933Y-102214856D01*
X56922933Y-102214856D02*
X56875314Y-102167236D01*
X56875314Y-102167236D02*
X56827695Y-102071998D01*
X56827695Y-102071998D02*
X56827695Y-101786284D01*
X56827695Y-101786284D02*
X56875314Y-101691046D01*
X56875314Y-101691046D02*
X56922933Y-101643427D01*
X56922933Y-101643427D02*
X57018171Y-101595808D01*
X57018171Y-101595808D02*
X57161028Y-101595808D01*
X57161028Y-101595808D02*
X57256266Y-101643427D01*
X57256266Y-101643427D02*
X57303885Y-101691046D01*
X57303885Y-101691046D02*
X57351504Y-101786284D01*
X57351504Y-101786284D02*
X57351504Y-102071998D01*
X57351504Y-102071998D02*
X57303885Y-102167236D01*
X57303885Y-102167236D02*
X57256266Y-102214856D01*
X57256266Y-102214856D02*
X57161028Y-102262475D01*
X57161028Y-102262475D02*
X57018171Y-102262475D01*
X57780076Y-102262475D02*
X57780076Y-101595808D01*
X57780076Y-101786284D02*
X57827695Y-101691046D01*
X57827695Y-101691046D02*
X57875314Y-101643427D01*
X57875314Y-101643427D02*
X57970552Y-101595808D01*
X57970552Y-101595808D02*
X58065790Y-101595808D01*
X58399124Y-102262475D02*
X58399124Y-101595808D01*
X58399124Y-101691046D02*
X58446743Y-101643427D01*
X58446743Y-101643427D02*
X58541981Y-101595808D01*
X58541981Y-101595808D02*
X58684838Y-101595808D01*
X58684838Y-101595808D02*
X58780076Y-101643427D01*
X58780076Y-101643427D02*
X58827695Y-101738665D01*
X58827695Y-101738665D02*
X58827695Y-102262475D01*
X58827695Y-101738665D02*
X58875314Y-101643427D01*
X58875314Y-101643427D02*
X58970552Y-101595808D01*
X58970552Y-101595808D02*
X59113409Y-101595808D01*
X59113409Y-101595808D02*
X59208648Y-101643427D01*
X59208648Y-101643427D02*
X59256267Y-101738665D01*
X59256267Y-101738665D02*
X59256267Y-102262475D01*
X60113409Y-102214856D02*
X60018171Y-102262475D01*
X60018171Y-102262475D02*
X59827695Y-102262475D01*
X59827695Y-102262475D02*
X59732457Y-102214856D01*
X59732457Y-102214856D02*
X59684838Y-102119617D01*
X59684838Y-102119617D02*
X59684838Y-101738665D01*
X59684838Y-101738665D02*
X59732457Y-101643427D01*
X59732457Y-101643427D02*
X59827695Y-101595808D01*
X59827695Y-101595808D02*
X60018171Y-101595808D01*
X60018171Y-101595808D02*
X60113409Y-101643427D01*
X60113409Y-101643427D02*
X60161028Y-101738665D01*
X60161028Y-101738665D02*
X60161028Y-101833903D01*
X60161028Y-101833903D02*
X59684838Y-101929141D01*
X60589600Y-102262475D02*
X60589600Y-101595808D01*
X60589600Y-101786284D02*
X60637219Y-101691046D01*
X60637219Y-101691046D02*
X60684838Y-101643427D01*
X60684838Y-101643427D02*
X60780076Y-101595808D01*
X60780076Y-101595808D02*
X60875314Y-101595808D01*
X61351505Y-102262475D02*
X61256267Y-102214856D01*
X61256267Y-102214856D02*
X61208648Y-102119617D01*
X61208648Y-102119617D02*
X61208648Y-101262475D01*
X62113410Y-102214856D02*
X62018172Y-102262475D01*
X62018172Y-102262475D02*
X61827696Y-102262475D01*
X61827696Y-102262475D02*
X61732458Y-102214856D01*
X61732458Y-102214856D02*
X61684839Y-102119617D01*
X61684839Y-102119617D02*
X61684839Y-101738665D01*
X61684839Y-101738665D02*
X61732458Y-101643427D01*
X61732458Y-101643427D02*
X61827696Y-101595808D01*
X61827696Y-101595808D02*
X62018172Y-101595808D01*
X62018172Y-101595808D02*
X62113410Y-101643427D01*
X62113410Y-101643427D02*
X62161029Y-101738665D01*
X62161029Y-101738665D02*
X62161029Y-101833903D01*
X62161029Y-101833903D02*
X61684839Y-101929141D01*
X62541982Y-102214856D02*
X62637220Y-102262475D01*
X62637220Y-102262475D02*
X62827696Y-102262475D01*
X62827696Y-102262475D02*
X62922934Y-102214856D01*
X62922934Y-102214856D02*
X62970553Y-102119617D01*
X62970553Y-102119617D02*
X62970553Y-102071998D01*
X62970553Y-102071998D02*
X62922934Y-101976760D01*
X62922934Y-101976760D02*
X62827696Y-101929141D01*
X62827696Y-101929141D02*
X62684839Y-101929141D01*
X62684839Y-101929141D02*
X62589601Y-101881522D01*
X62589601Y-101881522D02*
X62541982Y-101786284D01*
X62541982Y-101786284D02*
X62541982Y-101738665D01*
X62541982Y-101738665D02*
X62589601Y-101643427D01*
X62589601Y-101643427D02*
X62684839Y-101595808D01*
X62684839Y-101595808D02*
X62827696Y-101595808D01*
X62827696Y-101595808D02*
X62922934Y-101643427D01*
X63351506Y-102214856D02*
X63446744Y-102262475D01*
X63446744Y-102262475D02*
X63637220Y-102262475D01*
X63637220Y-102262475D02*
X63732458Y-102214856D01*
X63732458Y-102214856D02*
X63780077Y-102119617D01*
X63780077Y-102119617D02*
X63780077Y-102071998D01*
X63780077Y-102071998D02*
X63732458Y-101976760D01*
X63732458Y-101976760D02*
X63637220Y-101929141D01*
X63637220Y-101929141D02*
X63494363Y-101929141D01*
X63494363Y-101929141D02*
X63399125Y-101881522D01*
X63399125Y-101881522D02*
X63351506Y-101786284D01*
X63351506Y-101786284D02*
X63351506Y-101738665D01*
X63351506Y-101738665D02*
X63399125Y-101643427D01*
X63399125Y-101643427D02*
X63494363Y-101595808D01*
X63494363Y-101595808D02*
X63637220Y-101595808D01*
X63637220Y-101595808D02*
X63732458Y-101643427D01*
X52303884Y-103872419D02*
X52303884Y-102872419D01*
X52303884Y-102872419D02*
X52684836Y-102872419D01*
X52684836Y-102872419D02*
X52780074Y-102920038D01*
X52780074Y-102920038D02*
X52827693Y-102967657D01*
X52827693Y-102967657D02*
X52875312Y-103062895D01*
X52875312Y-103062895D02*
X52875312Y-103205752D01*
X52875312Y-103205752D02*
X52827693Y-103300990D01*
X52827693Y-103300990D02*
X52780074Y-103348609D01*
X52780074Y-103348609D02*
X52684836Y-103396228D01*
X52684836Y-103396228D02*
X52303884Y-103396228D01*
X53446741Y-103872419D02*
X53351503Y-103824800D01*
X53351503Y-103824800D02*
X53303884Y-103777180D01*
X53303884Y-103777180D02*
X53256265Y-103681942D01*
X53256265Y-103681942D02*
X53256265Y-103396228D01*
X53256265Y-103396228D02*
X53303884Y-103300990D01*
X53303884Y-103300990D02*
X53351503Y-103253371D01*
X53351503Y-103253371D02*
X53446741Y-103205752D01*
X53446741Y-103205752D02*
X53589598Y-103205752D01*
X53589598Y-103205752D02*
X53684836Y-103253371D01*
X53684836Y-103253371D02*
X53732455Y-103300990D01*
X53732455Y-103300990D02*
X53780074Y-103396228D01*
X53780074Y-103396228D02*
X53780074Y-103681942D01*
X53780074Y-103681942D02*
X53732455Y-103777180D01*
X53732455Y-103777180D02*
X53684836Y-103824800D01*
X53684836Y-103824800D02*
X53589598Y-103872419D01*
X53589598Y-103872419D02*
X53446741Y-103872419D01*
X54113408Y-103205752D02*
X54303884Y-103872419D01*
X54303884Y-103872419D02*
X54494360Y-103396228D01*
X54494360Y-103396228D02*
X54684836Y-103872419D01*
X54684836Y-103872419D02*
X54875312Y-103205752D01*
X55637217Y-103824800D02*
X55541979Y-103872419D01*
X55541979Y-103872419D02*
X55351503Y-103872419D01*
X55351503Y-103872419D02*
X55256265Y-103824800D01*
X55256265Y-103824800D02*
X55208646Y-103729561D01*
X55208646Y-103729561D02*
X55208646Y-103348609D01*
X55208646Y-103348609D02*
X55256265Y-103253371D01*
X55256265Y-103253371D02*
X55351503Y-103205752D01*
X55351503Y-103205752D02*
X55541979Y-103205752D01*
X55541979Y-103205752D02*
X55637217Y-103253371D01*
X55637217Y-103253371D02*
X55684836Y-103348609D01*
X55684836Y-103348609D02*
X55684836Y-103443847D01*
X55684836Y-103443847D02*
X55208646Y-103539085D01*
X56113408Y-103872419D02*
X56113408Y-103205752D01*
X56113408Y-103396228D02*
X56161027Y-103300990D01*
X56161027Y-103300990D02*
X56208646Y-103253371D01*
X56208646Y-103253371D02*
X56303884Y-103205752D01*
X56303884Y-103205752D02*
X56399122Y-103205752D01*
X57446742Y-103824800D02*
X57589599Y-103872419D01*
X57589599Y-103872419D02*
X57827694Y-103872419D01*
X57827694Y-103872419D02*
X57922932Y-103824800D01*
X57922932Y-103824800D02*
X57970551Y-103777180D01*
X57970551Y-103777180D02*
X58018170Y-103681942D01*
X58018170Y-103681942D02*
X58018170Y-103586704D01*
X58018170Y-103586704D02*
X57970551Y-103491466D01*
X57970551Y-103491466D02*
X57922932Y-103443847D01*
X57922932Y-103443847D02*
X57827694Y-103396228D01*
X57827694Y-103396228D02*
X57637218Y-103348609D01*
X57637218Y-103348609D02*
X57541980Y-103300990D01*
X57541980Y-103300990D02*
X57494361Y-103253371D01*
X57494361Y-103253371D02*
X57446742Y-103158133D01*
X57446742Y-103158133D02*
X57446742Y-103062895D01*
X57446742Y-103062895D02*
X57494361Y-102967657D01*
X57494361Y-102967657D02*
X57541980Y-102920038D01*
X57541980Y-102920038D02*
X57637218Y-102872419D01*
X57637218Y-102872419D02*
X57875313Y-102872419D01*
X57875313Y-102872419D02*
X58018170Y-102920038D01*
X58875313Y-103205752D02*
X58875313Y-103872419D01*
X58446742Y-103205752D02*
X58446742Y-103729561D01*
X58446742Y-103729561D02*
X58494361Y-103824800D01*
X58494361Y-103824800D02*
X58589599Y-103872419D01*
X58589599Y-103872419D02*
X58732456Y-103872419D01*
X58732456Y-103872419D02*
X58827694Y-103824800D01*
X58827694Y-103824800D02*
X58875313Y-103777180D01*
X59351504Y-103205752D02*
X59351504Y-104205752D01*
X59351504Y-103253371D02*
X59446742Y-103205752D01*
X59446742Y-103205752D02*
X59637218Y-103205752D01*
X59637218Y-103205752D02*
X59732456Y-103253371D01*
X59732456Y-103253371D02*
X59780075Y-103300990D01*
X59780075Y-103300990D02*
X59827694Y-103396228D01*
X59827694Y-103396228D02*
X59827694Y-103681942D01*
X59827694Y-103681942D02*
X59780075Y-103777180D01*
X59780075Y-103777180D02*
X59732456Y-103824800D01*
X59732456Y-103824800D02*
X59637218Y-103872419D01*
X59637218Y-103872419D02*
X59446742Y-103872419D01*
X59446742Y-103872419D02*
X59351504Y-103824800D01*
X60256266Y-103205752D02*
X60256266Y-104205752D01*
X60256266Y-103253371D02*
X60351504Y-103205752D01*
X60351504Y-103205752D02*
X60541980Y-103205752D01*
X60541980Y-103205752D02*
X60637218Y-103253371D01*
X60637218Y-103253371D02*
X60684837Y-103300990D01*
X60684837Y-103300990D02*
X60732456Y-103396228D01*
X60732456Y-103396228D02*
X60732456Y-103681942D01*
X60732456Y-103681942D02*
X60684837Y-103777180D01*
X60684837Y-103777180D02*
X60637218Y-103824800D01*
X60637218Y-103824800D02*
X60541980Y-103872419D01*
X60541980Y-103872419D02*
X60351504Y-103872419D01*
X60351504Y-103872419D02*
X60256266Y-103824800D01*
X61303885Y-103872419D02*
X61208647Y-103824800D01*
X61208647Y-103824800D02*
X61161028Y-103729561D01*
X61161028Y-103729561D02*
X61161028Y-102872419D01*
X61589600Y-103205752D02*
X61827695Y-103872419D01*
X62065790Y-103205752D02*
X61827695Y-103872419D01*
X61827695Y-103872419D02*
X61732457Y-104110514D01*
X61732457Y-104110514D02*
X61684838Y-104158133D01*
X61684838Y-104158133D02*
X61589600Y-104205752D01*
D11*
X108802319Y-89333333D02*
X109516604Y-89333333D01*
X109516604Y-89333333D02*
X109659461Y-89380952D01*
X109659461Y-89380952D02*
X109754700Y-89476190D01*
X109754700Y-89476190D02*
X109802319Y-89619047D01*
X109802319Y-89619047D02*
X109802319Y-89714285D01*
X108897557Y-88904761D02*
X108849938Y-88857142D01*
X108849938Y-88857142D02*
X108802319Y-88761904D01*
X108802319Y-88761904D02*
X108802319Y-88523809D01*
X108802319Y-88523809D02*
X108849938Y-88428571D01*
X108849938Y-88428571D02*
X108897557Y-88380952D01*
X108897557Y-88380952D02*
X108992795Y-88333333D01*
X108992795Y-88333333D02*
X109088033Y-88333333D01*
X109088033Y-88333333D02*
X109230890Y-88380952D01*
X109230890Y-88380952D02*
X109802319Y-88952380D01*
X109802319Y-88952380D02*
X109802319Y-88333333D01*
X100238095Y-88304819D02*
X100238095Y-89114342D01*
X100238095Y-89114342D02*
X100285714Y-89209580D01*
X100285714Y-89209580D02*
X100333333Y-89257200D01*
X100333333Y-89257200D02*
X100428571Y-89304819D01*
X100428571Y-89304819D02*
X100619047Y-89304819D01*
X100619047Y-89304819D02*
X100714285Y-89257200D01*
X100714285Y-89257200D02*
X100761904Y-89209580D01*
X100761904Y-89209580D02*
X100809523Y-89114342D01*
X100809523Y-89114342D02*
X100809523Y-88304819D01*
X101809523Y-89304819D02*
X101238095Y-89304819D01*
X101523809Y-89304819D02*
X101523809Y-88304819D01*
X101523809Y-88304819D02*
X101428571Y-88447676D01*
X101428571Y-88447676D02*
X101333333Y-88542914D01*
X101333333Y-88542914D02*
X101238095Y-88590533D01*
X51302319Y-88833333D02*
X52016604Y-88833333D01*
X52016604Y-88833333D02*
X52159461Y-88880952D01*
X52159461Y-88880952D02*
X52254700Y-88976190D01*
X52254700Y-88976190D02*
X52302319Y-89119047D01*
X52302319Y-89119047D02*
X52302319Y-89214285D01*
X52302319Y-87833333D02*
X52302319Y-88404761D01*
X52302319Y-88119047D02*
X51302319Y-88119047D01*
X51302319Y-88119047D02*
X51445176Y-88214285D01*
X51445176Y-88214285D02*
X51540414Y-88309523D01*
X51540414Y-88309523D02*
X51588033Y-88404761D01*
X112766905Y-83414819D02*
X112766905Y-82414819D01*
X112766905Y-82414819D02*
X113005000Y-82414819D01*
X113005000Y-82414819D02*
X113147857Y-82462438D01*
X113147857Y-82462438D02*
X113243095Y-82557676D01*
X113243095Y-82557676D02*
X113290714Y-82652914D01*
X113290714Y-82652914D02*
X113338333Y-82843390D01*
X113338333Y-82843390D02*
X113338333Y-82986247D01*
X113338333Y-82986247D02*
X113290714Y-83176723D01*
X113290714Y-83176723D02*
X113243095Y-83271961D01*
X113243095Y-83271961D02*
X113147857Y-83367200D01*
X113147857Y-83367200D02*
X113005000Y-83414819D01*
X113005000Y-83414819D02*
X112766905Y-83414819D01*
X113671667Y-82414819D02*
X114338333Y-82414819D01*
X114338333Y-82414819D02*
X113909762Y-83414819D01*
X100858095Y-77484819D02*
X100858095Y-76484819D01*
X101429523Y-77484819D02*
X101000952Y-76913390D01*
X101429523Y-76484819D02*
X100858095Y-77056247D01*
X100858095Y-84754819D02*
X100858095Y-83754819D01*
X101429523Y-84754819D02*
X101000952Y-84183390D01*
X101429523Y-83754819D02*
X100858095Y-84326247D01*
X78333333Y-99109580D02*
X78285714Y-99157200D01*
X78285714Y-99157200D02*
X78142857Y-99204819D01*
X78142857Y-99204819D02*
X78047619Y-99204819D01*
X78047619Y-99204819D02*
X77904762Y-99157200D01*
X77904762Y-99157200D02*
X77809524Y-99061961D01*
X77809524Y-99061961D02*
X77761905Y-98966723D01*
X77761905Y-98966723D02*
X77714286Y-98776247D01*
X77714286Y-98776247D02*
X77714286Y-98633390D01*
X77714286Y-98633390D02*
X77761905Y-98442914D01*
X77761905Y-98442914D02*
X77809524Y-98347676D01*
X77809524Y-98347676D02*
X77904762Y-98252438D01*
X77904762Y-98252438D02*
X78047619Y-98204819D01*
X78047619Y-98204819D02*
X78142857Y-98204819D01*
X78142857Y-98204819D02*
X78285714Y-98252438D01*
X78285714Y-98252438D02*
X78333333Y-98300057D01*
X79285714Y-99204819D02*
X78714286Y-99204819D01*
X79000000Y-99204819D02*
X79000000Y-98204819D01*
X79000000Y-98204819D02*
X78904762Y-98347676D01*
X78904762Y-98347676D02*
X78809524Y-98442914D01*
X78809524Y-98442914D02*
X78714286Y-98490533D01*
D12*
%TO.C,J2*%
X118387500Y-91250000D02*
X118997500Y-90810000D01*
X118997500Y-91690000D01*
X118387500Y-91250000D01*
G36*
X118997500Y-91690000D02*
G01*
X118387500Y-91250000D01*
X118997500Y-90810000D01*
X118997500Y-91690000D01*
G37*
X118387500Y-83630000D02*
X118387500Y-90950000D01*
X110347500Y-83630000D02*
X118387500Y-83630000D01*
X114967500Y-84438000D02*
X114967500Y-83630000D01*
X113967500Y-84438000D02*
X113967500Y-83630000D01*
X116267500Y-85707000D02*
X116267500Y-83630000D01*
X116267500Y-89370000D02*
X116267500Y-86793000D01*
X114967500Y-89370000D02*
X114967500Y-88062000D01*
X113967500Y-89370000D02*
X113967500Y-88062000D01*
X118387500Y-91550000D02*
X118387500Y-94370000D01*
X118387500Y-94370000D02*
X110347500Y-94370000D01*
X116267500Y-94370000D02*
X116267500Y-93130000D01*
X114967500Y-94370000D02*
X114967500Y-93130000D01*
X113967500Y-94370000D02*
X113967500Y-93130000D01*
X110347500Y-94370000D02*
X110347500Y-83630000D01*
%TO.C,D4*%
X69530000Y-89780000D02*
X72470000Y-89780000D01*
X72470000Y-95220000D01*
X69530000Y-95220000D01*
X69530000Y-89780000D01*
X71000000Y-96240000D02*
X71000000Y-95220000D01*
X72470000Y-90800000D02*
X69530000Y-90800000D01*
X72470000Y-90680000D02*
X69530000Y-90680000D01*
X72470000Y-90560000D02*
X69530000Y-90560000D01*
X71000000Y-88760000D02*
X71000000Y-89780000D01*
%TO.C,U1*%
X95890000Y-89690000D02*
X106110000Y-89690000D01*
X95890000Y-91070000D02*
X106110000Y-91070000D01*
X95890000Y-94310000D02*
X95890000Y-89690000D01*
X99150000Y-89690000D02*
X99150000Y-91070000D01*
X102850000Y-89690000D02*
X102850000Y-91070000D01*
X106110000Y-89690000D02*
X106110000Y-94310000D01*
X106110000Y-94310000D02*
X95890000Y-94310000D01*
%TO.C,R4*%
X115420000Y-74920000D02*
X111580000Y-74920000D01*
X115420000Y-73080000D02*
X111580000Y-73080000D01*
%TO.C,R3*%
X106920000Y-76080000D02*
X106920000Y-79920000D01*
X105080000Y-76080000D02*
X105080000Y-79920000D01*
%TO.C,R2*%
X80580000Y-79920000D02*
X80580000Y-76080000D01*
X82420000Y-79920000D02*
X82420000Y-76080000D01*
%TO.C,R1*%
X70540000Y-106080000D02*
X74380000Y-106080000D01*
X70540000Y-107920000D02*
X74380000Y-107920000D01*
%TO.C,J1*%
X52847500Y-93870000D02*
X52847500Y-83130000D01*
X56467500Y-93870000D02*
X56467500Y-92630000D01*
X57467500Y-93870000D02*
X57467500Y-92630000D01*
X58767500Y-93870000D02*
X58767500Y-92630000D01*
X60887500Y-93870000D02*
X52847500Y-93870000D01*
X60887500Y-91050000D02*
X60887500Y-93870000D01*
X56467500Y-88870000D02*
X56467500Y-87562000D01*
X57467500Y-88870000D02*
X57467500Y-87562000D01*
X58767500Y-88870000D02*
X58767500Y-86293000D01*
X58767500Y-85207000D02*
X58767500Y-83130000D01*
X56467500Y-83938000D02*
X56467500Y-83130000D01*
X57467500Y-83938000D02*
X57467500Y-83130000D01*
X52847500Y-83130000D02*
X60887500Y-83130000D01*
X60887500Y-83130000D02*
X60887500Y-90450000D01*
X60887500Y-90750000D02*
X61497500Y-90310000D01*
X61497500Y-91190000D01*
X60887500Y-90750000D01*
G36*
X61497500Y-91190000D02*
G01*
X60887500Y-90750000D01*
X61497500Y-90310000D01*
X61497500Y-91190000D01*
G37*
%TO.C,D7*%
X116065000Y-80545000D02*
X116065000Y-77455000D01*
X116065000Y-80544830D02*
G75*
G02*
X110515000Y-79000000I-2560000J1544830D01*
G01*
X110515000Y-79000000D02*
G75*
G02*
X116065000Y-77455170I2990000J0D01*
G01*
X116005000Y-79000000D02*
G75*
G02*
X111005000Y-79000000I-2500000J0D01*
G01*
X111005000Y-79000000D02*
G75*
G02*
X116005000Y-79000000I2500000J0D01*
G01*
%TO.C,D6*%
X99580000Y-74730000D02*
X98385000Y-74730000D01*
X96955500Y-77455000D02*
X96955500Y-72005000D01*
X96835500Y-77455000D02*
X96835500Y-72005000D01*
X96715500Y-77455000D02*
X96715500Y-72005000D01*
X87420000Y-74730000D02*
X88615000Y-74730000D01*
X88615000Y-72005000D02*
X98385000Y-72005000D01*
X98385000Y-77455000D01*
X88615000Y-77455000D01*
X88615000Y-72005000D01*
%TO.C,D5*%
X99580000Y-82000000D02*
X98385000Y-82000000D01*
X96955500Y-84725000D02*
X96955500Y-79275000D01*
X96835500Y-84725000D02*
X96835500Y-79275000D01*
X96715500Y-84725000D02*
X96715500Y-79275000D01*
X87420000Y-82000000D02*
X88615000Y-82000000D01*
X88615000Y-79275000D02*
X98385000Y-79275000D01*
X98385000Y-84725000D01*
X88615000Y-84725000D01*
X88615000Y-79275000D01*
%TO.C,D3*%
X71000000Y-74260000D02*
X71000000Y-75280000D01*
X72470000Y-76060000D02*
X69530000Y-76060000D01*
X72470000Y-76180000D02*
X69530000Y-76180000D01*
X72470000Y-76300000D02*
X69530000Y-76300000D01*
X71000000Y-81740000D02*
X71000000Y-80720000D01*
X69530000Y-75280000D02*
X72470000Y-75280000D01*
X72470000Y-80720000D01*
X69530000Y-80720000D01*
X69530000Y-75280000D01*
%TO.C,D2*%
X66500000Y-88840000D02*
X66500000Y-89860000D01*
X67970000Y-90640000D02*
X65030000Y-90640000D01*
X67970000Y-90760000D02*
X65030000Y-90760000D01*
X67970000Y-90880000D02*
X65030000Y-90880000D01*
X66500000Y-96320000D02*
X66500000Y-95300000D01*
X65030000Y-89860000D02*
X67970000Y-89860000D01*
X67970000Y-95300000D01*
X65030000Y-95300000D01*
X65030000Y-89860000D01*
%TO.C,D1*%
X66500000Y-74260000D02*
X66500000Y-75280000D01*
X67970000Y-76060000D02*
X65030000Y-76060000D01*
X67970000Y-76180000D02*
X65030000Y-76180000D01*
X67970000Y-76300000D02*
X65030000Y-76300000D01*
X66500000Y-81740000D02*
X66500000Y-80720000D01*
X65030000Y-75280000D02*
X67970000Y-75280000D01*
X67970000Y-80720000D01*
X65030000Y-80720000D01*
X65030000Y-75280000D01*
%TO.C,C4*%
X109229646Y-106375000D02*
X108229646Y-106375000D01*
X108729646Y-106875000D02*
X108729646Y-105875000D01*
X103750000Y-108580000D02*
X103750000Y-98420000D01*
X103710000Y-108580000D02*
X103710000Y-98420000D01*
X103670000Y-108579000D02*
X103670000Y-98421000D01*
X103630000Y-108579000D02*
X103630000Y-98421000D01*
X103590000Y-108577000D02*
X103590000Y-98423000D01*
X103550000Y-108576000D02*
X103550000Y-98424000D01*
X103510000Y-108574000D02*
X103510000Y-104540000D01*
X103510000Y-102460000D02*
X103510000Y-98426000D01*
X103470000Y-108572000D02*
X103470000Y-104540000D01*
X103470000Y-102460000D02*
X103470000Y-98428000D01*
X103430000Y-108570000D02*
X103430000Y-104540000D01*
X103430000Y-102460000D02*
X103430000Y-98430000D01*
X103390000Y-108567000D02*
X103390000Y-104540000D01*
X103390000Y-102460000D02*
X103390000Y-98433000D01*
X103350000Y-108564000D02*
X103350000Y-104540000D01*
X103350000Y-102460000D02*
X103350000Y-98436000D01*
X103310000Y-108561000D02*
X103310000Y-104540000D01*
X103310000Y-102460000D02*
X103310000Y-98439000D01*
X103270000Y-108557000D02*
X103270000Y-104540000D01*
X103270000Y-102460000D02*
X103270000Y-98443000D01*
X103230000Y-108554000D02*
X103230000Y-104540000D01*
X103230000Y-102460000D02*
X103230000Y-98446000D01*
X103190000Y-108549000D02*
X103190000Y-104540000D01*
X103190000Y-102460000D02*
X103190000Y-98451000D01*
X103150000Y-108545000D02*
X103150000Y-104540000D01*
X103150000Y-102460000D02*
X103150000Y-98455000D01*
X103110000Y-108540000D02*
X103110000Y-104540000D01*
X103110000Y-102460000D02*
X103110000Y-98460000D01*
X103070000Y-108535000D02*
X103070000Y-104540000D01*
X103070000Y-102460000D02*
X103070000Y-98465000D01*
X103030000Y-108529000D02*
X103030000Y-104540000D01*
X103030000Y-102460000D02*
X103030000Y-98471000D01*
X102990000Y-108523000D02*
X102990000Y-104540000D01*
X102990000Y-102460000D02*
X102990000Y-98477000D01*
X102950000Y-108517000D02*
X102950000Y-104540000D01*
X102950000Y-102460000D02*
X102950000Y-98483000D01*
X102910000Y-108511000D02*
X102910000Y-104540000D01*
X102910000Y-102460000D02*
X102910000Y-98489000D01*
X102870000Y-108504000D02*
X102870000Y-104540000D01*
X102870000Y-102460000D02*
X102870000Y-98496000D01*
X102830000Y-108497000D02*
X102830000Y-104540000D01*
X102830000Y-102460000D02*
X102830000Y-98503000D01*
X102790000Y-108489000D02*
X102790000Y-104540000D01*
X102790000Y-102460000D02*
X102790000Y-98511000D01*
X102750000Y-108481000D02*
X102750000Y-104540000D01*
X102750000Y-102460000D02*
X102750000Y-98519000D01*
X102710000Y-108473000D02*
X102710000Y-104540000D01*
X102710000Y-102460000D02*
X102710000Y-98527000D01*
X102670000Y-108465000D02*
X102670000Y-104540000D01*
X102670000Y-102460000D02*
X102670000Y-98535000D01*
X102630000Y-108456000D02*
X102630000Y-104540000D01*
X102630000Y-102460000D02*
X102630000Y-98544000D01*
X102590000Y-108447000D02*
X102590000Y-104540000D01*
X102590000Y-102460000D02*
X102590000Y-98553000D01*
X102550000Y-108437000D02*
X102550000Y-104540000D01*
X102550000Y-102460000D02*
X102550000Y-98563000D01*
X102510000Y-108428000D02*
X102510000Y-104540000D01*
X102510000Y-102460000D02*
X102510000Y-98572000D01*
X102470000Y-108417000D02*
X102470000Y-104540000D01*
X102470000Y-102460000D02*
X102470000Y-98583000D01*
X102430000Y-108407000D02*
X102430000Y-104540000D01*
X102430000Y-102460000D02*
X102430000Y-98593000D01*
X102390000Y-108396000D02*
X102390000Y-104540000D01*
X102390000Y-102460000D02*
X102390000Y-98604000D01*
X102350000Y-108385000D02*
X102350000Y-104540000D01*
X102350000Y-102460000D02*
X102350000Y-98615000D01*
X102310000Y-108373000D02*
X102310000Y-104540000D01*
X102310000Y-102460000D02*
X102310000Y-98627000D01*
X102270000Y-108361000D02*
X102270000Y-104540000D01*
X102270000Y-102460000D02*
X102270000Y-98639000D01*
X102230000Y-108349000D02*
X102230000Y-104540000D01*
X102230000Y-102460000D02*
X102230000Y-98651000D01*
X102190000Y-108337000D02*
X102190000Y-104540000D01*
X102190000Y-102460000D02*
X102190000Y-98663000D01*
X102150000Y-108324000D02*
X102150000Y-104540000D01*
X102150000Y-102460000D02*
X102150000Y-98676000D01*
X102110000Y-108310000D02*
X102110000Y-104540000D01*
X102110000Y-102460000D02*
X102110000Y-98690000D01*
X102070000Y-108297000D02*
X102070000Y-104540000D01*
X102070000Y-102460000D02*
X102070000Y-98703000D01*
X102030000Y-108282000D02*
X102030000Y-104540000D01*
X102030000Y-102460000D02*
X102030000Y-98718000D01*
X101990000Y-108268000D02*
X101990000Y-104540000D01*
X101990000Y-102460000D02*
X101990000Y-98732000D01*
X101950000Y-108253000D02*
X101950000Y-104540000D01*
X101950000Y-102460000D02*
X101950000Y-98747000D01*
X101910000Y-108238000D02*
X101910000Y-104540000D01*
X101910000Y-102460000D02*
X101910000Y-98762000D01*
X101870000Y-108222000D02*
X101870000Y-104540000D01*
X101870000Y-102460000D02*
X101870000Y-98778000D01*
X101830000Y-108206000D02*
X101830000Y-104540000D01*
X101830000Y-102460000D02*
X101830000Y-98794000D01*
X101790000Y-108190000D02*
X101790000Y-104540000D01*
X101790000Y-102460000D02*
X101790000Y-98810000D01*
X101750000Y-108173000D02*
X101750000Y-104540000D01*
X101750000Y-102460000D02*
X101750000Y-98827000D01*
X101710000Y-108156000D02*
X101710000Y-104540000D01*
X101710000Y-102460000D02*
X101710000Y-98844000D01*
X101670000Y-108138000D02*
X101670000Y-104540000D01*
X101670000Y-102460000D02*
X101670000Y-98862000D01*
X101630000Y-108120000D02*
X101630000Y-104540000D01*
X101630000Y-102460000D02*
X101630000Y-98880000D01*
X101590000Y-108102000D02*
X101590000Y-104540000D01*
X101590000Y-102460000D02*
X101590000Y-98898000D01*
X101550000Y-108083000D02*
X101550000Y-104540000D01*
X101550000Y-102460000D02*
X101550000Y-98917000D01*
X101510000Y-108064000D02*
X101510000Y-104540000D01*
X101510000Y-102460000D02*
X101510000Y-98936000D01*
X101470000Y-108044000D02*
X101470000Y-104540000D01*
X101470000Y-102460000D02*
X101470000Y-98956000D01*
X101430000Y-108024000D02*
X101430000Y-98976000D01*
X101390000Y-108004000D02*
X101390000Y-98996000D01*
X101350000Y-107983000D02*
X101350000Y-99017000D01*
X101310000Y-107961000D02*
X101310000Y-99039000D01*
X101270000Y-107939000D02*
X101270000Y-99061000D01*
X101230000Y-107917000D02*
X101230000Y-99083000D01*
X101190000Y-107894000D02*
X101190000Y-99106000D01*
X101150000Y-107871000D02*
X101150000Y-99129000D01*
X101110000Y-107847000D02*
X101110000Y-99153000D01*
X101070000Y-107823000D02*
X101070000Y-99177000D01*
X101030000Y-107798000D02*
X101030000Y-99202000D01*
X100990000Y-107772000D02*
X100990000Y-99228000D01*
X100950000Y-107747000D02*
X100950000Y-99253000D01*
X100910000Y-107720000D02*
X100910000Y-99280000D01*
X100870000Y-107693000D02*
X100870000Y-99307000D01*
X100830000Y-107666000D02*
X100830000Y-99334000D01*
X100790000Y-107638000D02*
X100790000Y-99362000D01*
X100750000Y-107609000D02*
X100750000Y-99391000D01*
X100710000Y-107580000D02*
X100710000Y-99420000D01*
X100670000Y-107550000D02*
X100670000Y-99450000D01*
X100630000Y-107520000D02*
X100630000Y-99480000D01*
X100590000Y-107488000D02*
X100590000Y-99512000D01*
X100550000Y-107457000D02*
X100550000Y-99543000D01*
X100510000Y-107424000D02*
X100510000Y-99576000D01*
X100470000Y-107391000D02*
X100470000Y-99609000D01*
X100430000Y-107358000D02*
X100430000Y-99642000D01*
X100390000Y-107323000D02*
X100390000Y-99677000D01*
X100350000Y-107288000D02*
X100350000Y-99712000D01*
X100310000Y-107252000D02*
X100310000Y-99748000D01*
X100270000Y-107216000D02*
X100270000Y-99784000D01*
X100230000Y-107178000D02*
X100230000Y-99822000D01*
X100190000Y-107140000D02*
X100190000Y-99860000D01*
X100150000Y-107101000D02*
X100150000Y-99899000D01*
X100110000Y-107061000D02*
X100110000Y-99939000D01*
X100070000Y-107020000D02*
X100070000Y-99980000D01*
X100030000Y-106978000D02*
X100030000Y-100022000D01*
X99990000Y-106935000D02*
X99990000Y-100065000D01*
X99950000Y-106891000D02*
X99950000Y-100109000D01*
X99910000Y-106847000D02*
X99910000Y-100153000D01*
X99870000Y-106801000D02*
X99870000Y-100199000D01*
X99830000Y-106754000D02*
X99830000Y-100246000D01*
X99790000Y-106705000D02*
X99790000Y-100295000D01*
X99750000Y-106656000D02*
X99750000Y-100344000D01*
X99710000Y-106605000D02*
X99710000Y-100395000D01*
X99670000Y-106553000D02*
X99670000Y-100447000D01*
X99630000Y-106500000D02*
X99630000Y-100500000D01*
X99590000Y-106445000D02*
X99590000Y-100555000D01*
X99550000Y-106388000D02*
X99550000Y-100612000D01*
X99510000Y-106330000D02*
X99510000Y-100670000D01*
X99470000Y-106270000D02*
X99470000Y-100730000D01*
X99430000Y-106208000D02*
X99430000Y-100792000D01*
X99390000Y-106144000D02*
X99390000Y-100856000D01*
X99350000Y-106078000D02*
X99350000Y-100922000D01*
X99310000Y-106010000D02*
X99310000Y-100990000D01*
X99270000Y-105939000D02*
X99270000Y-101061000D01*
X99230000Y-105865000D02*
X99230000Y-101135000D01*
X99190000Y-105788000D02*
X99190000Y-101212000D01*
X99150000Y-105708000D02*
X99150000Y-101292000D01*
X99110000Y-105624000D02*
X99110000Y-101376000D01*
X99070000Y-105537000D02*
X99070000Y-101463000D01*
X99030000Y-105444000D02*
X99030000Y-101556000D01*
X98990000Y-105346000D02*
X98990000Y-101654000D01*
X98950000Y-105242000D02*
X98950000Y-101758000D01*
X98910000Y-105130000D02*
X98910000Y-101870000D01*
X98870000Y-105009000D02*
X98870000Y-101991000D01*
X98830000Y-104877000D02*
X98830000Y-102123000D01*
X98790000Y-104730000D02*
X98790000Y-102270000D01*
X98750000Y-104562000D02*
X98750000Y-102438000D01*
X98710000Y-104362000D02*
X98710000Y-102638000D01*
X98670000Y-104099000D02*
X98670000Y-102901000D01*
X108870000Y-103500000D02*
G75*
G02*
X98630000Y-103500000I-5120000J0D01*
G01*
X98630000Y-103500000D02*
G75*
G02*
X108870000Y-103500000I5120000J0D01*
G01*
%TO.C,C3*%
X78870000Y-75030000D02*
X78870000Y-79970000D01*
X78540000Y-75030000D02*
X78870000Y-75030000D01*
X76130000Y-75030000D02*
X76460000Y-75030000D01*
X78870000Y-79970000D02*
X78540000Y-79970000D01*
X76460000Y-79970000D02*
X76130000Y-79970000D01*
X76130000Y-79970000D02*
X76130000Y-75030000D01*
%TO.C,C2*%
X76125000Y-97729646D02*
X76125000Y-96729646D01*
X75625000Y-97229646D02*
X76625000Y-97229646D01*
X73920000Y-92250000D02*
X84080000Y-92250000D01*
X73920000Y-92210000D02*
X84080000Y-92210000D01*
X73921000Y-92170000D02*
X84079000Y-92170000D01*
X73921000Y-92130000D02*
X84079000Y-92130000D01*
X73923000Y-92090000D02*
X84077000Y-92090000D01*
X73924000Y-92050000D02*
X84076000Y-92050000D01*
X73926000Y-92010000D02*
X77960000Y-92010000D01*
X80040000Y-92010000D02*
X84074000Y-92010000D01*
X73928000Y-91970000D02*
X77960000Y-91970000D01*
X80040000Y-91970000D02*
X84072000Y-91970000D01*
X73930000Y-91930000D02*
X77960000Y-91930000D01*
X80040000Y-91930000D02*
X84070000Y-91930000D01*
X73933000Y-91890000D02*
X77960000Y-91890000D01*
X80040000Y-91890000D02*
X84067000Y-91890000D01*
X73936000Y-91850000D02*
X77960000Y-91850000D01*
X80040000Y-91850000D02*
X84064000Y-91850000D01*
X73939000Y-91810000D02*
X77960000Y-91810000D01*
X80040000Y-91810000D02*
X84061000Y-91810000D01*
X73943000Y-91770000D02*
X77960000Y-91770000D01*
X80040000Y-91770000D02*
X84057000Y-91770000D01*
X73946000Y-91730000D02*
X77960000Y-91730000D01*
X80040000Y-91730000D02*
X84054000Y-91730000D01*
X73951000Y-91690000D02*
X77960000Y-91690000D01*
X80040000Y-91690000D02*
X84049000Y-91690000D01*
X73955000Y-91650000D02*
X77960000Y-91650000D01*
X80040000Y-91650000D02*
X84045000Y-91650000D01*
X73960000Y-91610000D02*
X77960000Y-91610000D01*
X80040000Y-91610000D02*
X84040000Y-91610000D01*
X73965000Y-91570000D02*
X77960000Y-91570000D01*
X80040000Y-91570000D02*
X84035000Y-91570000D01*
X73971000Y-91530000D02*
X77960000Y-91530000D01*
X80040000Y-91530000D02*
X84029000Y-91530000D01*
X73977000Y-91490000D02*
X77960000Y-91490000D01*
X80040000Y-91490000D02*
X84023000Y-91490000D01*
X73983000Y-91450000D02*
X77960000Y-91450000D01*
X80040000Y-91450000D02*
X84017000Y-91450000D01*
X73989000Y-91410000D02*
X77960000Y-91410000D01*
X80040000Y-91410000D02*
X84011000Y-91410000D01*
X73996000Y-91370000D02*
X77960000Y-91370000D01*
X80040000Y-91370000D02*
X84004000Y-91370000D01*
X74003000Y-91330000D02*
X77960000Y-91330000D01*
X80040000Y-91330000D02*
X83997000Y-91330000D01*
X74011000Y-91290000D02*
X77960000Y-91290000D01*
X80040000Y-91290000D02*
X83989000Y-91290000D01*
X74019000Y-91250000D02*
X77960000Y-91250000D01*
X80040000Y-91250000D02*
X83981000Y-91250000D01*
X74027000Y-91210000D02*
X77960000Y-91210000D01*
X80040000Y-91210000D02*
X83973000Y-91210000D01*
X74035000Y-91170000D02*
X77960000Y-91170000D01*
X80040000Y-91170000D02*
X83965000Y-91170000D01*
X74044000Y-91130000D02*
X77960000Y-91130000D01*
X80040000Y-91130000D02*
X83956000Y-91130000D01*
X74053000Y-91090000D02*
X77960000Y-91090000D01*
X80040000Y-91090000D02*
X83947000Y-91090000D01*
X74063000Y-91050000D02*
X77960000Y-91050000D01*
X80040000Y-91050000D02*
X83937000Y-91050000D01*
X74072000Y-91010000D02*
X77960000Y-91010000D01*
X80040000Y-91010000D02*
X83928000Y-91010000D01*
X74083000Y-90970000D02*
X77960000Y-90970000D01*
X80040000Y-90970000D02*
X83917000Y-90970000D01*
X74093000Y-90930000D02*
X77960000Y-90930000D01*
X80040000Y-90930000D02*
X83907000Y-90930000D01*
X74104000Y-90890000D02*
X77960000Y-90890000D01*
X80040000Y-90890000D02*
X83896000Y-90890000D01*
X74115000Y-90850000D02*
X77960000Y-90850000D01*
X80040000Y-90850000D02*
X83885000Y-90850000D01*
X74127000Y-90810000D02*
X77960000Y-90810000D01*
X80040000Y-90810000D02*
X83873000Y-90810000D01*
X74139000Y-90770000D02*
X77960000Y-90770000D01*
X80040000Y-90770000D02*
X83861000Y-90770000D01*
X74151000Y-90730000D02*
X77960000Y-90730000D01*
X80040000Y-90730000D02*
X83849000Y-90730000D01*
X74163000Y-90690000D02*
X77960000Y-90690000D01*
X80040000Y-90690000D02*
X83837000Y-90690000D01*
X74176000Y-90650000D02*
X77960000Y-90650000D01*
X80040000Y-90650000D02*
X83824000Y-90650000D01*
X74190000Y-90610000D02*
X77960000Y-90610000D01*
X80040000Y-90610000D02*
X83810000Y-90610000D01*
X74203000Y-90570000D02*
X77960000Y-90570000D01*
X80040000Y-90570000D02*
X83797000Y-90570000D01*
X74218000Y-90530000D02*
X77960000Y-90530000D01*
X80040000Y-90530000D02*
X83782000Y-90530000D01*
X74232000Y-90490000D02*
X77960000Y-90490000D01*
X80040000Y-90490000D02*
X83768000Y-90490000D01*
X74247000Y-90450000D02*
X77960000Y-90450000D01*
X80040000Y-90450000D02*
X83753000Y-90450000D01*
X74262000Y-90410000D02*
X77960000Y-90410000D01*
X80040000Y-90410000D02*
X83738000Y-90410000D01*
X74278000Y-90370000D02*
X77960000Y-90370000D01*
X80040000Y-90370000D02*
X83722000Y-90370000D01*
X74294000Y-90330000D02*
X77960000Y-90330000D01*
X80040000Y-90330000D02*
X83706000Y-90330000D01*
X74310000Y-90290000D02*
X77960000Y-90290000D01*
X80040000Y-90290000D02*
X83690000Y-90290000D01*
X74327000Y-90250000D02*
X77960000Y-90250000D01*
X80040000Y-90250000D02*
X83673000Y-90250000D01*
X74344000Y-90210000D02*
X77960000Y-90210000D01*
X80040000Y-90210000D02*
X83656000Y-90210000D01*
X74362000Y-90170000D02*
X77960000Y-90170000D01*
X80040000Y-90170000D02*
X83638000Y-90170000D01*
X74380000Y-90130000D02*
X77960000Y-90130000D01*
X80040000Y-90130000D02*
X83620000Y-90130000D01*
X74398000Y-90090000D02*
X77960000Y-90090000D01*
X80040000Y-90090000D02*
X83602000Y-90090000D01*
X74417000Y-90050000D02*
X77960000Y-90050000D01*
X80040000Y-90050000D02*
X83583000Y-90050000D01*
X74436000Y-90010000D02*
X77960000Y-90010000D01*
X80040000Y-90010000D02*
X83564000Y-90010000D01*
X74456000Y-89970000D02*
X77960000Y-89970000D01*
X80040000Y-89970000D02*
X83544000Y-89970000D01*
X74476000Y-89930000D02*
X83524000Y-89930000D01*
X74496000Y-89890000D02*
X83504000Y-89890000D01*
X74517000Y-89850000D02*
X83483000Y-89850000D01*
X74539000Y-89810000D02*
X83461000Y-89810000D01*
X74561000Y-89770000D02*
X83439000Y-89770000D01*
X74583000Y-89730000D02*
X83417000Y-89730000D01*
X74606000Y-89690000D02*
X83394000Y-89690000D01*
X74629000Y-89650000D02*
X83371000Y-89650000D01*
X74653000Y-89610000D02*
X83347000Y-89610000D01*
X74677000Y-89570000D02*
X83323000Y-89570000D01*
X74702000Y-89530000D02*
X83298000Y-89530000D01*
X74728000Y-89490000D02*
X83272000Y-89490000D01*
X74753000Y-89450000D02*
X83247000Y-89450000D01*
X74780000Y-89410000D02*
X83220000Y-89410000D01*
X74807000Y-89370000D02*
X83193000Y-89370000D01*
X74834000Y-89330000D02*
X83166000Y-89330000D01*
X74862000Y-89290000D02*
X83138000Y-89290000D01*
X74891000Y-89250000D02*
X83109000Y-89250000D01*
X74920000Y-89210000D02*
X83080000Y-89210000D01*
X74950000Y-89170000D02*
X83050000Y-89170000D01*
X74980000Y-89130000D02*
X83020000Y-89130000D01*
X75012000Y-89090000D02*
X82988000Y-89090000D01*
X75043000Y-89050000D02*
X82957000Y-89050000D01*
X75076000Y-89010000D02*
X82924000Y-89010000D01*
X75109000Y-88970000D02*
X82891000Y-88970000D01*
X75142000Y-88930000D02*
X82858000Y-88930000D01*
X75177000Y-88890000D02*
X82823000Y-88890000D01*
X75212000Y-88850000D02*
X82788000Y-88850000D01*
X75248000Y-88810000D02*
X82752000Y-88810000D01*
X75284000Y-88770000D02*
X82716000Y-88770000D01*
X75322000Y-88730000D02*
X82678000Y-88730000D01*
X75360000Y-88690000D02*
X82640000Y-88690000D01*
X75399000Y-88650000D02*
X82601000Y-88650000D01*
X75439000Y-88610000D02*
X82561000Y-88610000D01*
X75480000Y-88570000D02*
X82520000Y-88570000D01*
X75522000Y-88530000D02*
X82478000Y-88530000D01*
X75565000Y-88490000D02*
X82435000Y-88490000D01*
X75609000Y-88450000D02*
X82391000Y-88450000D01*
X75653000Y-88410000D02*
X82347000Y-88410000D01*
X75699000Y-88370000D02*
X82301000Y-88370000D01*
X75746000Y-88330000D02*
X82254000Y-88330000D01*
X75795000Y-88290000D02*
X82205000Y-88290000D01*
X75844000Y-88250000D02*
X82156000Y-88250000D01*
X75895000Y-88210000D02*
X82105000Y-88210000D01*
X75947000Y-88170000D02*
X82053000Y-88170000D01*
X76000000Y-88130000D02*
X82000000Y-88130000D01*
X76055000Y-88090000D02*
X81945000Y-88090000D01*
X76112000Y-88050000D02*
X81888000Y-88050000D01*
X76170000Y-88010000D02*
X81830000Y-88010000D01*
X76230000Y-87970000D02*
X81770000Y-87970000D01*
X76292000Y-87930000D02*
X81708000Y-87930000D01*
X76356000Y-87890000D02*
X81644000Y-87890000D01*
X76422000Y-87850000D02*
X81578000Y-87850000D01*
X76490000Y-87810000D02*
X81510000Y-87810000D01*
X76561000Y-87770000D02*
X81439000Y-87770000D01*
X76635000Y-87730000D02*
X81365000Y-87730000D01*
X76712000Y-87690000D02*
X81288000Y-87690000D01*
X76792000Y-87650000D02*
X81208000Y-87650000D01*
X76876000Y-87610000D02*
X81124000Y-87610000D01*
X76963000Y-87570000D02*
X81037000Y-87570000D01*
X77056000Y-87530000D02*
X80944000Y-87530000D01*
X77154000Y-87490000D02*
X80846000Y-87490000D01*
X77258000Y-87450000D02*
X80742000Y-87450000D01*
X77370000Y-87410000D02*
X80630000Y-87410000D01*
X77491000Y-87370000D02*
X80509000Y-87370000D01*
X77623000Y-87330000D02*
X80377000Y-87330000D01*
X77770000Y-87290000D02*
X80230000Y-87290000D01*
X77938000Y-87250000D02*
X80062000Y-87250000D01*
X78138000Y-87210000D02*
X79862000Y-87210000D01*
X78401000Y-87170000D02*
X79599000Y-87170000D01*
X84120000Y-92250000D02*
G75*
G02*
X73880000Y-92250000I-5120000J0D01*
G01*
X73880000Y-92250000D02*
G75*
G02*
X84120000Y-92250000I5120000J0D01*
G01*
%TO.C,C1*%
X69380000Y-99880000D02*
X87620000Y-99880000D01*
X69380000Y-105120000D02*
X69380000Y-99880000D01*
X87620000Y-99880000D02*
X87620000Y-105120000D01*
X87620000Y-105120000D02*
X69380000Y-105120000D01*
%TD*%
M02*
