%TF.GenerationSoftware,KiCad,Pcbnew,10.0.4*%
%TF.CreationDate,2026-06-27T01:24:14+06:00*%
%TF.ProjectId,ACtoDC,4143746f-4443-42e6-9b69-6361645f7063,rev?*%
%TF.SameCoordinates,Original*%
%TF.FileFunction,Copper,L2,Bot*%
%TF.FilePolarity,Positive*%
%FSLAX46Y46*%
G04 Gerber Fmt 4.6, Leading zero omitted, Abs format (unit mm)*
G04 Created by KiCad (PCBNEW 10.0.4) date 2026-06-27 01:24:14*
%MOMM*%
%LPD*%
G01*
G04 APERTURE LIST*
G04 Aperture macros list*
%AMRoundRect*
0 Rectangle with rounded corners*
0 $1 Rounding radius*
0 $2 $3 $4 $5 $6 $7 $8 $9 X,Y pos of 4 corners*
0 Add a 4 corners polygon primitive as box body*
4,1,4,$2,$3,$4,$5,$6,$7,$8,$9,$2,$3,0*
0 Add four circle primitives for the rounded corners*
1,1,$1+$1,$2,$3*
1,1,$1+$1,$4,$5*
1,1,$1+$1,$6,$7*
1,1,$1+$1,$8,$9*
0 Add four rect primitives between the rounded corners*
20,1,$1+$1,$2,$3,$4,$5,0*
20,1,$1+$1,$4,$5,$6,$7,0*
20,1,$1+$1,$6,$7,$8,$9,0*
20,1,$1+$1,$8,$9,$2,$3,0*%
G04 Aperture macros list end*
%TA.AperFunction,ComponentPad*%
%ADD10C,2.800000*%
%TD*%
%TA.AperFunction,ComponentPad*%
%ADD11RoundRect,0.250001X1.149999X-1.149999X1.149999X1.149999X-1.149999X1.149999X-1.149999X-1.149999X0*%
%TD*%
%TA.AperFunction,ComponentPad*%
%ADD12C,1.400000*%
%TD*%
%TA.AperFunction,ComponentPad*%
%ADD13C,1.600000*%
%TD*%
%TA.AperFunction,ComponentPad*%
%ADD14RoundRect,0.250000X-0.550000X-0.550000X0.550000X-0.550000X0.550000X0.550000X-0.550000X0.550000X0*%
%TD*%
%TA.AperFunction,ComponentPad*%
%ADD15C,2.200000*%
%TD*%
%TA.AperFunction,ComponentPad*%
%ADD16RoundRect,0.249999X-0.850001X0.850001X-0.850001X-0.850001X0.850001X-0.850001X0.850001X0.850001X0*%
%TD*%
%TA.AperFunction,ComponentPad*%
%ADD17C,1.800000*%
%TD*%
%TA.AperFunction,ComponentPad*%
%ADD18R,1.800000X1.800000*%
%TD*%
%TA.AperFunction,Conductor*%
%ADD19C,1.000000*%
%TD*%
%TA.AperFunction,Conductor*%
%ADD20C,0.500000*%
%TD*%
G04 APERTURE END LIST*
D10*
%TO.P,J1,2,Pin_2_2*%
%TO.N,Net-(D3-A)*%
X94467500Y-105750000D03*
D11*
%TO.P,J1,1,Pin_1_1*%
%TO.N,Net-(D1-A)*%
X94467500Y-110750000D03*
%TD*%
D12*
%TO.P,R1,2*%
%TO.N,Net-(D5-A)*%
X129310000Y-99000000D03*
%TO.P,R1,1*%
%TO.N,/+ve*%
X121690000Y-99000000D03*
%TD*%
%TO.P,R2,2*%
%TO.N,GND*%
X129310000Y-102000000D03*
%TO.P,R2,1*%
%TO.N,/+ve*%
X121690000Y-102000000D03*
%TD*%
D13*
%TO.P,C1,2*%
%TO.N,GND*%
X127812198Y-112455000D03*
D14*
%TO.P,C1,1*%
%TO.N,/+ve*%
X124012198Y-112455000D03*
%TD*%
D15*
%TO.P,D4,2,A_2*%
%TO.N,GND*%
X115000000Y-121660000D03*
D16*
%TO.P,D4,1,K_1*%
%TO.N,Net-(D3-A)*%
X115000000Y-111500000D03*
%TD*%
%TO.P,D2,1,K_1*%
%TO.N,Net-(D1-A)*%
X108000000Y-111420000D03*
D15*
%TO.P,D2,2,A_2*%
%TO.N,GND*%
X108000000Y-121580000D03*
%TD*%
D16*
%TO.P,D1,1,K_1*%
%TO.N,/+ve*%
X108000000Y-96000000D03*
D15*
%TO.P,D1,2,A_2*%
%TO.N,Net-(D1-A)*%
X108000000Y-106160000D03*
%TD*%
%TO.P,D3,2,A_2*%
%TO.N,Net-(D3-A)*%
X115000000Y-106080000D03*
D16*
%TO.P,D3,1,K_1*%
%TO.N,/+ve*%
X115000000Y-95920000D03*
%TD*%
D11*
%TO.P,J2,1,Pin_1_1*%
%TO.N,/+ve*%
X149000000Y-110500000D03*
D10*
%TO.P,J2,2,Pin_2_2*%
%TO.N,GND*%
X149000000Y-105500000D03*
%TD*%
D17*
%TO.P,D5,2,A_2*%
%TO.N,Net-(D5-A)*%
X136517500Y-105115000D03*
D18*
%TO.P,D5,1,K_1*%
%TO.N,GND*%
X133977500Y-105115000D03*
%TD*%
%TO.N,Net-(D3-A)*%
D19*
X110920000Y-102000000D02*
X115000000Y-106080000D01*
X98000000Y-102000000D02*
X110920000Y-102000000D01*
X98000000Y-102217500D02*
X98000000Y-102000000D01*
X94467500Y-105750000D02*
X98000000Y-102217500D01*
%TO.N,Net-(D5-A)*%
D20*
X130402500Y-99000000D02*
X136517500Y-105115000D01*
X129310000Y-99000000D02*
X130402500Y-99000000D01*
%TO.N,/+ve*%
D19*
X134500000Y-117500000D02*
X127000000Y-117500000D01*
X149000000Y-110500000D02*
X141500000Y-110500000D01*
X141500000Y-110500000D02*
X134500000Y-117500000D01*
X127000000Y-117500000D02*
X124012198Y-114512198D01*
X124012198Y-114512198D02*
X124012198Y-112455000D01*
X121690000Y-110132802D02*
X124012198Y-112455000D01*
X121690000Y-102000000D02*
X121690000Y-110132802D01*
X121690000Y-99000000D02*
X121690000Y-102000000D01*
X118610000Y-95920000D02*
X121690000Y-99000000D01*
X115000000Y-95920000D02*
X118610000Y-95920000D01*
X108000000Y-96000000D02*
X114920000Y-96000000D01*
X114920000Y-96000000D02*
X115000000Y-95920000D01*
%TO.N,Net-(D3-A)*%
X115000000Y-111500000D02*
X115000000Y-106080000D01*
%TO.N,Net-(D1-A)*%
X108000000Y-111420000D02*
X108000000Y-106160000D01*
X107330000Y-110750000D02*
X108000000Y-111420000D01*
X94467500Y-110750000D02*
X107330000Y-110750000D01*
%TD*%
%TA.AperFunction,Conductor*%
%TO.N,GND*%
G36*
X89904221Y-89520185D02*
G01*
X89949976Y-89572989D01*
X89959920Y-89642147D01*
X89930895Y-89705703D01*
X89899182Y-89731887D01*
X89841029Y-89765461D01*
X89841013Y-89765472D01*
X89624536Y-89931580D01*
X89624529Y-89931586D01*
X89431586Y-90124529D01*
X89431580Y-90124536D01*
X89265472Y-90341013D01*
X89265461Y-90341029D01*
X89129031Y-90577331D01*
X89129026Y-90577342D01*
X89024606Y-90829433D01*
X89024603Y-90829443D01*
X88953979Y-91093018D01*
X88953976Y-91093031D01*
X88918362Y-91363551D01*
X88918361Y-91363568D01*
X88918361Y-91636431D01*
X88918362Y-91636448D01*
X88953976Y-91906968D01*
X88953977Y-91906973D01*
X88953978Y-91906979D01*
X88953979Y-91906981D01*
X89024603Y-92170556D01*
X89024606Y-92170566D01*
X89129026Y-92422657D01*
X89129031Y-92422668D01*
X89265461Y-92658970D01*
X89265472Y-92658986D01*
X89431580Y-92875463D01*
X89431586Y-92875470D01*
X89624529Y-93068413D01*
X89624535Y-93068418D01*
X89841022Y-93234534D01*
X89841029Y-93234538D01*
X90077331Y-93370968D01*
X90077336Y-93370970D01*
X90077339Y-93370972D01*
X90329443Y-93475397D01*
X90593021Y-93546022D01*
X90863562Y-93581639D01*
X90863569Y-93581639D01*
X91136431Y-93581639D01*
X91136438Y-93581639D01*
X91406979Y-93546022D01*
X91670557Y-93475397D01*
X91922661Y-93370972D01*
X92158978Y-93234534D01*
X92375465Y-93068418D01*
X92568418Y-92875465D01*
X92734534Y-92658978D01*
X92870972Y-92422661D01*
X92975397Y-92170557D01*
X93046022Y-91906979D01*
X93081639Y-91636438D01*
X93081639Y-91363562D01*
X93046022Y-91093021D01*
X92975397Y-90829443D01*
X92870972Y-90577339D01*
X92870970Y-90577336D01*
X92870968Y-90577331D01*
X92734538Y-90341029D01*
X92734534Y-90341022D01*
X92568418Y-90124535D01*
X92568413Y-90124529D01*
X92375470Y-89931586D01*
X92375463Y-89931580D01*
X92158986Y-89765472D01*
X92158984Y-89765470D01*
X92158978Y-89765466D01*
X92158973Y-89765463D01*
X92158970Y-89765461D01*
X92100818Y-89731887D01*
X92052602Y-89681320D01*
X92039380Y-89612713D01*
X92065348Y-89547848D01*
X92122262Y-89507320D01*
X92162818Y-89500500D01*
X152337182Y-89500500D01*
X152404221Y-89520185D01*
X152449976Y-89572989D01*
X152459920Y-89642147D01*
X152430895Y-89705703D01*
X152399182Y-89731887D01*
X152341029Y-89765461D01*
X152341013Y-89765472D01*
X152124536Y-89931580D01*
X152124529Y-89931586D01*
X151931586Y-90124529D01*
X151931580Y-90124536D01*
X151765472Y-90341013D01*
X151765461Y-90341029D01*
X151629031Y-90577331D01*
X151629026Y-90577342D01*
X151524606Y-90829433D01*
X151524603Y-90829443D01*
X151453979Y-91093018D01*
X151453976Y-91093031D01*
X151418362Y-91363551D01*
X151418361Y-91363568D01*
X151418361Y-91636431D01*
X151418362Y-91636448D01*
X151453976Y-91906968D01*
X151453977Y-91906973D01*
X151453978Y-91906979D01*
X151453979Y-91906981D01*
X151524603Y-92170556D01*
X151524606Y-92170566D01*
X151629026Y-92422657D01*
X151629031Y-92422668D01*
X151765461Y-92658970D01*
X151765472Y-92658986D01*
X151931580Y-92875463D01*
X151931586Y-92875470D01*
X152124529Y-93068413D01*
X152124535Y-93068418D01*
X152341022Y-93234534D01*
X152341029Y-93234538D01*
X152577331Y-93370968D01*
X152577336Y-93370970D01*
X152577339Y-93370972D01*
X152829443Y-93475397D01*
X153093021Y-93546022D01*
X153363562Y-93581639D01*
X153363569Y-93581639D01*
X153636431Y-93581639D01*
X153636438Y-93581639D01*
X153906979Y-93546022D01*
X154170557Y-93475397D01*
X154422661Y-93370972D01*
X154658978Y-93234534D01*
X154875465Y-93068418D01*
X155068418Y-92875465D01*
X155234534Y-92658978D01*
X155268113Y-92600816D01*
X155318680Y-92552602D01*
X155387287Y-92539378D01*
X155452151Y-92565346D01*
X155492680Y-92622260D01*
X155499500Y-92662817D01*
X155499500Y-126875500D01*
X155479815Y-126942539D01*
X155427011Y-126988294D01*
X155375500Y-126999500D01*
X88624500Y-126999500D01*
X88557461Y-126979815D01*
X88511706Y-126927011D01*
X88500500Y-126875500D01*
X88500500Y-124282429D01*
X88918361Y-124282429D01*
X88918361Y-124555292D01*
X88918362Y-124555309D01*
X88953976Y-124825829D01*
X88953977Y-124825834D01*
X88953978Y-124825840D01*
X88953979Y-124825842D01*
X89024603Y-125089417D01*
X89024606Y-125089427D01*
X89129026Y-125341518D01*
X89129031Y-125341529D01*
X89265461Y-125577831D01*
X89265472Y-125577847D01*
X89431580Y-125794324D01*
X89431586Y-125794331D01*
X89624529Y-125987274D01*
X89624535Y-125987279D01*
X89841022Y-126153395D01*
X89841029Y-126153399D01*
X90077331Y-126289829D01*
X90077336Y-126289831D01*
X90077339Y-126289833D01*
X90329443Y-126394258D01*
X90593021Y-126464883D01*
X90863562Y-126500500D01*
X90863569Y-126500500D01*
X91136431Y-126500500D01*
X91136438Y-126500500D01*
X91406979Y-126464883D01*
X91670557Y-126394258D01*
X91922661Y-126289833D01*
X92158978Y-126153395D01*
X92375465Y-125987279D01*
X92568418Y-125794326D01*
X92734534Y-125577839D01*
X92870972Y-125341522D01*
X92975397Y-125089418D01*
X93046022Y-124825840D01*
X93081639Y-124555299D01*
X93081639Y-124363568D01*
X150837222Y-124363568D01*
X150837222Y-124636431D01*
X150837223Y-124636448D01*
X150872837Y-124906968D01*
X150872838Y-124906973D01*
X150872839Y-124906979D01*
X150930100Y-125120680D01*
X150943464Y-125170556D01*
X150943467Y-125170566D01*
X151047887Y-125422657D01*
X151047892Y-125422668D01*
X151184322Y-125658970D01*
X151184333Y-125658986D01*
X151350441Y-125875463D01*
X151350447Y-125875470D01*
X151543390Y-126068413D01*
X151543396Y-126068418D01*
X151759883Y-126234534D01*
X151759890Y-126234538D01*
X151996192Y-126370968D01*
X151996197Y-126370970D01*
X151996200Y-126370972D01*
X152248304Y-126475397D01*
X152511882Y-126546022D01*
X152782423Y-126581639D01*
X152782430Y-126581639D01*
X153055292Y-126581639D01*
X153055299Y-126581639D01*
X153325840Y-126546022D01*
X153589418Y-126475397D01*
X153841522Y-126370972D01*
X154077839Y-126234534D01*
X154294326Y-126068418D01*
X154487279Y-125875465D01*
X154653395Y-125658978D01*
X154789833Y-125422661D01*
X154894258Y-125170557D01*
X154964883Y-124906979D01*
X155000500Y-124636438D01*
X155000500Y-124363562D01*
X154964883Y-124093021D01*
X154894258Y-123829443D01*
X154789833Y-123577339D01*
X154789831Y-123577336D01*
X154789829Y-123577331D01*
X154653399Y-123341029D01*
X154653395Y-123341022D01*
X154487279Y-123124535D01*
X154487274Y-123124529D01*
X154294331Y-122931586D01*
X154294324Y-122931580D01*
X154077847Y-122765472D01*
X154077845Y-122765470D01*
X154077839Y-122765466D01*
X154077834Y-122765463D01*
X154077831Y-122765461D01*
X153841529Y-122629031D01*
X153841518Y-122629026D01*
X153589427Y-122524606D01*
X153589420Y-122524604D01*
X153589418Y-122524603D01*
X153325840Y-122453978D01*
X153325834Y-122453977D01*
X153325829Y-122453976D01*
X153055309Y-122418362D01*
X153055304Y-122418361D01*
X153055299Y-122418361D01*
X152782423Y-122418361D01*
X152782417Y-122418361D01*
X152782412Y-122418362D01*
X152511892Y-122453976D01*
X152511885Y-122453977D01*
X152511882Y-122453978D01*
X152262878Y-122520698D01*
X152248304Y-122524603D01*
X152248294Y-122524606D01*
X151996203Y-122629026D01*
X151996192Y-122629031D01*
X151759890Y-122765461D01*
X151759874Y-122765472D01*
X151543397Y-122931580D01*
X151543390Y-122931586D01*
X151350447Y-123124529D01*
X151350441Y-123124536D01*
X151184333Y-123341013D01*
X151184322Y-123341029D01*
X151047892Y-123577331D01*
X151047887Y-123577342D01*
X150943467Y-123829433D01*
X150943464Y-123829443D01*
X150872840Y-124093018D01*
X150872837Y-124093031D01*
X150837223Y-124363551D01*
X150837222Y-124363568D01*
X93081639Y-124363568D01*
X93081639Y-124282423D01*
X93046022Y-124011882D01*
X92975397Y-123748304D01*
X92870972Y-123496200D01*
X92870970Y-123496197D01*
X92870968Y-123496192D01*
X92734538Y-123259890D01*
X92734534Y-123259883D01*
X92630678Y-123124535D01*
X92568419Y-123043397D01*
X92568413Y-123043390D01*
X92375470Y-122850447D01*
X92375463Y-122850441D01*
X92158986Y-122684333D01*
X92158984Y-122684331D01*
X92158978Y-122684327D01*
X92158973Y-122684324D01*
X92158970Y-122684322D01*
X91922668Y-122547892D01*
X91922657Y-122547887D01*
X91670566Y-122443467D01*
X91670559Y-122443465D01*
X91670557Y-122443464D01*
X91406979Y-122372839D01*
X91406973Y-122372838D01*
X91406968Y-122372837D01*
X91136448Y-122337223D01*
X91136443Y-122337222D01*
X91136438Y-122337222D01*
X90863562Y-122337222D01*
X90863556Y-122337222D01*
X90863551Y-122337223D01*
X90593031Y-122372837D01*
X90593024Y-122372838D01*
X90593021Y-122372839D01*
X90422301Y-122418583D01*
X90329443Y-122443464D01*
X90329433Y-122443467D01*
X90077342Y-122547887D01*
X90077331Y-122547892D01*
X89841029Y-122684322D01*
X89841013Y-122684333D01*
X89624536Y-122850441D01*
X89624529Y-122850447D01*
X89431586Y-123043390D01*
X89431580Y-123043397D01*
X89265472Y-123259874D01*
X89265461Y-123259890D01*
X89129031Y-123496192D01*
X89129026Y-123496203D01*
X89024606Y-123748294D01*
X89024603Y-123748304D01*
X88953979Y-124011879D01*
X88953976Y-124011892D01*
X88918362Y-124282412D01*
X88918361Y-124282429D01*
X88500500Y-124282429D01*
X88500500Y-121454071D01*
X106400000Y-121454071D01*
X106400000Y-121705928D01*
X106439397Y-121954669D01*
X106517219Y-122194184D01*
X106631557Y-122418583D01*
X106705748Y-122520697D01*
X106705748Y-122520698D01*
X107476212Y-121750234D01*
X107487482Y-121792292D01*
X107559890Y-121917708D01*
X107662292Y-122020110D01*
X107787708Y-122092518D01*
X107829765Y-122103787D01*
X107059300Y-122874250D01*
X107161416Y-122948442D01*
X107385815Y-123062780D01*
X107625330Y-123140602D01*
X107874072Y-123180000D01*
X108125928Y-123180000D01*
X108374669Y-123140602D01*
X108614184Y-123062780D01*
X108838575Y-122948446D01*
X108838581Y-122948442D01*
X108940697Y-122874250D01*
X108940698Y-122874250D01*
X108170234Y-122103787D01*
X108212292Y-122092518D01*
X108337708Y-122020110D01*
X108440110Y-121917708D01*
X108512518Y-121792292D01*
X108523787Y-121750235D01*
X109294250Y-122520698D01*
X109294250Y-122520697D01*
X109368442Y-122418581D01*
X109368446Y-122418575D01*
X109482780Y-122194184D01*
X109560602Y-121954669D01*
X109600000Y-121705928D01*
X109600000Y-121534071D01*
X113400000Y-121534071D01*
X113400000Y-121785928D01*
X113439397Y-122034669D01*
X113517219Y-122274184D01*
X113631557Y-122498583D01*
X113705748Y-122600697D01*
X113705748Y-122600698D01*
X114476212Y-121830234D01*
X114487482Y-121872292D01*
X114559890Y-121997708D01*
X114662292Y-122100110D01*
X114787708Y-122172518D01*
X114829765Y-122183787D01*
X114059300Y-122954250D01*
X114161416Y-123028442D01*
X114385815Y-123142780D01*
X114625330Y-123220602D01*
X114874072Y-123260000D01*
X115125928Y-123260000D01*
X115374669Y-123220602D01*
X115614184Y-123142780D01*
X115838575Y-123028446D01*
X115838581Y-123028442D01*
X115940697Y-122954250D01*
X115940698Y-122954250D01*
X115170234Y-122183787D01*
X115212292Y-122172518D01*
X115337708Y-122100110D01*
X115440110Y-121997708D01*
X115512518Y-121872292D01*
X115523787Y-121830235D01*
X116294250Y-122600698D01*
X116294250Y-122600697D01*
X116368442Y-122498581D01*
X116368446Y-122498575D01*
X116482780Y-122274184D01*
X116560602Y-122034669D01*
X116600000Y-121785928D01*
X116600000Y-121534071D01*
X116560602Y-121285330D01*
X116482780Y-121045815D01*
X116368442Y-120821416D01*
X116294250Y-120719301D01*
X116294250Y-120719300D01*
X115523787Y-121489764D01*
X115512518Y-121447708D01*
X115440110Y-121322292D01*
X115337708Y-121219890D01*
X115212292Y-121147482D01*
X115170232Y-121136212D01*
X115940698Y-120365748D01*
X115838583Y-120291557D01*
X115614184Y-120177219D01*
X115374669Y-120099397D01*
X115125928Y-120060000D01*
X114874072Y-120060000D01*
X114625330Y-120099397D01*
X114385815Y-120177219D01*
X114161413Y-120291559D01*
X114059301Y-120365747D01*
X114059300Y-120365748D01*
X114829765Y-121136212D01*
X114787708Y-121147482D01*
X114662292Y-121219890D01*
X114559890Y-121322292D01*
X114487482Y-121447708D01*
X114476212Y-121489765D01*
X113705748Y-120719300D01*
X113705747Y-120719301D01*
X113631559Y-120821413D01*
X113517219Y-121045815D01*
X113439397Y-121285330D01*
X113400000Y-121534071D01*
X109600000Y-121534071D01*
X109600000Y-121454071D01*
X109560602Y-121205330D01*
X109482780Y-120965815D01*
X109368442Y-120741416D01*
X109294250Y-120639301D01*
X109294250Y-120639300D01*
X108523787Y-121409764D01*
X108512518Y-121367708D01*
X108440110Y-121242292D01*
X108337708Y-121139890D01*
X108212292Y-121067482D01*
X108170233Y-121056212D01*
X108901120Y-120325327D01*
X108940698Y-120285748D01*
X108838583Y-120211557D01*
X108614184Y-120097219D01*
X108374669Y-120019397D01*
X108125928Y-119980000D01*
X107874072Y-119980000D01*
X107625330Y-120019397D01*
X107385815Y-120097219D01*
X107161413Y-120211559D01*
X107059301Y-120285747D01*
X107059300Y-120285748D01*
X107829765Y-121056212D01*
X107787708Y-121067482D01*
X107662292Y-121139890D01*
X107559890Y-121242292D01*
X107487482Y-121367708D01*
X107476212Y-121409765D01*
X106705748Y-120639300D01*
X106705747Y-120639301D01*
X106631559Y-120741413D01*
X106517219Y-120965815D01*
X106439397Y-121205330D01*
X106400000Y-121454071D01*
X88500500Y-121454071D01*
X88500500Y-109549984D01*
X92567000Y-109549984D01*
X92567000Y-111950015D01*
X92577500Y-112052795D01*
X92577501Y-112052796D01*
X92632686Y-112219335D01*
X92632687Y-112219337D01*
X92724786Y-112368651D01*
X92724789Y-112368655D01*
X92848844Y-112492710D01*
X92848848Y-112492713D01*
X92998162Y-112584812D01*
X92998164Y-112584813D01*
X92998166Y-112584814D01*
X93164703Y-112639999D01*
X93267492Y-112650500D01*
X93267497Y-112650500D01*
X95667503Y-112650500D01*
X95667508Y-112650500D01*
X95770297Y-112639999D01*
X95936834Y-112584814D01*
X96086155Y-112492711D01*
X96210211Y-112368655D01*
X96302314Y-112219334D01*
X96357499Y-112052797D01*
X96368000Y-111950008D01*
X96368000Y-111874500D01*
X96387685Y-111807461D01*
X96440489Y-111761706D01*
X96492000Y-111750500D01*
X106275500Y-111750500D01*
X106342539Y-111770185D01*
X106388294Y-111822989D01*
X106399500Y-111874500D01*
X106399500Y-112320017D01*
X106410000Y-112422796D01*
X106436510Y-112502796D01*
X106465186Y-112589335D01*
X106557288Y-112738656D01*
X106681344Y-112862712D01*
X106830665Y-112954814D01*
X106997202Y-113009999D01*
X107099990Y-113020500D01*
X107099995Y-113020500D01*
X108900005Y-113020500D01*
X108900010Y-113020500D01*
X109002798Y-113009999D01*
X109169335Y-112954814D01*
X109318656Y-112862712D01*
X109442712Y-112738656D01*
X109534814Y-112589335D01*
X109589999Y-112422798D01*
X109600500Y-112320010D01*
X109600500Y-110519990D01*
X109589999Y-110417202D01*
X109534814Y-110250665D01*
X109442712Y-110101344D01*
X109318656Y-109977288D01*
X109225890Y-109920070D01*
X109169337Y-109885187D01*
X109169336Y-109885186D01*
X109169335Y-109885186D01*
X109085495Y-109857404D01*
X109028050Y-109817631D01*
X109001228Y-109753114D01*
X109000500Y-109739698D01*
X109000500Y-107473962D01*
X109020185Y-107406923D01*
X109039623Y-107384650D01*
X109039211Y-107384238D01*
X109122656Y-107300793D01*
X109220793Y-107202656D01*
X109368870Y-106998845D01*
X109483241Y-106774379D01*
X109561090Y-106534785D01*
X109600500Y-106285962D01*
X109600500Y-106034038D01*
X109561090Y-105785215D01*
X109483241Y-105545621D01*
X109483239Y-105545618D01*
X109483239Y-105545616D01*
X109441747Y-105464184D01*
X109368870Y-105321155D01*
X109345286Y-105288694D01*
X109220798Y-105117350D01*
X109220794Y-105117345D01*
X109042654Y-104939205D01*
X109042649Y-104939201D01*
X108838848Y-104791132D01*
X108838847Y-104791131D01*
X108838845Y-104791130D01*
X108767759Y-104754910D01*
X108614383Y-104676760D01*
X108374785Y-104598910D01*
X108125962Y-104559500D01*
X107874038Y-104559500D01*
X107761067Y-104577393D01*
X107625214Y-104598910D01*
X107385616Y-104676760D01*
X107161151Y-104791132D01*
X106957350Y-104939201D01*
X106957345Y-104939205D01*
X106779205Y-105117345D01*
X106779201Y-105117350D01*
X106631132Y-105321151D01*
X106516760Y-105545616D01*
X106438910Y-105785214D01*
X106399500Y-106034038D01*
X106399500Y-106285961D01*
X106438910Y-106534785D01*
X106516760Y-106774383D01*
X106631132Y-106998848D01*
X106779201Y-107202649D01*
X106779205Y-107202654D01*
X106960789Y-107384238D01*
X106959714Y-107385312D01*
X106994225Y-107438180D01*
X106999500Y-107473962D01*
X106999500Y-109625500D01*
X106979815Y-109692539D01*
X106927011Y-109738294D01*
X106875500Y-109749500D01*
X96492000Y-109749500D01*
X96424961Y-109729815D01*
X96379206Y-109677011D01*
X96368000Y-109625500D01*
X96368000Y-109549992D01*
X96367999Y-109549984D01*
X96357499Y-109447204D01*
X96357499Y-109447203D01*
X96302314Y-109280666D01*
X96210211Y-109131345D01*
X96086155Y-109007289D01*
X96086151Y-109007286D01*
X95936837Y-108915187D01*
X95936835Y-108915186D01*
X95834706Y-108881344D01*
X95770297Y-108860001D01*
X95770295Y-108860000D01*
X95667515Y-108849500D01*
X95667508Y-108849500D01*
X93267492Y-108849500D01*
X93267484Y-108849500D01*
X93164704Y-108860000D01*
X93164703Y-108860001D01*
X92998164Y-108915186D01*
X92998162Y-108915187D01*
X92848848Y-109007286D01*
X92848844Y-109007289D01*
X92724789Y-109131344D01*
X92724786Y-109131348D01*
X92632687Y-109280662D01*
X92632686Y-109280664D01*
X92577501Y-109447203D01*
X92577500Y-109447204D01*
X92567000Y-109549984D01*
X88500500Y-109549984D01*
X88500500Y-105625441D01*
X92567000Y-105625441D01*
X92567000Y-105874558D01*
X92567001Y-105874575D01*
X92599517Y-106121561D01*
X92663998Y-106362207D01*
X92759330Y-106592361D01*
X92759337Y-106592376D01*
X92883900Y-106808126D01*
X93035560Y-107005774D01*
X93035566Y-107005781D01*
X93211718Y-107181933D01*
X93211725Y-107181939D01*
X93409373Y-107333599D01*
X93625123Y-107458162D01*
X93625138Y-107458169D01*
X93724325Y-107499253D01*
X93855293Y-107553502D01*
X94095935Y-107617982D01*
X94342935Y-107650500D01*
X94342942Y-107650500D01*
X94592058Y-107650500D01*
X94592065Y-107650500D01*
X94839065Y-107617982D01*
X95079707Y-107553502D01*
X95309873Y-107458164D01*
X95525627Y-107333599D01*
X95723276Y-107181938D01*
X95899438Y-107005776D01*
X96051099Y-106808127D01*
X96175664Y-106592373D01*
X96271002Y-106362207D01*
X96335482Y-106121565D01*
X96368000Y-105874565D01*
X96368000Y-105625435D01*
X96335482Y-105378435D01*
X96335477Y-105378417D01*
X96334890Y-105375463D01*
X96334971Y-105374555D01*
X96334952Y-105374410D01*
X96334984Y-105374405D01*
X96341118Y-105305871D01*
X96368825Y-105263594D01*
X98595602Y-103036819D01*
X98656925Y-103003334D01*
X98683283Y-103000500D01*
X110454218Y-103000500D01*
X110521257Y-103020185D01*
X110541899Y-103036819D01*
X113363427Y-105858348D01*
X113396912Y-105919671D01*
X113398920Y-105949166D01*
X113399500Y-105949166D01*
X113399500Y-105954038D01*
X113399500Y-106205962D01*
X113412171Y-106285961D01*
X113438910Y-106454785D01*
X113516760Y-106694383D01*
X113631132Y-106918848D01*
X113779201Y-107122649D01*
X113779205Y-107122654D01*
X113960789Y-107304238D01*
X113959714Y-107305312D01*
X113994225Y-107358180D01*
X113999500Y-107393962D01*
X113999500Y-109819698D01*
X113979815Y-109886737D01*
X113927011Y-109932492D01*
X113914505Y-109937404D01*
X113830665Y-109965186D01*
X113830662Y-109965187D01*
X113681342Y-110057289D01*
X113557289Y-110181342D01*
X113465187Y-110330662D01*
X113465186Y-110330665D01*
X113410001Y-110497202D01*
X113410001Y-110497203D01*
X113410000Y-110497203D01*
X113399500Y-110599982D01*
X113399500Y-112400017D01*
X113410000Y-112502796D01*
X113438677Y-112589337D01*
X113465186Y-112669335D01*
X113557288Y-112818656D01*
X113681344Y-112942712D01*
X113830665Y-113034814D01*
X113997202Y-113089999D01*
X114099990Y-113100500D01*
X114099995Y-113100500D01*
X115900005Y-113100500D01*
X115900010Y-113100500D01*
X116002798Y-113089999D01*
X116169335Y-113034814D01*
X116318656Y-112942712D01*
X116442712Y-112818656D01*
X116534814Y-112669335D01*
X116589999Y-112502798D01*
X116600500Y-112400010D01*
X116600500Y-110599990D01*
X116589999Y-110497202D01*
X116534814Y-110330665D01*
X116442712Y-110181344D01*
X116318656Y-110057288D01*
X116188957Y-109977289D01*
X116169337Y-109965187D01*
X116169336Y-109965186D01*
X116169335Y-109965186D01*
X116085495Y-109937404D01*
X116028050Y-109897631D01*
X116001228Y-109833114D01*
X116000500Y-109819698D01*
X116000500Y-107393962D01*
X116020185Y-107326923D01*
X116039623Y-107304650D01*
X116039211Y-107304238D01*
X116042656Y-107300793D01*
X116220793Y-107122656D01*
X116368870Y-106918845D01*
X116483241Y-106694379D01*
X116561090Y-106454785D01*
X116600500Y-106205962D01*
X116600500Y-105954038D01*
X116561090Y-105705215D01*
X116483241Y-105465621D01*
X116483239Y-105465618D01*
X116483239Y-105465616D01*
X116409630Y-105321151D01*
X116368870Y-105241155D01*
X116333237Y-105192110D01*
X116220798Y-105037350D01*
X116220794Y-105037345D01*
X116042654Y-104859205D01*
X116042649Y-104859201D01*
X115838848Y-104711132D01*
X115838847Y-104711131D01*
X115838845Y-104711130D01*
X115734279Y-104657851D01*
X115614383Y-104596760D01*
X115374785Y-104518910D01*
X115218931Y-104494225D01*
X115125962Y-104479500D01*
X114874038Y-104479500D01*
X114869166Y-104479500D01*
X114869166Y-104477986D01*
X114807350Y-104464983D01*
X114778348Y-104443427D01*
X111704209Y-101369289D01*
X111704206Y-101369285D01*
X111704206Y-101369286D01*
X111697139Y-101362219D01*
X111697139Y-101362218D01*
X111557782Y-101222861D01*
X111557781Y-101222860D01*
X111557780Y-101222859D01*
X111393920Y-101113371D01*
X111393911Y-101113366D01*
X111321315Y-101083296D01*
X111265165Y-101060038D01*
X111211836Y-101037949D01*
X111211832Y-101037948D01*
X111211828Y-101037946D01*
X111115188Y-101018724D01*
X111018544Y-100999500D01*
X111018541Y-100999500D01*
X98098541Y-100999500D01*
X97901459Y-100999500D01*
X97901457Y-100999500D01*
X97708170Y-101037947D01*
X97708160Y-101037950D01*
X97526092Y-101113364D01*
X97526079Y-101113371D01*
X97362218Y-101222860D01*
X97362214Y-101222863D01*
X97222863Y-101362214D01*
X97222860Y-101362218D01*
X97113371Y-101526079D01*
X97113364Y-101526092D01*
X97037949Y-101708162D01*
X97037947Y-101708170D01*
X97031266Y-101741758D01*
X96998880Y-101803669D01*
X96997330Y-101805247D01*
X94953906Y-103848672D01*
X94892583Y-103882157D01*
X94842041Y-103882610D01*
X94839063Y-103882017D01*
X94592075Y-103849501D01*
X94592070Y-103849500D01*
X94592065Y-103849500D01*
X94342935Y-103849500D01*
X94342929Y-103849500D01*
X94342924Y-103849501D01*
X94095938Y-103882017D01*
X93855292Y-103946498D01*
X93625138Y-104041830D01*
X93625123Y-104041837D01*
X93409373Y-104166400D01*
X93211725Y-104318060D01*
X93211718Y-104318066D01*
X93035566Y-104494218D01*
X93035560Y-104494225D01*
X92883900Y-104691873D01*
X92759337Y-104907623D01*
X92759330Y-104907638D01*
X92663998Y-105137792D01*
X92599517Y-105378438D01*
X92567001Y-105625424D01*
X92567000Y-105625441D01*
X88500500Y-105625441D01*
X88500500Y-95099982D01*
X106399500Y-95099982D01*
X106399500Y-96900017D01*
X106410000Y-97002796D01*
X106438677Y-97089337D01*
X106465186Y-97169335D01*
X106557288Y-97318656D01*
X106681344Y-97442712D01*
X106830665Y-97534814D01*
X106997202Y-97589999D01*
X107099990Y-97600500D01*
X107099995Y-97600500D01*
X108900005Y-97600500D01*
X108900010Y-97600500D01*
X109002798Y-97589999D01*
X109169335Y-97534814D01*
X109318656Y-97442712D01*
X109442712Y-97318656D01*
X109534814Y-97169335D01*
X109562597Y-97085493D01*
X109602368Y-97028051D01*
X109666883Y-97001228D01*
X109680301Y-97000500D01*
X113346208Y-97000500D01*
X113413247Y-97020185D01*
X113459002Y-97072989D01*
X113463912Y-97085491D01*
X113465186Y-97089335D01*
X113557288Y-97238656D01*
X113681344Y-97362712D01*
X113830665Y-97454814D01*
X113997202Y-97509999D01*
X114099990Y-97520500D01*
X114099995Y-97520500D01*
X115900005Y-97520500D01*
X115900010Y-97520500D01*
X116002798Y-97509999D01*
X116169335Y-97454814D01*
X116318656Y-97362712D01*
X116442712Y-97238656D01*
X116534814Y-97089335D01*
X116562596Y-97005494D01*
X116602368Y-96948051D01*
X116666883Y-96921228D01*
X116680301Y-96920500D01*
X118144218Y-96920500D01*
X118211257Y-96940185D01*
X118231899Y-96956819D01*
X120483581Y-99208502D01*
X120517066Y-99269825D01*
X120518372Y-99276778D01*
X120519058Y-99281112D01*
X120519059Y-99281114D01*
X120519060Y-99281118D01*
X120577453Y-99460832D01*
X120663240Y-99629199D01*
X120665814Y-99632742D01*
X120689297Y-99698546D01*
X120689500Y-99705632D01*
X120689500Y-101294366D01*
X120669815Y-101361405D01*
X120665821Y-101367247D01*
X120663242Y-101370796D01*
X120577454Y-101539163D01*
X120519059Y-101718881D01*
X120489500Y-101905513D01*
X120489500Y-102094486D01*
X120519059Y-102281118D01*
X120577454Y-102460836D01*
X120663239Y-102629198D01*
X120663240Y-102629199D01*
X120665814Y-102632742D01*
X120689297Y-102698546D01*
X120689500Y-102705632D01*
X120689500Y-110231344D01*
X120693343Y-110250667D01*
X120698400Y-110276086D01*
X120727949Y-110424638D01*
X120750038Y-110477967D01*
X120753309Y-110485864D01*
X120753310Y-110485867D01*
X120803366Y-110606713D01*
X120803371Y-110606722D01*
X120912860Y-110770583D01*
X120912863Y-110770587D01*
X121056537Y-110914261D01*
X121056559Y-110914281D01*
X122675379Y-112533101D01*
X122708864Y-112594424D01*
X122711698Y-112620782D01*
X122711698Y-113055001D01*
X122711699Y-113055019D01*
X122722198Y-113157796D01*
X122722199Y-113157799D01*
X122777383Y-113324331D01*
X122777385Y-113324336D01*
X122869487Y-113473657D01*
X122975379Y-113579549D01*
X123008864Y-113640872D01*
X123011698Y-113667230D01*
X123011698Y-114610739D01*
X123011698Y-114610741D01*
X123011697Y-114610741D01*
X123050145Y-114804027D01*
X123050148Y-114804037D01*
X123125562Y-114986105D01*
X123125569Y-114986118D01*
X123235058Y-115149979D01*
X123235061Y-115149983D01*
X123378735Y-115293657D01*
X123378757Y-115293677D01*
X126219735Y-118134655D01*
X126219764Y-118134686D01*
X126362214Y-118277136D01*
X126362218Y-118277139D01*
X126526079Y-118386628D01*
X126526092Y-118386635D01*
X126654833Y-118439961D01*
X126697744Y-118457735D01*
X126708164Y-118462051D01*
X126804812Y-118481275D01*
X126853135Y-118490887D01*
X126901458Y-118500500D01*
X126901459Y-118500500D01*
X134598542Y-118500500D01*
X134629566Y-118494328D01*
X134695188Y-118481275D01*
X134791836Y-118462051D01*
X134845165Y-118439961D01*
X134973914Y-118386632D01*
X135137782Y-118277139D01*
X135277139Y-118137782D01*
X135277140Y-118137779D01*
X135284206Y-118130714D01*
X135284208Y-118130710D01*
X141878101Y-111536819D01*
X141939424Y-111503334D01*
X141965782Y-111500500D01*
X146975500Y-111500500D01*
X147042539Y-111520185D01*
X147088294Y-111572989D01*
X147099500Y-111624500D01*
X147099500Y-111700015D01*
X147110000Y-111802795D01*
X147110001Y-111802797D01*
X147116692Y-111822989D01*
X147165186Y-111969335D01*
X147165187Y-111969337D01*
X147257286Y-112118651D01*
X147257289Y-112118655D01*
X147381344Y-112242710D01*
X147381348Y-112242713D01*
X147530662Y-112334812D01*
X147530664Y-112334813D01*
X147530666Y-112334814D01*
X147697203Y-112389999D01*
X147799992Y-112400500D01*
X147799997Y-112400500D01*
X150200003Y-112400500D01*
X150200008Y-112400500D01*
X150302797Y-112389999D01*
X150469334Y-112334814D01*
X150618655Y-112242711D01*
X150742711Y-112118655D01*
X150834814Y-111969334D01*
X150889999Y-111802797D01*
X150900500Y-111700008D01*
X150900500Y-109299992D01*
X150889999Y-109197203D01*
X150834814Y-109030666D01*
X150742711Y-108881345D01*
X150618655Y-108757289D01*
X150618651Y-108757286D01*
X150469337Y-108665187D01*
X150469335Y-108665186D01*
X150386065Y-108637593D01*
X150302797Y-108610001D01*
X150302795Y-108610000D01*
X150200015Y-108599500D01*
X150200008Y-108599500D01*
X147799992Y-108599500D01*
X147799984Y-108599500D01*
X147697204Y-108610000D01*
X147697203Y-108610001D01*
X147530664Y-108665186D01*
X147530662Y-108665187D01*
X147381348Y-108757286D01*
X147381344Y-108757289D01*
X147257289Y-108881344D01*
X147257286Y-108881348D01*
X147165187Y-109030662D01*
X147165186Y-109030664D01*
X147110001Y-109197203D01*
X147110000Y-109197204D01*
X147099500Y-109299984D01*
X147099500Y-109375500D01*
X147079815Y-109442539D01*
X147027011Y-109488294D01*
X146975500Y-109499500D01*
X141401457Y-109499500D01*
X141321574Y-109515390D01*
X141321567Y-109515391D01*
X141318489Y-109516004D01*
X141208164Y-109537949D01*
X141179090Y-109549992D01*
X141170745Y-109553448D01*
X141170739Y-109553450D01*
X141026092Y-109613364D01*
X141026079Y-109613371D01*
X140862219Y-109722859D01*
X140792540Y-109792538D01*
X140722861Y-109862218D01*
X140722858Y-109862221D01*
X134121899Y-116463181D01*
X134060576Y-116496666D01*
X134034218Y-116499500D01*
X127465782Y-116499500D01*
X127398743Y-116479815D01*
X127378101Y-116463181D01*
X125049017Y-114134097D01*
X125015532Y-114072774D01*
X125012698Y-114046416D01*
X125012698Y-113667230D01*
X125020118Y-113641957D01*
X125023831Y-113615878D01*
X125030675Y-113606004D01*
X125032383Y-113600191D01*
X125042870Y-113586160D01*
X125045818Y-113582747D01*
X125154910Y-113473656D01*
X125247012Y-113324334D01*
X125302197Y-113157797D01*
X125312698Y-113055009D01*
X125312697Y-112352682D01*
X126512198Y-112352682D01*
X126512198Y-112557317D01*
X126544207Y-112759417D01*
X126607442Y-112954031D01*
X126700339Y-113136350D01*
X126700345Y-113136359D01*
X126732721Y-113180921D01*
X126732722Y-113180922D01*
X127412198Y-112501446D01*
X127412198Y-112507661D01*
X127439457Y-112609394D01*
X127492118Y-112700606D01*
X127566592Y-112775080D01*
X127657804Y-112827741D01*
X127759537Y-112855000D01*
X127765751Y-112855000D01*
X127086274Y-113534474D01*
X127130848Y-113566859D01*
X127313166Y-113659755D01*
X127507780Y-113722990D01*
X127709881Y-113755000D01*
X127914515Y-113755000D01*
X128116615Y-113722990D01*
X128311229Y-113659755D01*
X128493547Y-113566859D01*
X128538119Y-113534474D01*
X127858645Y-112855000D01*
X127864859Y-112855000D01*
X127966592Y-112827741D01*
X128057804Y-112775080D01*
X128132278Y-112700606D01*
X128184939Y-112609394D01*
X128212198Y-112507661D01*
X128212198Y-112501448D01*
X128891672Y-113180922D01*
X128891672Y-113180921D01*
X128924057Y-113136349D01*
X129016953Y-112954031D01*
X129080188Y-112759417D01*
X129112198Y-112557317D01*
X129112198Y-112352682D01*
X129080188Y-112150582D01*
X129016953Y-111955968D01*
X128924057Y-111773650D01*
X128891672Y-111729077D01*
X128891672Y-111729076D01*
X128212198Y-112408551D01*
X128212198Y-112402339D01*
X128184939Y-112300606D01*
X128132278Y-112209394D01*
X128057804Y-112134920D01*
X127966592Y-112082259D01*
X127864859Y-112055000D01*
X127858644Y-112055000D01*
X128538120Y-111375524D01*
X128538119Y-111375523D01*
X128493557Y-111343147D01*
X128493548Y-111343141D01*
X128311229Y-111250244D01*
X128116615Y-111187009D01*
X127914515Y-111155000D01*
X127709881Y-111155000D01*
X127507780Y-111187009D01*
X127313166Y-111250244D01*
X127130842Y-111343143D01*
X127086275Y-111375523D01*
X127086275Y-111375524D01*
X127765752Y-112055000D01*
X127759537Y-112055000D01*
X127657804Y-112082259D01*
X127566592Y-112134920D01*
X127492118Y-112209394D01*
X127439457Y-112300606D01*
X127412198Y-112402339D01*
X127412198Y-112408553D01*
X126732722Y-111729077D01*
X126732721Y-111729077D01*
X126700341Y-111773644D01*
X126607442Y-111955968D01*
X126544207Y-112150582D01*
X126512198Y-112352682D01*
X125312697Y-112352682D01*
X125312697Y-111854992D01*
X125302197Y-111752203D01*
X125247012Y-111585666D01*
X125154910Y-111436344D01*
X125030854Y-111312288D01*
X124881532Y-111220186D01*
X124714995Y-111165001D01*
X124714993Y-111165000D01*
X124612214Y-111154500D01*
X124612207Y-111154500D01*
X124177980Y-111154500D01*
X124110941Y-111134815D01*
X124090299Y-111118181D01*
X122726819Y-109754701D01*
X122693334Y-109693378D01*
X122690500Y-109667020D01*
X122690500Y-103007882D01*
X128655669Y-103007882D01*
X128655670Y-103007883D01*
X128681059Y-103026329D01*
X128849362Y-103112085D01*
X129028997Y-103170451D01*
X129215553Y-103200000D01*
X129404447Y-103200000D01*
X129591002Y-103170451D01*
X129770637Y-103112085D01*
X129938937Y-103026331D01*
X129964328Y-103007883D01*
X129964328Y-103007882D01*
X129310001Y-102353554D01*
X129310000Y-102353554D01*
X128655669Y-103007882D01*
X122690500Y-103007882D01*
X122690500Y-102705632D01*
X122710185Y-102638593D01*
X122714177Y-102632753D01*
X122716760Y-102629199D01*
X122802547Y-102460832D01*
X122860940Y-102281118D01*
X122871427Y-102214905D01*
X122890500Y-102094486D01*
X122890500Y-101905552D01*
X128110000Y-101905552D01*
X128110000Y-102094447D01*
X128139548Y-102281002D01*
X128197914Y-102460637D01*
X128283666Y-102628933D01*
X128302116Y-102654328D01*
X128956446Y-102000000D01*
X128956446Y-101999999D01*
X128910369Y-101953922D01*
X128960000Y-101953922D01*
X128960000Y-102046078D01*
X128983852Y-102135095D01*
X129029930Y-102214905D01*
X129095095Y-102280070D01*
X129174905Y-102326148D01*
X129263922Y-102350000D01*
X129356078Y-102350000D01*
X129445095Y-102326148D01*
X129524905Y-102280070D01*
X129590070Y-102214905D01*
X129636148Y-102135095D01*
X129660000Y-102046078D01*
X129660000Y-101999999D01*
X129663554Y-101999999D01*
X129663554Y-102000000D01*
X130317882Y-102654328D01*
X130317883Y-102654328D01*
X130336331Y-102628937D01*
X130422085Y-102460637D01*
X130480451Y-102281002D01*
X130510000Y-102094447D01*
X130510000Y-101905552D01*
X130480451Y-101718997D01*
X130422085Y-101539362D01*
X130336329Y-101371059D01*
X130317883Y-101345670D01*
X130317882Y-101345669D01*
X129663554Y-101999999D01*
X129660000Y-101999999D01*
X129660000Y-101953922D01*
X129636148Y-101864905D01*
X129590070Y-101785095D01*
X129524905Y-101719930D01*
X129445095Y-101673852D01*
X129356078Y-101650000D01*
X129263922Y-101650000D01*
X129174905Y-101673852D01*
X129095095Y-101719930D01*
X129029930Y-101785095D01*
X128983852Y-101864905D01*
X128960000Y-101953922D01*
X128910369Y-101953922D01*
X128302116Y-101345669D01*
X128302116Y-101345670D01*
X128283669Y-101371060D01*
X128197914Y-101539362D01*
X128139548Y-101718997D01*
X128110000Y-101905552D01*
X122890500Y-101905552D01*
X122890500Y-101905513D01*
X122860940Y-101718881D01*
X122802545Y-101539163D01*
X122716757Y-101370796D01*
X122714179Y-101367247D01*
X122690702Y-101301439D01*
X122690500Y-101294366D01*
X122690500Y-100992116D01*
X128655669Y-100992116D01*
X129310000Y-101646446D01*
X129310001Y-101646446D01*
X129964328Y-100992116D01*
X129938933Y-100973666D01*
X129770637Y-100887914D01*
X129591002Y-100829548D01*
X129404447Y-100800000D01*
X129215553Y-100800000D01*
X129028997Y-100829548D01*
X128849362Y-100887914D01*
X128681060Y-100973669D01*
X128655670Y-100992116D01*
X128655669Y-100992116D01*
X122690500Y-100992116D01*
X122690500Y-99705632D01*
X122710185Y-99638593D01*
X122714177Y-99632753D01*
X122716760Y-99629199D01*
X122802547Y-99460832D01*
X122860940Y-99281118D01*
X122872441Y-99208502D01*
X122890500Y-99094486D01*
X122890500Y-98905513D01*
X128109500Y-98905513D01*
X128109500Y-99094486D01*
X128139059Y-99281118D01*
X128197454Y-99460836D01*
X128283239Y-99629198D01*
X128283240Y-99629199D01*
X128394310Y-99782073D01*
X128527927Y-99915690D01*
X128680801Y-100026760D01*
X128760347Y-100067290D01*
X128849163Y-100112545D01*
X128849165Y-100112545D01*
X128849168Y-100112547D01*
X128945497Y-100143846D01*
X129028881Y-100170940D01*
X129215514Y-100200500D01*
X129215519Y-100200500D01*
X129404486Y-100200500D01*
X129591118Y-100170940D01*
X129770832Y-100112547D01*
X129939199Y-100026760D01*
X130092073Y-99915690D01*
X130092081Y-99915681D01*
X130093768Y-99914242D01*
X130094543Y-99913894D01*
X130096014Y-99912826D01*
X130096238Y-99913134D01*
X130157529Y-99885670D01*
X130226615Y-99896107D01*
X130261982Y-99920850D01*
X133844451Y-103503319D01*
X133877936Y-103564642D01*
X133872952Y-103634334D01*
X133831080Y-103690267D01*
X133765616Y-103714684D01*
X133756770Y-103715000D01*
X133029655Y-103715000D01*
X132970127Y-103721401D01*
X132970120Y-103721403D01*
X132835413Y-103771645D01*
X132835406Y-103771649D01*
X132720312Y-103857809D01*
X132720309Y-103857812D01*
X132634149Y-103972906D01*
X132634145Y-103972913D01*
X132583903Y-104107620D01*
X132583901Y-104107627D01*
X132577500Y-104167155D01*
X132577500Y-104865000D01*
X133602222Y-104865000D01*
X133558167Y-104941306D01*
X133527500Y-105055756D01*
X133527500Y-105174244D01*
X133558167Y-105288694D01*
X133602222Y-105365000D01*
X132577500Y-105365000D01*
X132577500Y-106062844D01*
X132583901Y-106122372D01*
X132583903Y-106122379D01*
X132634145Y-106257086D01*
X132634149Y-106257093D01*
X132720309Y-106372187D01*
X132720312Y-106372190D01*
X132835406Y-106458350D01*
X132835413Y-106458354D01*
X132970120Y-106508596D01*
X132970127Y-106508598D01*
X133029655Y-106514999D01*
X133029672Y-106515000D01*
X133727500Y-106515000D01*
X133727500Y-105490277D01*
X133803806Y-105534333D01*
X133918256Y-105565000D01*
X134036744Y-105565000D01*
X134151194Y-105534333D01*
X134227500Y-105490277D01*
X134227500Y-106515000D01*
X134925328Y-106515000D01*
X134925344Y-106514999D01*
X134984872Y-106508598D01*
X134984879Y-106508596D01*
X135119586Y-106458354D01*
X135119593Y-106458350D01*
X135234687Y-106372190D01*
X135234690Y-106372187D01*
X135320850Y-106257093D01*
X135320854Y-106257086D01*
X135350713Y-106177031D01*
X135392584Y-106121097D01*
X135458048Y-106096680D01*
X135526321Y-106111531D01*
X135554576Y-106132683D01*
X135605136Y-106183243D01*
X135605141Y-106183247D01*
X135746516Y-106285961D01*
X135783478Y-106312815D01*
X135900001Y-106372187D01*
X135979893Y-106412895D01*
X135979896Y-106412896D01*
X136084721Y-106446955D01*
X136189549Y-106481015D01*
X136407278Y-106515500D01*
X136407279Y-106515500D01*
X136627721Y-106515500D01*
X136627722Y-106515500D01*
X136845451Y-106481015D01*
X137055106Y-106412895D01*
X137251522Y-106312815D01*
X137429865Y-106183242D01*
X137585742Y-106027365D01*
X137715315Y-105849022D01*
X137815395Y-105652606D01*
X137883515Y-105442951D01*
X137894204Y-105375463D01*
X147100000Y-105375463D01*
X147100000Y-105624533D01*
X147132508Y-105871463D01*
X147196973Y-106112049D01*
X147292283Y-106342148D01*
X147292288Y-106342159D01*
X147416813Y-106557841D01*
X147416819Y-106557849D01*
X147491400Y-106655045D01*
X148398958Y-105747487D01*
X148423978Y-105807890D01*
X148495112Y-105914351D01*
X148585649Y-106004888D01*
X148692110Y-106076022D01*
X148752511Y-106101041D01*
X147844953Y-107008598D01*
X147942150Y-107083180D01*
X147942158Y-107083186D01*
X148157840Y-107207711D01*
X148157851Y-107207716D01*
X148387950Y-107303026D01*
X148628536Y-107367491D01*
X148875466Y-107400000D01*
X149124534Y-107400000D01*
X149371463Y-107367491D01*
X149612049Y-107303026D01*
X149842148Y-107207716D01*
X149842159Y-107207711D01*
X150057855Y-107083178D01*
X150155045Y-107008600D01*
X150155045Y-107008597D01*
X149247488Y-106101041D01*
X149307890Y-106076022D01*
X149414351Y-106004888D01*
X149504888Y-105914351D01*
X149576022Y-105807890D01*
X149601041Y-105747489D01*
X150508597Y-106655045D01*
X150508600Y-106655045D01*
X150583178Y-106557855D01*
X150707711Y-106342159D01*
X150707716Y-106342148D01*
X150803026Y-106112049D01*
X150867491Y-105871463D01*
X150900000Y-105624533D01*
X150900000Y-105375463D01*
X150867491Y-105128536D01*
X150803026Y-104887950D01*
X150707716Y-104657851D01*
X150707711Y-104657840D01*
X150583186Y-104442158D01*
X150583180Y-104442150D01*
X150508598Y-104344953D01*
X149601041Y-105252510D01*
X149576022Y-105192110D01*
X149504888Y-105085649D01*
X149414351Y-104995112D01*
X149307890Y-104923978D01*
X149247487Y-104898957D01*
X150155045Y-103991400D01*
X150057849Y-103916819D01*
X150057841Y-103916813D01*
X149842159Y-103792288D01*
X149842148Y-103792283D01*
X149612049Y-103696973D01*
X149371463Y-103632508D01*
X149124534Y-103600000D01*
X148875466Y-103600000D01*
X148628536Y-103632508D01*
X148387950Y-103696973D01*
X148157851Y-103792283D01*
X148157847Y-103792285D01*
X147942143Y-103916823D01*
X147844953Y-103991399D01*
X147844953Y-103991400D01*
X148752511Y-104898958D01*
X148692110Y-104923978D01*
X148585649Y-104995112D01*
X148495112Y-105085649D01*
X148423978Y-105192110D01*
X148398958Y-105252511D01*
X147491400Y-104344953D01*
X147491399Y-104344953D01*
X147416823Y-104442143D01*
X147292285Y-104657847D01*
X147292283Y-104657851D01*
X147196973Y-104887950D01*
X147132508Y-105128536D01*
X147100000Y-105375463D01*
X137894204Y-105375463D01*
X137905227Y-105305871D01*
X137918000Y-105225221D01*
X137918000Y-105004778D01*
X137907947Y-104941306D01*
X137883515Y-104787049D01*
X137847680Y-104676759D01*
X137815396Y-104577396D01*
X137815395Y-104577393D01*
X137765515Y-104479500D01*
X137715315Y-104380978D01*
X137698760Y-104358192D01*
X137585747Y-104202641D01*
X137585743Y-104202636D01*
X137429863Y-104046756D01*
X137429858Y-104046752D01*
X137251525Y-103917187D01*
X137251524Y-103917186D01*
X137251522Y-103917185D01*
X137188596Y-103885122D01*
X137055106Y-103817104D01*
X137055103Y-103817103D01*
X136845452Y-103748985D01*
X136736586Y-103731742D01*
X136627722Y-103714500D01*
X136407278Y-103714500D01*
X136407273Y-103714500D01*
X136272069Y-103735914D01*
X136202775Y-103726959D01*
X136164990Y-103701122D01*
X130880913Y-98417045D01*
X130831679Y-98384150D01*
X130798855Y-98362218D01*
X130757995Y-98334916D01*
X130757994Y-98334915D01*
X130757992Y-98334914D01*
X130757990Y-98334913D01*
X130621417Y-98278343D01*
X130621407Y-98278340D01*
X130476420Y-98249500D01*
X130476418Y-98249500D01*
X130308625Y-98249500D01*
X130241586Y-98229815D01*
X130220944Y-98213181D01*
X130092075Y-98084312D01*
X130092073Y-98084310D01*
X129939199Y-97973240D01*
X129770836Y-97887454D01*
X129591118Y-97829059D01*
X129404486Y-97799500D01*
X129404481Y-97799500D01*
X129215519Y-97799500D01*
X129215514Y-97799500D01*
X129028881Y-97829059D01*
X128849163Y-97887454D01*
X128680800Y-97973240D01*
X128593579Y-98036610D01*
X128527927Y-98084310D01*
X128527925Y-98084312D01*
X128527924Y-98084312D01*
X128394312Y-98217924D01*
X128394312Y-98217925D01*
X128394310Y-98217927D01*
X128385673Y-98229815D01*
X128283240Y-98370800D01*
X128197454Y-98539163D01*
X128139059Y-98718881D01*
X128109500Y-98905513D01*
X122890500Y-98905513D01*
X122860940Y-98718881D01*
X122802545Y-98539163D01*
X122716759Y-98370800D01*
X122605690Y-98217927D01*
X122472073Y-98084310D01*
X122319199Y-97973240D01*
X122150832Y-97887453D01*
X121971118Y-97829060D01*
X121971116Y-97829059D01*
X121971114Y-97829059D01*
X121971112Y-97829058D01*
X121966778Y-97828372D01*
X121903645Y-97798439D01*
X121898502Y-97793581D01*
X119394209Y-95289289D01*
X119394206Y-95289285D01*
X119394206Y-95289286D01*
X119387139Y-95282219D01*
X119387139Y-95282218D01*
X119247782Y-95142861D01*
X119247781Y-95142860D01*
X119247780Y-95142859D01*
X119083920Y-95033371D01*
X119083911Y-95033366D01*
X119002150Y-94999500D01*
X118955165Y-94980038D01*
X118901836Y-94957949D01*
X118901832Y-94957948D01*
X118901828Y-94957946D01*
X118805188Y-94938724D01*
X118708544Y-94919500D01*
X118708541Y-94919500D01*
X116680301Y-94919500D01*
X116613262Y-94899815D01*
X116567507Y-94847011D01*
X116562598Y-94834512D01*
X116534814Y-94750665D01*
X116442712Y-94601344D01*
X116318656Y-94477288D01*
X116225890Y-94420070D01*
X116169337Y-94385187D01*
X116169332Y-94385185D01*
X116167863Y-94384698D01*
X116002798Y-94330001D01*
X116002796Y-94330000D01*
X115900017Y-94319500D01*
X115900010Y-94319500D01*
X114099990Y-94319500D01*
X114099982Y-94319500D01*
X113997203Y-94330000D01*
X113997202Y-94330001D01*
X113914669Y-94357349D01*
X113830667Y-94385185D01*
X113830662Y-94385187D01*
X113681342Y-94477289D01*
X113557289Y-94601342D01*
X113465187Y-94750662D01*
X113465185Y-94750667D01*
X113410895Y-94914504D01*
X113371122Y-94971949D01*
X113306606Y-94998772D01*
X113293189Y-94999500D01*
X109680301Y-94999500D01*
X109613262Y-94979815D01*
X109567507Y-94927011D01*
X109562598Y-94914512D01*
X109534814Y-94830665D01*
X109442712Y-94681344D01*
X109318656Y-94557288D01*
X109188957Y-94477289D01*
X109169337Y-94465187D01*
X109169332Y-94465185D01*
X109167863Y-94464698D01*
X109002798Y-94410001D01*
X109002796Y-94410000D01*
X108900017Y-94399500D01*
X108900010Y-94399500D01*
X107099990Y-94399500D01*
X107099982Y-94399500D01*
X106997203Y-94410000D01*
X106997202Y-94410001D01*
X106914669Y-94437349D01*
X106830667Y-94465185D01*
X106830662Y-94465187D01*
X106681342Y-94557289D01*
X106557289Y-94681342D01*
X106465187Y-94830662D01*
X106465186Y-94830665D01*
X106410001Y-94997202D01*
X106410001Y-94997203D01*
X106410000Y-94997203D01*
X106399500Y-95099982D01*
X88500500Y-95099982D01*
X88500500Y-89624500D01*
X88520185Y-89557461D01*
X88572989Y-89511706D01*
X88624500Y-89500500D01*
X89837182Y-89500500D01*
X89904221Y-89520185D01*
G37*
%TD.AperFunction*%
%TD*%
M02*
