%TF.GenerationSoftware,KiCad,Pcbnew,10.0.4*%
%TF.CreationDate,2026-06-27T01:24:14+06:00*%
%TF.ProjectId,ACtoDC,4143746f-4443-42e6-9b69-6361645f7063,rev?*%
%TF.SameCoordinates,Original*%
%TF.FileFunction,Legend,Top*%
%TF.FilePolarity,Positive*%
%FSLAX46Y46*%
G04 Gerber Fmt 4.6, Leading zero omitted, Abs format (unit mm)*
G04 Created by KiCad (PCBNEW 10.0.4) date 2026-06-27 01:24:14*
%MOMM*%
%LPD*%
G01*
G04 APERTURE LIST*
%ADD10C,0.100000*%
%ADD11C,0.150000*%
%ADD12C,0.010000*%
%ADD13C,0.000000*%
%ADD14C,0.120000*%
G04 APERTURE END LIST*
D10*
X154303884Y-104991466D02*
X155065789Y-104991466D01*
X154303884Y-110491466D02*
X155065789Y-110491466D01*
X154684836Y-110872419D02*
X154684836Y-110110514D01*
X146803884Y-116372419D02*
X146803884Y-115372419D01*
X146803884Y-115372419D02*
X147041979Y-115372419D01*
X147041979Y-115372419D02*
X147184836Y-115420038D01*
X147184836Y-115420038D02*
X147280074Y-115515276D01*
X147280074Y-115515276D02*
X147327693Y-115610514D01*
X147327693Y-115610514D02*
X147375312Y-115800990D01*
X147375312Y-115800990D02*
X147375312Y-115943847D01*
X147375312Y-115943847D02*
X147327693Y-116134323D01*
X147327693Y-116134323D02*
X147280074Y-116229561D01*
X147280074Y-116229561D02*
X147184836Y-116324800D01*
X147184836Y-116324800D02*
X147041979Y-116372419D01*
X147041979Y-116372419D02*
X146803884Y-116372419D01*
X148375312Y-116277180D02*
X148327693Y-116324800D01*
X148327693Y-116324800D02*
X148184836Y-116372419D01*
X148184836Y-116372419D02*
X148089598Y-116372419D01*
X148089598Y-116372419D02*
X147946741Y-116324800D01*
X147946741Y-116324800D02*
X147851503Y-116229561D01*
X147851503Y-116229561D02*
X147803884Y-116134323D01*
X147803884Y-116134323D02*
X147756265Y-115943847D01*
X147756265Y-115943847D02*
X147756265Y-115800990D01*
X147756265Y-115800990D02*
X147803884Y-115610514D01*
X147803884Y-115610514D02*
X147851503Y-115515276D01*
X147851503Y-115515276D02*
X147946741Y-115420038D01*
X147946741Y-115420038D02*
X148089598Y-115372419D01*
X148089598Y-115372419D02*
X148184836Y-115372419D01*
X148184836Y-115372419D02*
X148327693Y-115420038D01*
X148327693Y-115420038D02*
X148375312Y-115467657D01*
X149708646Y-116372419D02*
X149613408Y-116324800D01*
X149613408Y-116324800D02*
X149565789Y-116277180D01*
X149565789Y-116277180D02*
X149518170Y-116181942D01*
X149518170Y-116181942D02*
X149518170Y-115896228D01*
X149518170Y-115896228D02*
X149565789Y-115800990D01*
X149565789Y-115800990D02*
X149613408Y-115753371D01*
X149613408Y-115753371D02*
X149708646Y-115705752D01*
X149708646Y-115705752D02*
X149851503Y-115705752D01*
X149851503Y-115705752D02*
X149946741Y-115753371D01*
X149946741Y-115753371D02*
X149994360Y-115800990D01*
X149994360Y-115800990D02*
X150041979Y-115896228D01*
X150041979Y-115896228D02*
X150041979Y-116181942D01*
X150041979Y-116181942D02*
X149994360Y-116277180D01*
X149994360Y-116277180D02*
X149946741Y-116324800D01*
X149946741Y-116324800D02*
X149851503Y-116372419D01*
X149851503Y-116372419D02*
X149708646Y-116372419D01*
X150899122Y-115705752D02*
X150899122Y-116372419D01*
X150470551Y-115705752D02*
X150470551Y-116229561D01*
X150470551Y-116229561D02*
X150518170Y-116324800D01*
X150518170Y-116324800D02*
X150613408Y-116372419D01*
X150613408Y-116372419D02*
X150756265Y-116372419D01*
X150756265Y-116372419D02*
X150851503Y-116324800D01*
X150851503Y-116324800D02*
X150899122Y-116277180D01*
X151232456Y-115705752D02*
X151613408Y-115705752D01*
X151375313Y-115372419D02*
X151375313Y-116229561D01*
X151375313Y-116229561D02*
X151422932Y-116324800D01*
X151422932Y-116324800D02*
X151518170Y-116372419D01*
X151518170Y-116372419D02*
X151613408Y-116372419D01*
X92756265Y-116086704D02*
X93232455Y-116086704D01*
X92661027Y-116372419D02*
X92994360Y-115372419D01*
X92994360Y-115372419D02*
X93327693Y-116372419D01*
X94232455Y-116277180D02*
X94184836Y-116324800D01*
X94184836Y-116324800D02*
X94041979Y-116372419D01*
X94041979Y-116372419D02*
X93946741Y-116372419D01*
X93946741Y-116372419D02*
X93803884Y-116324800D01*
X93803884Y-116324800D02*
X93708646Y-116229561D01*
X93708646Y-116229561D02*
X93661027Y-116134323D01*
X93661027Y-116134323D02*
X93613408Y-115943847D01*
X93613408Y-115943847D02*
X93613408Y-115800990D01*
X93613408Y-115800990D02*
X93661027Y-115610514D01*
X93661027Y-115610514D02*
X93708646Y-115515276D01*
X93708646Y-115515276D02*
X93803884Y-115420038D01*
X93803884Y-115420038D02*
X93946741Y-115372419D01*
X93946741Y-115372419D02*
X94041979Y-115372419D01*
X94041979Y-115372419D02*
X94184836Y-115420038D01*
X94184836Y-115420038D02*
X94232455Y-115467657D01*
X95422932Y-116372419D02*
X95422932Y-115705752D01*
X95422932Y-115372419D02*
X95375313Y-115420038D01*
X95375313Y-115420038D02*
X95422932Y-115467657D01*
X95422932Y-115467657D02*
X95470551Y-115420038D01*
X95470551Y-115420038D02*
X95422932Y-115372419D01*
X95422932Y-115372419D02*
X95422932Y-115467657D01*
X95899122Y-115705752D02*
X95899122Y-116372419D01*
X95899122Y-115800990D02*
X95946741Y-115753371D01*
X95946741Y-115753371D02*
X96041979Y-115705752D01*
X96041979Y-115705752D02*
X96184836Y-115705752D01*
X96184836Y-115705752D02*
X96280074Y-115753371D01*
X96280074Y-115753371D02*
X96327693Y-115848609D01*
X96327693Y-115848609D02*
X96327693Y-116372419D01*
X115756265Y-126086704D02*
X116232455Y-126086704D01*
X115661027Y-126372419D02*
X115994360Y-125372419D01*
X115994360Y-125372419D02*
X116327693Y-126372419D01*
X117232455Y-126277180D02*
X117184836Y-126324800D01*
X117184836Y-126324800D02*
X117041979Y-126372419D01*
X117041979Y-126372419D02*
X116946741Y-126372419D01*
X116946741Y-126372419D02*
X116803884Y-126324800D01*
X116803884Y-126324800D02*
X116708646Y-126229561D01*
X116708646Y-126229561D02*
X116661027Y-126134323D01*
X116661027Y-126134323D02*
X116613408Y-125943847D01*
X116613408Y-125943847D02*
X116613408Y-125800990D01*
X116613408Y-125800990D02*
X116661027Y-125610514D01*
X116661027Y-125610514D02*
X116708646Y-125515276D01*
X116708646Y-125515276D02*
X116803884Y-125420038D01*
X116803884Y-125420038D02*
X116946741Y-125372419D01*
X116946741Y-125372419D02*
X117041979Y-125372419D01*
X117041979Y-125372419D02*
X117184836Y-125420038D01*
X117184836Y-125420038D02*
X117232455Y-125467657D01*
X118280075Y-125705752D02*
X118661027Y-125705752D01*
X118422932Y-125372419D02*
X118422932Y-126229561D01*
X118422932Y-126229561D02*
X118470551Y-126324800D01*
X118470551Y-126324800D02*
X118565789Y-126372419D01*
X118565789Y-126372419D02*
X118661027Y-126372419D01*
X119137218Y-126372419D02*
X119041980Y-126324800D01*
X119041980Y-126324800D02*
X118994361Y-126277180D01*
X118994361Y-126277180D02*
X118946742Y-126181942D01*
X118946742Y-126181942D02*
X118946742Y-125896228D01*
X118946742Y-125896228D02*
X118994361Y-125800990D01*
X118994361Y-125800990D02*
X119041980Y-125753371D01*
X119041980Y-125753371D02*
X119137218Y-125705752D01*
X119137218Y-125705752D02*
X119280075Y-125705752D01*
X119280075Y-125705752D02*
X119375313Y-125753371D01*
X119375313Y-125753371D02*
X119422932Y-125800990D01*
X119422932Y-125800990D02*
X119470551Y-125896228D01*
X119470551Y-125896228D02*
X119470551Y-126181942D01*
X119470551Y-126181942D02*
X119422932Y-126277180D01*
X119422932Y-126277180D02*
X119375313Y-126324800D01*
X119375313Y-126324800D02*
X119280075Y-126372419D01*
X119280075Y-126372419D02*
X119137218Y-126372419D01*
X120661028Y-126372419D02*
X120661028Y-125372419D01*
X120661028Y-125372419D02*
X120899123Y-125372419D01*
X120899123Y-125372419D02*
X121041980Y-125420038D01*
X121041980Y-125420038D02*
X121137218Y-125515276D01*
X121137218Y-125515276D02*
X121184837Y-125610514D01*
X121184837Y-125610514D02*
X121232456Y-125800990D01*
X121232456Y-125800990D02*
X121232456Y-125943847D01*
X121232456Y-125943847D02*
X121184837Y-126134323D01*
X121184837Y-126134323D02*
X121137218Y-126229561D01*
X121137218Y-126229561D02*
X121041980Y-126324800D01*
X121041980Y-126324800D02*
X120899123Y-126372419D01*
X120899123Y-126372419D02*
X120661028Y-126372419D01*
X122232456Y-126277180D02*
X122184837Y-126324800D01*
X122184837Y-126324800D02*
X122041980Y-126372419D01*
X122041980Y-126372419D02*
X121946742Y-126372419D01*
X121946742Y-126372419D02*
X121803885Y-126324800D01*
X121803885Y-126324800D02*
X121708647Y-126229561D01*
X121708647Y-126229561D02*
X121661028Y-126134323D01*
X121661028Y-126134323D02*
X121613409Y-125943847D01*
X121613409Y-125943847D02*
X121613409Y-125800990D01*
X121613409Y-125800990D02*
X121661028Y-125610514D01*
X121661028Y-125610514D02*
X121708647Y-125515276D01*
X121708647Y-125515276D02*
X121803885Y-125420038D01*
X121803885Y-125420038D02*
X121946742Y-125372419D01*
X121946742Y-125372419D02*
X122041980Y-125372419D01*
X122041980Y-125372419D02*
X122184837Y-125420038D01*
X122184837Y-125420038D02*
X122232456Y-125467657D01*
X123851504Y-126324800D02*
X123756266Y-126372419D01*
X123756266Y-126372419D02*
X123565790Y-126372419D01*
X123565790Y-126372419D02*
X123470552Y-126324800D01*
X123470552Y-126324800D02*
X123422933Y-126277180D01*
X123422933Y-126277180D02*
X123375314Y-126181942D01*
X123375314Y-126181942D02*
X123375314Y-125896228D01*
X123375314Y-125896228D02*
X123422933Y-125800990D01*
X123422933Y-125800990D02*
X123470552Y-125753371D01*
X123470552Y-125753371D02*
X123565790Y-125705752D01*
X123565790Y-125705752D02*
X123756266Y-125705752D01*
X123756266Y-125705752D02*
X123851504Y-125753371D01*
X124422933Y-126372419D02*
X124327695Y-126324800D01*
X124327695Y-126324800D02*
X124280076Y-126277180D01*
X124280076Y-126277180D02*
X124232457Y-126181942D01*
X124232457Y-126181942D02*
X124232457Y-125896228D01*
X124232457Y-125896228D02*
X124280076Y-125800990D01*
X124280076Y-125800990D02*
X124327695Y-125753371D01*
X124327695Y-125753371D02*
X124422933Y-125705752D01*
X124422933Y-125705752D02*
X124565790Y-125705752D01*
X124565790Y-125705752D02*
X124661028Y-125753371D01*
X124661028Y-125753371D02*
X124708647Y-125800990D01*
X124708647Y-125800990D02*
X124756266Y-125896228D01*
X124756266Y-125896228D02*
X124756266Y-126181942D01*
X124756266Y-126181942D02*
X124708647Y-126277180D01*
X124708647Y-126277180D02*
X124661028Y-126324800D01*
X124661028Y-126324800D02*
X124565790Y-126372419D01*
X124565790Y-126372419D02*
X124422933Y-126372419D01*
X125184838Y-125705752D02*
X125184838Y-126372419D01*
X125184838Y-125800990D02*
X125232457Y-125753371D01*
X125232457Y-125753371D02*
X125327695Y-125705752D01*
X125327695Y-125705752D02*
X125470552Y-125705752D01*
X125470552Y-125705752D02*
X125565790Y-125753371D01*
X125565790Y-125753371D02*
X125613409Y-125848609D01*
X125613409Y-125848609D02*
X125613409Y-126372419D01*
X125994362Y-125705752D02*
X126232457Y-126372419D01*
X126232457Y-126372419D02*
X126470552Y-125705752D01*
X127232457Y-126324800D02*
X127137219Y-126372419D01*
X127137219Y-126372419D02*
X126946743Y-126372419D01*
X126946743Y-126372419D02*
X126851505Y-126324800D01*
X126851505Y-126324800D02*
X126803886Y-126229561D01*
X126803886Y-126229561D02*
X126803886Y-125848609D01*
X126803886Y-125848609D02*
X126851505Y-125753371D01*
X126851505Y-125753371D02*
X126946743Y-125705752D01*
X126946743Y-125705752D02*
X127137219Y-125705752D01*
X127137219Y-125705752D02*
X127232457Y-125753371D01*
X127232457Y-125753371D02*
X127280076Y-125848609D01*
X127280076Y-125848609D02*
X127280076Y-125943847D01*
X127280076Y-125943847D02*
X126803886Y-126039085D01*
X127708648Y-126372419D02*
X127708648Y-125705752D01*
X127708648Y-125896228D02*
X127756267Y-125800990D01*
X127756267Y-125800990D02*
X127803886Y-125753371D01*
X127803886Y-125753371D02*
X127899124Y-125705752D01*
X127899124Y-125705752D02*
X127994362Y-125705752D01*
X128184839Y-125705752D02*
X128565791Y-125705752D01*
X128327696Y-125372419D02*
X128327696Y-126229561D01*
X128327696Y-126229561D02*
X128375315Y-126324800D01*
X128375315Y-126324800D02*
X128470553Y-126372419D01*
X128470553Y-126372419D02*
X128565791Y-126372419D01*
X129280077Y-126324800D02*
X129184839Y-126372419D01*
X129184839Y-126372419D02*
X128994363Y-126372419D01*
X128994363Y-126372419D02*
X128899125Y-126324800D01*
X128899125Y-126324800D02*
X128851506Y-126229561D01*
X128851506Y-126229561D02*
X128851506Y-125848609D01*
X128851506Y-125848609D02*
X128899125Y-125753371D01*
X128899125Y-125753371D02*
X128994363Y-125705752D01*
X128994363Y-125705752D02*
X129184839Y-125705752D01*
X129184839Y-125705752D02*
X129280077Y-125753371D01*
X129280077Y-125753371D02*
X129327696Y-125848609D01*
X129327696Y-125848609D02*
X129327696Y-125943847D01*
X129327696Y-125943847D02*
X128851506Y-126039085D01*
X129756268Y-126372419D02*
X129756268Y-125705752D01*
X129756268Y-125896228D02*
X129803887Y-125800990D01*
X129803887Y-125800990D02*
X129851506Y-125753371D01*
X129851506Y-125753371D02*
X129946744Y-125705752D01*
X129946744Y-125705752D02*
X130041982Y-125705752D01*
D11*
X88802319Y-108833333D02*
X89516604Y-108833333D01*
X89516604Y-108833333D02*
X89659461Y-108880952D01*
X89659461Y-108880952D02*
X89754700Y-108976190D01*
X89754700Y-108976190D02*
X89802319Y-109119047D01*
X89802319Y-109119047D02*
X89802319Y-109214285D01*
X89802319Y-107833333D02*
X89802319Y-108404761D01*
X89802319Y-108119047D02*
X88802319Y-108119047D01*
X88802319Y-108119047D02*
X88945176Y-108214285D01*
X88945176Y-108214285D02*
X89040414Y-108309523D01*
X89040414Y-108309523D02*
X89088033Y-108404761D01*
X123333333Y-97454819D02*
X123000000Y-96978628D01*
X122761905Y-97454819D02*
X122761905Y-96454819D01*
X122761905Y-96454819D02*
X123142857Y-96454819D01*
X123142857Y-96454819D02*
X123238095Y-96502438D01*
X123238095Y-96502438D02*
X123285714Y-96550057D01*
X123285714Y-96550057D02*
X123333333Y-96645295D01*
X123333333Y-96645295D02*
X123333333Y-96788152D01*
X123333333Y-96788152D02*
X123285714Y-96883390D01*
X123285714Y-96883390D02*
X123238095Y-96931009D01*
X123238095Y-96931009D02*
X123142857Y-96978628D01*
X123142857Y-96978628D02*
X122761905Y-96978628D01*
X124285714Y-97454819D02*
X123714286Y-97454819D01*
X124000000Y-97454819D02*
X124000000Y-96454819D01*
X124000000Y-96454819D02*
X123904762Y-96597676D01*
X123904762Y-96597676D02*
X123809524Y-96692914D01*
X123809524Y-96692914D02*
X123714286Y-96740533D01*
X123333333Y-104454819D02*
X123000000Y-103978628D01*
X122761905Y-104454819D02*
X122761905Y-103454819D01*
X122761905Y-103454819D02*
X123142857Y-103454819D01*
X123142857Y-103454819D02*
X123238095Y-103502438D01*
X123238095Y-103502438D02*
X123285714Y-103550057D01*
X123285714Y-103550057D02*
X123333333Y-103645295D01*
X123333333Y-103645295D02*
X123333333Y-103788152D01*
X123333333Y-103788152D02*
X123285714Y-103883390D01*
X123285714Y-103883390D02*
X123238095Y-103931009D01*
X123238095Y-103931009D02*
X123142857Y-103978628D01*
X123142857Y-103978628D02*
X122761905Y-103978628D01*
X123714286Y-103550057D02*
X123761905Y-103502438D01*
X123761905Y-103502438D02*
X123857143Y-103454819D01*
X123857143Y-103454819D02*
X124095238Y-103454819D01*
X124095238Y-103454819D02*
X124190476Y-103502438D01*
X124190476Y-103502438D02*
X124238095Y-103550057D01*
X124238095Y-103550057D02*
X124285714Y-103645295D01*
X124285714Y-103645295D02*
X124285714Y-103740533D01*
X124285714Y-103740533D02*
X124238095Y-103883390D01*
X124238095Y-103883390D02*
X123666667Y-104454819D01*
X123666667Y-104454819D02*
X124285714Y-104454819D01*
X125745531Y-107564580D02*
X125697912Y-107612200D01*
X125697912Y-107612200D02*
X125555055Y-107659819D01*
X125555055Y-107659819D02*
X125459817Y-107659819D01*
X125459817Y-107659819D02*
X125316960Y-107612200D01*
X125316960Y-107612200D02*
X125221722Y-107516961D01*
X125221722Y-107516961D02*
X125174103Y-107421723D01*
X125174103Y-107421723D02*
X125126484Y-107231247D01*
X125126484Y-107231247D02*
X125126484Y-107088390D01*
X125126484Y-107088390D02*
X125174103Y-106897914D01*
X125174103Y-106897914D02*
X125221722Y-106802676D01*
X125221722Y-106802676D02*
X125316960Y-106707438D01*
X125316960Y-106707438D02*
X125459817Y-106659819D01*
X125459817Y-106659819D02*
X125555055Y-106659819D01*
X125555055Y-106659819D02*
X125697912Y-106707438D01*
X125697912Y-106707438D02*
X125745531Y-106755057D01*
X126697912Y-107659819D02*
X126126484Y-107659819D01*
X126412198Y-107659819D02*
X126412198Y-106659819D01*
X126412198Y-106659819D02*
X126316960Y-106802676D01*
X126316960Y-106802676D02*
X126221722Y-106897914D01*
X126221722Y-106897914D02*
X126126484Y-106945533D01*
X117924819Y-117318094D02*
X116924819Y-117318094D01*
X116924819Y-117318094D02*
X116924819Y-117079999D01*
X116924819Y-117079999D02*
X116972438Y-116937142D01*
X116972438Y-116937142D02*
X117067676Y-116841904D01*
X117067676Y-116841904D02*
X117162914Y-116794285D01*
X117162914Y-116794285D02*
X117353390Y-116746666D01*
X117353390Y-116746666D02*
X117496247Y-116746666D01*
X117496247Y-116746666D02*
X117686723Y-116794285D01*
X117686723Y-116794285D02*
X117781961Y-116841904D01*
X117781961Y-116841904D02*
X117877200Y-116937142D01*
X117877200Y-116937142D02*
X117924819Y-117079999D01*
X117924819Y-117079999D02*
X117924819Y-117318094D01*
X117258152Y-115889523D02*
X117924819Y-115889523D01*
X116877200Y-116127618D02*
X117591485Y-116365713D01*
X117591485Y-116365713D02*
X117591485Y-115746666D01*
X117554819Y-111761904D02*
X116554819Y-111761904D01*
X117554819Y-111190476D02*
X116983390Y-111619047D01*
X116554819Y-111190476D02*
X117126247Y-111761904D01*
X110924819Y-117238094D02*
X109924819Y-117238094D01*
X109924819Y-117238094D02*
X109924819Y-116999999D01*
X109924819Y-116999999D02*
X109972438Y-116857142D01*
X109972438Y-116857142D02*
X110067676Y-116761904D01*
X110067676Y-116761904D02*
X110162914Y-116714285D01*
X110162914Y-116714285D02*
X110353390Y-116666666D01*
X110353390Y-116666666D02*
X110496247Y-116666666D01*
X110496247Y-116666666D02*
X110686723Y-116714285D01*
X110686723Y-116714285D02*
X110781961Y-116761904D01*
X110781961Y-116761904D02*
X110877200Y-116857142D01*
X110877200Y-116857142D02*
X110924819Y-116999999D01*
X110924819Y-116999999D02*
X110924819Y-117238094D01*
X110020057Y-116285713D02*
X109972438Y-116238094D01*
X109972438Y-116238094D02*
X109924819Y-116142856D01*
X109924819Y-116142856D02*
X109924819Y-115904761D01*
X109924819Y-115904761D02*
X109972438Y-115809523D01*
X109972438Y-115809523D02*
X110020057Y-115761904D01*
X110020057Y-115761904D02*
X110115295Y-115714285D01*
X110115295Y-115714285D02*
X110210533Y-115714285D01*
X110210533Y-115714285D02*
X110353390Y-115761904D01*
X110353390Y-115761904D02*
X110924819Y-116333332D01*
X110924819Y-116333332D02*
X110924819Y-115714285D01*
X110554819Y-111681904D02*
X109554819Y-111681904D01*
X110554819Y-111110476D02*
X109983390Y-111539047D01*
X109554819Y-111110476D02*
X110126247Y-111681904D01*
X110924819Y-101818094D02*
X109924819Y-101818094D01*
X109924819Y-101818094D02*
X109924819Y-101579999D01*
X109924819Y-101579999D02*
X109972438Y-101437142D01*
X109972438Y-101437142D02*
X110067676Y-101341904D01*
X110067676Y-101341904D02*
X110162914Y-101294285D01*
X110162914Y-101294285D02*
X110353390Y-101246666D01*
X110353390Y-101246666D02*
X110496247Y-101246666D01*
X110496247Y-101246666D02*
X110686723Y-101294285D01*
X110686723Y-101294285D02*
X110781961Y-101341904D01*
X110781961Y-101341904D02*
X110877200Y-101437142D01*
X110877200Y-101437142D02*
X110924819Y-101579999D01*
X110924819Y-101579999D02*
X110924819Y-101818094D01*
X110924819Y-100294285D02*
X110924819Y-100865713D01*
X110924819Y-100579999D02*
X109924819Y-100579999D01*
X109924819Y-100579999D02*
X110067676Y-100675237D01*
X110067676Y-100675237D02*
X110162914Y-100770475D01*
X110162914Y-100770475D02*
X110210533Y-100865713D01*
X110554819Y-96261904D02*
X109554819Y-96261904D01*
X110554819Y-95690476D02*
X109983390Y-96119047D01*
X109554819Y-95690476D02*
X110126247Y-96261904D01*
X117924819Y-101738094D02*
X116924819Y-101738094D01*
X116924819Y-101738094D02*
X116924819Y-101499999D01*
X116924819Y-101499999D02*
X116972438Y-101357142D01*
X116972438Y-101357142D02*
X117067676Y-101261904D01*
X117067676Y-101261904D02*
X117162914Y-101214285D01*
X117162914Y-101214285D02*
X117353390Y-101166666D01*
X117353390Y-101166666D02*
X117496247Y-101166666D01*
X117496247Y-101166666D02*
X117686723Y-101214285D01*
X117686723Y-101214285D02*
X117781961Y-101261904D01*
X117781961Y-101261904D02*
X117877200Y-101357142D01*
X117877200Y-101357142D02*
X117924819Y-101499999D01*
X117924819Y-101499999D02*
X117924819Y-101738094D01*
X116924819Y-100833332D02*
X116924819Y-100214285D01*
X116924819Y-100214285D02*
X117305771Y-100547618D01*
X117305771Y-100547618D02*
X117305771Y-100404761D01*
X117305771Y-100404761D02*
X117353390Y-100309523D01*
X117353390Y-100309523D02*
X117401009Y-100261904D01*
X117401009Y-100261904D02*
X117496247Y-100214285D01*
X117496247Y-100214285D02*
X117734342Y-100214285D01*
X117734342Y-100214285D02*
X117829580Y-100261904D01*
X117829580Y-100261904D02*
X117877200Y-100309523D01*
X117877200Y-100309523D02*
X117924819Y-100404761D01*
X117924819Y-100404761D02*
X117924819Y-100690475D01*
X117924819Y-100690475D02*
X117877200Y-100785713D01*
X117877200Y-100785713D02*
X117829580Y-100833332D01*
X117554819Y-96181904D02*
X116554819Y-96181904D01*
X117554819Y-95610476D02*
X116983390Y-96039047D01*
X116554819Y-95610476D02*
X117126247Y-96181904D01*
X143334819Y-108583333D02*
X144049104Y-108583333D01*
X144049104Y-108583333D02*
X144191961Y-108630952D01*
X144191961Y-108630952D02*
X144287200Y-108726190D01*
X144287200Y-108726190D02*
X144334819Y-108869047D01*
X144334819Y-108869047D02*
X144334819Y-108964285D01*
X143430057Y-108154761D02*
X143382438Y-108107142D01*
X143382438Y-108107142D02*
X143334819Y-108011904D01*
X143334819Y-108011904D02*
X143334819Y-107773809D01*
X143334819Y-107773809D02*
X143382438Y-107678571D01*
X143382438Y-107678571D02*
X143430057Y-107630952D01*
X143430057Y-107630952D02*
X143525295Y-107583333D01*
X143525295Y-107583333D02*
X143620533Y-107583333D01*
X143620533Y-107583333D02*
X143763390Y-107630952D01*
X143763390Y-107630952D02*
X144334819Y-108202380D01*
X144334819Y-108202380D02*
X144334819Y-107583333D01*
X134509405Y-101609819D02*
X134509405Y-100609819D01*
X134509405Y-100609819D02*
X134747500Y-100609819D01*
X134747500Y-100609819D02*
X134890357Y-100657438D01*
X134890357Y-100657438D02*
X134985595Y-100752676D01*
X134985595Y-100752676D02*
X135033214Y-100847914D01*
X135033214Y-100847914D02*
X135080833Y-101038390D01*
X135080833Y-101038390D02*
X135080833Y-101181247D01*
X135080833Y-101181247D02*
X135033214Y-101371723D01*
X135033214Y-101371723D02*
X134985595Y-101466961D01*
X134985595Y-101466961D02*
X134890357Y-101562200D01*
X134890357Y-101562200D02*
X134747500Y-101609819D01*
X134747500Y-101609819D02*
X134509405Y-101609819D01*
X135985595Y-100609819D02*
X135509405Y-100609819D01*
X135509405Y-100609819D02*
X135461786Y-101086009D01*
X135461786Y-101086009D02*
X135509405Y-101038390D01*
X135509405Y-101038390D02*
X135604643Y-100990771D01*
X135604643Y-100990771D02*
X135842738Y-100990771D01*
X135842738Y-100990771D02*
X135937976Y-101038390D01*
X135937976Y-101038390D02*
X135985595Y-101086009D01*
X135985595Y-101086009D02*
X136033214Y-101181247D01*
X136033214Y-101181247D02*
X136033214Y-101419342D01*
X136033214Y-101419342D02*
X135985595Y-101514580D01*
X135985595Y-101514580D02*
X135937976Y-101562200D01*
X135937976Y-101562200D02*
X135842738Y-101609819D01*
X135842738Y-101609819D02*
X135604643Y-101609819D01*
X135604643Y-101609819D02*
X135509405Y-101562200D01*
X135509405Y-101562200D02*
X135461786Y-101514580D01*
D12*
%TO.C,REF\u002A\u002A*%
X144688614Y-96275877D02*
X144712327Y-96290647D01*
X144738978Y-96312227D01*
X144738978Y-96633773D01*
X144738893Y-96727830D01*
X144738529Y-96801932D01*
X144737724Y-96858704D01*
X144736313Y-96900768D01*
X144734133Y-96930748D01*
X144731021Y-96951267D01*
X144726814Y-96964949D01*
X144721348Y-96974416D01*
X144717472Y-96979082D01*
X144686034Y-96999575D01*
X144650233Y-96998739D01*
X144618873Y-96981264D01*
X144592222Y-96959684D01*
X144592222Y-96312227D01*
X144618873Y-96290647D01*
X144644594Y-96274949D01*
X144665600Y-96269067D01*
X144688614Y-96275877D01*
G36*
X144688614Y-96275877D02*
G01*
X144712327Y-96290647D01*
X144738978Y-96312227D01*
X144738978Y-96633773D01*
X144738893Y-96727830D01*
X144738529Y-96801932D01*
X144737724Y-96858704D01*
X144736313Y-96900768D01*
X144734133Y-96930748D01*
X144731021Y-96951267D01*
X144726814Y-96964949D01*
X144721348Y-96974416D01*
X144717472Y-96979082D01*
X144686034Y-96999575D01*
X144650233Y-96998739D01*
X144618873Y-96981264D01*
X144592222Y-96959684D01*
X144592222Y-96312227D01*
X144618873Y-96290647D01*
X144644594Y-96274949D01*
X144665600Y-96269067D01*
X144688614Y-96275877D01*
G37*
X137576178Y-96291645D02*
X137582758Y-96299218D01*
X137587921Y-96308987D01*
X137591836Y-96323571D01*
X137594676Y-96345585D01*
X137596613Y-96377648D01*
X137597817Y-96422375D01*
X137598461Y-96482385D01*
X137598716Y-96560294D01*
X137598755Y-96635956D01*
X137598686Y-96729802D01*
X137598362Y-96803689D01*
X137597614Y-96860232D01*
X137596268Y-96902049D01*
X137594154Y-96931757D01*
X137591100Y-96951973D01*
X137586934Y-96965314D01*
X137581484Y-96974398D01*
X137576178Y-96980267D01*
X137543174Y-96999947D01*
X137508009Y-96998181D01*
X137476545Y-96976717D01*
X137469316Y-96968337D01*
X137463666Y-96958614D01*
X137459401Y-96944861D01*
X137456327Y-96924389D01*
X137454248Y-96894512D01*
X137452970Y-96852541D01*
X137452299Y-96795789D01*
X137452041Y-96721567D01*
X137452000Y-96637537D01*
X137452000Y-96324485D01*
X137479709Y-96296776D01*
X137513863Y-96273463D01*
X137546994Y-96272623D01*
X137576178Y-96291645D01*
G36*
X137576178Y-96291645D02*
G01*
X137582758Y-96299218D01*
X137587921Y-96308987D01*
X137591836Y-96323571D01*
X137594676Y-96345585D01*
X137596613Y-96377648D01*
X137597817Y-96422375D01*
X137598461Y-96482385D01*
X137598716Y-96560294D01*
X137598755Y-96635956D01*
X137598686Y-96729802D01*
X137598362Y-96803689D01*
X137597614Y-96860232D01*
X137596268Y-96902049D01*
X137594154Y-96931757D01*
X137591100Y-96951973D01*
X137586934Y-96965314D01*
X137581484Y-96974398D01*
X137576178Y-96980267D01*
X137543174Y-96999947D01*
X137508009Y-96998181D01*
X137476545Y-96976717D01*
X137469316Y-96968337D01*
X137463666Y-96958614D01*
X137459401Y-96944861D01*
X137456327Y-96924389D01*
X137454248Y-96894512D01*
X137452970Y-96852541D01*
X137452299Y-96795789D01*
X137452041Y-96721567D01*
X137452000Y-96637537D01*
X137452000Y-96324485D01*
X137479709Y-96296776D01*
X137513863Y-96273463D01*
X137546994Y-96272623D01*
X137576178Y-96291645D01*
G37*
X138226957Y-91026571D02*
X138323232Y-91050809D01*
X138409816Y-91093641D01*
X138484627Y-91153419D01*
X138545582Y-91228494D01*
X138590601Y-91317220D01*
X138616864Y-91413530D01*
X138622714Y-91510795D01*
X138607860Y-91604654D01*
X138574160Y-91692511D01*
X138523472Y-91771770D01*
X138457655Y-91839836D01*
X138378566Y-91894112D01*
X138288066Y-91932002D01*
X138236800Y-91944426D01*
X138192302Y-91951947D01*
X138158001Y-91954919D01*
X138125040Y-91953094D01*
X138084566Y-91946225D01*
X138051469Y-91939250D01*
X137958053Y-91907741D01*
X137874381Y-91856617D01*
X137802335Y-91787429D01*
X137743800Y-91701728D01*
X137729852Y-91674489D01*
X137713414Y-91638122D01*
X137703106Y-91607582D01*
X137697540Y-91575450D01*
X137695331Y-91534307D01*
X137695052Y-91488222D01*
X137699139Y-91403865D01*
X137712554Y-91334586D01*
X137737744Y-91273961D01*
X137777154Y-91215567D01*
X137815702Y-91171302D01*
X137887594Y-91105484D01*
X137962687Y-91060053D01*
X138045438Y-91032850D01*
X138123072Y-91022576D01*
X138226957Y-91026571D01*
G36*
X138226957Y-91026571D02*
G01*
X138323232Y-91050809D01*
X138409816Y-91093641D01*
X138484627Y-91153419D01*
X138545582Y-91228494D01*
X138590601Y-91317220D01*
X138616864Y-91413530D01*
X138622714Y-91510795D01*
X138607860Y-91604654D01*
X138574160Y-91692511D01*
X138523472Y-91771770D01*
X138457655Y-91839836D01*
X138378566Y-91894112D01*
X138288066Y-91932002D01*
X138236800Y-91944426D01*
X138192302Y-91951947D01*
X138158001Y-91954919D01*
X138125040Y-91953094D01*
X138084566Y-91946225D01*
X138051469Y-91939250D01*
X137958053Y-91907741D01*
X137874381Y-91856617D01*
X137802335Y-91787429D01*
X137743800Y-91701728D01*
X137729852Y-91674489D01*
X137713414Y-91638122D01*
X137703106Y-91607582D01*
X137697540Y-91575450D01*
X137695331Y-91534307D01*
X137695052Y-91488222D01*
X137699139Y-91403865D01*
X137712554Y-91334586D01*
X137737744Y-91273961D01*
X137777154Y-91215567D01*
X137815702Y-91171302D01*
X137887594Y-91105484D01*
X137962687Y-91060053D01*
X138045438Y-91032850D01*
X138123072Y-91022576D01*
X138226957Y-91026571D01*
G37*
X145463065Y-96269163D02*
X145541772Y-96269542D01*
X145602863Y-96270333D01*
X145648817Y-96271670D01*
X145682114Y-96273683D01*
X145705236Y-96276506D01*
X145720662Y-96280269D01*
X145730871Y-96285105D01*
X145735813Y-96288822D01*
X145761457Y-96321358D01*
X145764559Y-96355138D01*
X145748711Y-96385826D01*
X145738348Y-96398089D01*
X145727196Y-96406450D01*
X145711035Y-96411657D01*
X145685642Y-96414457D01*
X145646798Y-96415596D01*
X145590280Y-96415821D01*
X145579180Y-96415822D01*
X145433244Y-96415822D01*
X145433244Y-96686756D01*
X145433148Y-96772154D01*
X145432711Y-96837864D01*
X145431712Y-96886774D01*
X145429928Y-96921773D01*
X145427137Y-96945749D01*
X145423117Y-96961593D01*
X145417645Y-96972191D01*
X145410666Y-96980267D01*
X145377734Y-97000112D01*
X145343354Y-96998548D01*
X145312176Y-96975906D01*
X145309886Y-96973100D01*
X145302429Y-96962492D01*
X145296747Y-96950081D01*
X145292601Y-96932850D01*
X145289750Y-96907784D01*
X145287954Y-96871867D01*
X145286972Y-96822083D01*
X145286564Y-96755417D01*
X145286489Y-96679589D01*
X145286489Y-96415822D01*
X145147127Y-96415822D01*
X145087322Y-96415418D01*
X145045918Y-96413840D01*
X145018748Y-96410547D01*
X145001646Y-96404992D01*
X144990443Y-96396631D01*
X144989083Y-96395178D01*
X144972725Y-96361939D01*
X144974172Y-96324362D01*
X144992978Y-96291645D01*
X145000250Y-96285298D01*
X145009627Y-96280266D01*
X145023609Y-96276396D01*
X145044696Y-96273537D01*
X145075389Y-96271535D01*
X145118189Y-96270239D01*
X145175595Y-96269498D01*
X145250110Y-96269158D01*
X145344233Y-96269068D01*
X145364260Y-96269067D01*
X145463065Y-96269163D01*
G36*
X145463065Y-96269163D02*
G01*
X145541772Y-96269542D01*
X145602863Y-96270333D01*
X145648817Y-96271670D01*
X145682114Y-96273683D01*
X145705236Y-96276506D01*
X145720662Y-96280269D01*
X145730871Y-96285105D01*
X145735813Y-96288822D01*
X145761457Y-96321358D01*
X145764559Y-96355138D01*
X145748711Y-96385826D01*
X145738348Y-96398089D01*
X145727196Y-96406450D01*
X145711035Y-96411657D01*
X145685642Y-96414457D01*
X145646798Y-96415596D01*
X145590280Y-96415821D01*
X145579180Y-96415822D01*
X145433244Y-96415822D01*
X145433244Y-96686756D01*
X145433148Y-96772154D01*
X145432711Y-96837864D01*
X145431712Y-96886774D01*
X145429928Y-96921773D01*
X145427137Y-96945749D01*
X145423117Y-96961593D01*
X145417645Y-96972191D01*
X145410666Y-96980267D01*
X145377734Y-97000112D01*
X145343354Y-96998548D01*
X145312176Y-96975906D01*
X145309886Y-96973100D01*
X145302429Y-96962492D01*
X145296747Y-96950081D01*
X145292601Y-96932850D01*
X145289750Y-96907784D01*
X145287954Y-96871867D01*
X145286972Y-96822083D01*
X145286564Y-96755417D01*
X145286489Y-96679589D01*
X145286489Y-96415822D01*
X145147127Y-96415822D01*
X145087322Y-96415418D01*
X145045918Y-96413840D01*
X145018748Y-96410547D01*
X145001646Y-96404992D01*
X144990443Y-96396631D01*
X144989083Y-96395178D01*
X144972725Y-96361939D01*
X144974172Y-96324362D01*
X144992978Y-96291645D01*
X145000250Y-96285298D01*
X145009627Y-96280266D01*
X145023609Y-96276396D01*
X145044696Y-96273537D01*
X145075389Y-96271535D01*
X145118189Y-96270239D01*
X145175595Y-96269498D01*
X145250110Y-96269158D01*
X145344233Y-96269068D01*
X145364260Y-96269067D01*
X145463065Y-96269163D01*
G37*
X146728823Y-96274533D02*
X146760202Y-96296776D01*
X146787911Y-96324485D01*
X146787911Y-96633920D01*
X146787838Y-96725799D01*
X146787495Y-96797840D01*
X146786692Y-96852780D01*
X146785241Y-96893360D01*
X146782952Y-96922317D01*
X146779636Y-96942391D01*
X146775105Y-96956321D01*
X146769169Y-96966845D01*
X146764514Y-96973100D01*
X146733783Y-96997673D01*
X146698496Y-97000341D01*
X146666245Y-96985271D01*
X146655588Y-96976374D01*
X146648464Y-96964557D01*
X146644167Y-96945526D01*
X146641991Y-96914992D01*
X146641228Y-96868662D01*
X146641155Y-96832871D01*
X146641155Y-96698045D01*
X146144444Y-96698045D01*
X146144444Y-96820700D01*
X146143931Y-96876787D01*
X146141876Y-96915333D01*
X146137508Y-96941361D01*
X146130056Y-96959897D01*
X146121047Y-96973100D01*
X146090144Y-96997604D01*
X146055196Y-97000506D01*
X146021738Y-96983089D01*
X146012604Y-96973959D01*
X146006152Y-96961855D01*
X146001897Y-96943001D01*
X145999352Y-96913620D01*
X145998029Y-96869937D01*
X145997443Y-96808175D01*
X145997375Y-96794000D01*
X145996891Y-96677631D01*
X145996641Y-96581727D01*
X145996723Y-96504177D01*
X145997231Y-96442869D01*
X145998262Y-96395690D01*
X145999913Y-96360530D01*
X146002279Y-96335276D01*
X146005457Y-96317817D01*
X146009544Y-96306041D01*
X146014634Y-96297835D01*
X146020266Y-96291645D01*
X146052128Y-96271844D01*
X146085357Y-96274533D01*
X146116735Y-96296776D01*
X146129433Y-96311126D01*
X146137526Y-96326978D01*
X146142042Y-96349554D01*
X146144006Y-96384078D01*
X146144444Y-96435776D01*
X146144444Y-96551289D01*
X146641155Y-96551289D01*
X146641155Y-96432756D01*
X146641662Y-96378148D01*
X146643698Y-96341275D01*
X146648035Y-96317307D01*
X146655447Y-96301415D01*
X146663733Y-96291645D01*
X146695594Y-96271844D01*
X146728823Y-96274533D01*
G36*
X146728823Y-96274533D02*
G01*
X146760202Y-96296776D01*
X146787911Y-96324485D01*
X146787911Y-96633920D01*
X146787838Y-96725799D01*
X146787495Y-96797840D01*
X146786692Y-96852780D01*
X146785241Y-96893360D01*
X146782952Y-96922317D01*
X146779636Y-96942391D01*
X146775105Y-96956321D01*
X146769169Y-96966845D01*
X146764514Y-96973100D01*
X146733783Y-96997673D01*
X146698496Y-97000341D01*
X146666245Y-96985271D01*
X146655588Y-96976374D01*
X146648464Y-96964557D01*
X146644167Y-96945526D01*
X146641991Y-96914992D01*
X146641228Y-96868662D01*
X146641155Y-96832871D01*
X146641155Y-96698045D01*
X146144444Y-96698045D01*
X146144444Y-96820700D01*
X146143931Y-96876787D01*
X146141876Y-96915333D01*
X146137508Y-96941361D01*
X146130056Y-96959897D01*
X146121047Y-96973100D01*
X146090144Y-96997604D01*
X146055196Y-97000506D01*
X146021738Y-96983089D01*
X146012604Y-96973959D01*
X146006152Y-96961855D01*
X146001897Y-96943001D01*
X145999352Y-96913620D01*
X145998029Y-96869937D01*
X145997443Y-96808175D01*
X145997375Y-96794000D01*
X145996891Y-96677631D01*
X145996641Y-96581727D01*
X145996723Y-96504177D01*
X145997231Y-96442869D01*
X145998262Y-96395690D01*
X145999913Y-96360530D01*
X146002279Y-96335276D01*
X146005457Y-96317817D01*
X146009544Y-96306041D01*
X146014634Y-96297835D01*
X146020266Y-96291645D01*
X146052128Y-96271844D01*
X146085357Y-96274533D01*
X146116735Y-96296776D01*
X146129433Y-96311126D01*
X146137526Y-96326978D01*
X146142042Y-96349554D01*
X146144006Y-96384078D01*
X146144444Y-96435776D01*
X146144444Y-96551289D01*
X146641155Y-96551289D01*
X146641155Y-96432756D01*
X146641662Y-96378148D01*
X146643698Y-96341275D01*
X146648035Y-96317307D01*
X146655447Y-96301415D01*
X146663733Y-96291645D01*
X146695594Y-96271844D01*
X146728823Y-96274533D01*
G37*
X141518309Y-96269275D02*
X141647288Y-96273636D01*
X141756991Y-96286861D01*
X141849226Y-96309741D01*
X141925802Y-96343070D01*
X141988527Y-96387638D01*
X142039212Y-96444236D01*
X142079663Y-96513658D01*
X142080459Y-96515351D01*
X142104601Y-96577483D01*
X142113203Y-96632509D01*
X142106231Y-96687887D01*
X142083654Y-96751073D01*
X142079372Y-96760689D01*
X142050172Y-96816966D01*
X142017356Y-96860451D01*
X141975002Y-96897417D01*
X141917190Y-96934135D01*
X141913831Y-96936052D01*
X141863504Y-96960227D01*
X141806621Y-96978282D01*
X141739527Y-96990839D01*
X141658565Y-96998522D01*
X141560082Y-97001953D01*
X141525286Y-97002251D01*
X141359594Y-97002845D01*
X141336197Y-96973100D01*
X141329257Y-96963319D01*
X141323842Y-96951897D01*
X141319765Y-96936095D01*
X141316837Y-96913175D01*
X141314867Y-96880396D01*
X141314225Y-96856089D01*
X141470844Y-96856089D01*
X141564726Y-96856089D01*
X141619664Y-96854483D01*
X141676060Y-96850255D01*
X141722345Y-96844292D01*
X141725139Y-96843790D01*
X141807348Y-96821736D01*
X141871114Y-96788600D01*
X141918452Y-96742847D01*
X141951382Y-96682939D01*
X141957108Y-96667061D01*
X141962721Y-96642333D01*
X141960291Y-96617902D01*
X141948467Y-96585400D01*
X141941340Y-96569434D01*
X141918000Y-96527006D01*
X141889880Y-96497240D01*
X141858940Y-96476511D01*
X141796966Y-96449537D01*
X141717651Y-96429998D01*
X141625253Y-96418746D01*
X141558333Y-96416270D01*
X141470844Y-96415822D01*
X141470844Y-96856089D01*
X141314225Y-96856089D01*
X141313668Y-96835021D01*
X141313050Y-96774311D01*
X141312825Y-96695526D01*
X141312800Y-96633920D01*
X141312800Y-96324485D01*
X141340509Y-96296776D01*
X141352806Y-96285544D01*
X141366103Y-96277853D01*
X141384672Y-96273040D01*
X141412786Y-96270446D01*
X141454717Y-96269410D01*
X141514737Y-96269270D01*
X141518309Y-96269275D01*
G36*
X141518309Y-96269275D02*
G01*
X141647288Y-96273636D01*
X141756991Y-96286861D01*
X141849226Y-96309741D01*
X141925802Y-96343070D01*
X141988527Y-96387638D01*
X142039212Y-96444236D01*
X142079663Y-96513658D01*
X142080459Y-96515351D01*
X142104601Y-96577483D01*
X142113203Y-96632509D01*
X142106231Y-96687887D01*
X142083654Y-96751073D01*
X142079372Y-96760689D01*
X142050172Y-96816966D01*
X142017356Y-96860451D01*
X141975002Y-96897417D01*
X141917190Y-96934135D01*
X141913831Y-96936052D01*
X141863504Y-96960227D01*
X141806621Y-96978282D01*
X141739527Y-96990839D01*
X141658565Y-96998522D01*
X141560082Y-97001953D01*
X141525286Y-97002251D01*
X141359594Y-97002845D01*
X141336197Y-96973100D01*
X141329257Y-96963319D01*
X141323842Y-96951897D01*
X141319765Y-96936095D01*
X141316837Y-96913175D01*
X141314867Y-96880396D01*
X141314225Y-96856089D01*
X141313668Y-96835021D01*
X141313050Y-96774311D01*
X141312825Y-96695526D01*
X141312800Y-96633920D01*
X141312800Y-96415822D01*
X141470844Y-96415822D01*
X141470844Y-96856089D01*
X141564726Y-96856089D01*
X141619664Y-96854483D01*
X141676060Y-96850255D01*
X141722345Y-96844292D01*
X141725139Y-96843790D01*
X141807348Y-96821736D01*
X141871114Y-96788600D01*
X141918452Y-96742847D01*
X141951382Y-96682939D01*
X141957108Y-96667061D01*
X141962721Y-96642333D01*
X141960291Y-96617902D01*
X141948467Y-96585400D01*
X141941340Y-96569434D01*
X141918000Y-96527006D01*
X141889880Y-96497240D01*
X141858940Y-96476511D01*
X141796966Y-96449537D01*
X141717651Y-96429998D01*
X141625253Y-96418746D01*
X141558333Y-96416270D01*
X141470844Y-96415822D01*
X141312800Y-96415822D01*
X141312800Y-96324485D01*
X141340509Y-96296776D01*
X141352806Y-96285544D01*
X141366103Y-96277853D01*
X141384672Y-96273040D01*
X141412786Y-96270446D01*
X141454717Y-96269410D01*
X141514737Y-96269270D01*
X141518309Y-96269275D01*
G37*
X134378629Y-96269066D02*
X134418111Y-96269467D01*
X134533800Y-96272259D01*
X134630689Y-96280550D01*
X134712081Y-96295232D01*
X134781277Y-96317193D01*
X134841580Y-96347322D01*
X134896292Y-96386510D01*
X134915833Y-96403532D01*
X134948250Y-96443363D01*
X134977480Y-96497413D01*
X135000009Y-96557323D01*
X135012321Y-96614739D01*
X135013600Y-96635956D01*
X135005583Y-96694769D01*
X134984101Y-96759013D01*
X134953001Y-96819821D01*
X134916134Y-96868330D01*
X134910146Y-96874182D01*
X134859421Y-96915321D01*
X134803875Y-96947435D01*
X134740304Y-96971365D01*
X134665506Y-96987953D01*
X134576278Y-96998041D01*
X134469418Y-97002469D01*
X134420472Y-97002845D01*
X134358238Y-97002545D01*
X134314472Y-97001292D01*
X134285069Y-96998554D01*
X134265921Y-96993801D01*
X134252923Y-96986501D01*
X134245955Y-96980267D01*
X134239374Y-96972694D01*
X134234212Y-96962924D01*
X134230297Y-96948340D01*
X134227457Y-96926326D01*
X134225520Y-96894264D01*
X134224316Y-96849536D01*
X134223672Y-96789526D01*
X134223417Y-96711617D01*
X134223378Y-96635956D01*
X134223130Y-96535041D01*
X134223183Y-96454427D01*
X134224143Y-96415822D01*
X134370133Y-96415822D01*
X134370133Y-96856089D01*
X134463266Y-96856004D01*
X134519307Y-96854396D01*
X134578001Y-96850256D01*
X134626972Y-96844464D01*
X134628462Y-96844226D01*
X134707608Y-96825090D01*
X134768998Y-96795287D01*
X134815695Y-96752878D01*
X134845365Y-96706961D01*
X134863647Y-96656026D01*
X134862229Y-96608200D01*
X134841012Y-96556933D01*
X134799511Y-96503899D01*
X134742002Y-96464600D01*
X134667250Y-96438331D01*
X134617292Y-96429035D01*
X134560584Y-96422507D01*
X134500481Y-96417782D01*
X134449361Y-96415817D01*
X134446333Y-96415808D01*
X134370133Y-96415822D01*
X134224143Y-96415822D01*
X134224740Y-96391851D01*
X134229002Y-96345055D01*
X134237170Y-96311778D01*
X134250444Y-96289759D01*
X134270026Y-96276739D01*
X134297117Y-96270457D01*
X134332918Y-96268653D01*
X134378629Y-96269066D01*
G36*
X134378629Y-96269066D02*
G01*
X134418111Y-96269467D01*
X134533800Y-96272259D01*
X134630689Y-96280550D01*
X134712081Y-96295232D01*
X134781277Y-96317193D01*
X134841580Y-96347322D01*
X134896292Y-96386510D01*
X134915833Y-96403532D01*
X134948250Y-96443363D01*
X134977480Y-96497413D01*
X135000009Y-96557323D01*
X135012321Y-96614739D01*
X135013600Y-96635956D01*
X135005583Y-96694769D01*
X134984101Y-96759013D01*
X134953001Y-96819821D01*
X134916134Y-96868330D01*
X134910146Y-96874182D01*
X134859421Y-96915321D01*
X134803875Y-96947435D01*
X134740304Y-96971365D01*
X134665506Y-96987953D01*
X134576278Y-96998041D01*
X134469418Y-97002469D01*
X134420472Y-97002845D01*
X134358238Y-97002545D01*
X134314472Y-97001292D01*
X134285069Y-96998554D01*
X134265921Y-96993801D01*
X134252923Y-96986501D01*
X134245955Y-96980267D01*
X134239374Y-96972694D01*
X134234212Y-96962924D01*
X134230297Y-96948340D01*
X134227457Y-96926326D01*
X134225520Y-96894264D01*
X134224492Y-96856089D01*
X134370133Y-96856089D01*
X134463266Y-96856004D01*
X134519307Y-96854396D01*
X134578001Y-96850256D01*
X134626972Y-96844464D01*
X134628462Y-96844226D01*
X134707608Y-96825090D01*
X134768998Y-96795287D01*
X134815695Y-96752878D01*
X134845365Y-96706961D01*
X134863647Y-96656026D01*
X134862229Y-96608200D01*
X134841012Y-96556933D01*
X134799511Y-96503899D01*
X134742002Y-96464600D01*
X134667250Y-96438331D01*
X134617292Y-96429035D01*
X134560584Y-96422507D01*
X134500481Y-96417782D01*
X134449361Y-96415817D01*
X134446333Y-96415808D01*
X134370133Y-96415822D01*
X134370133Y-96856089D01*
X134224492Y-96856089D01*
X134224316Y-96849536D01*
X134223672Y-96789526D01*
X134223417Y-96711617D01*
X134223378Y-96635956D01*
X134223130Y-96535041D01*
X134223183Y-96454427D01*
X134224143Y-96415822D01*
X134224740Y-96391851D01*
X134229002Y-96345055D01*
X134237170Y-96311778D01*
X134250444Y-96289759D01*
X134270026Y-96276739D01*
X134297117Y-96270457D01*
X134332918Y-96268653D01*
X134378629Y-96269066D01*
G37*
X139199886Y-96273448D02*
X139223452Y-96287273D01*
X139254265Y-96309881D01*
X139293922Y-96342338D01*
X139344020Y-96385708D01*
X139406157Y-96441058D01*
X139481928Y-96509451D01*
X139568666Y-96588084D01*
X139749289Y-96751878D01*
X139754933Y-96532029D01*
X139756971Y-96456351D01*
X139758937Y-96399994D01*
X139761266Y-96359706D01*
X139764394Y-96332235D01*
X139768755Y-96314329D01*
X139774784Y-96302737D01*
X139782916Y-96294208D01*
X139787228Y-96290623D01*
X139821759Y-96271670D01*
X139854617Y-96274441D01*
X139880682Y-96290633D01*
X139907333Y-96312199D01*
X139910648Y-96627151D01*
X139911565Y-96719779D01*
X139912032Y-96792544D01*
X139911887Y-96848161D01*
X139910968Y-96889342D01*
X139909113Y-96918803D01*
X139906161Y-96939255D01*
X139901950Y-96953413D01*
X139896318Y-96963991D01*
X139890073Y-96972474D01*
X139876561Y-96988207D01*
X139863117Y-96998636D01*
X139847876Y-97002639D01*
X139828974Y-96999094D01*
X139804545Y-96986879D01*
X139772727Y-96964871D01*
X139731652Y-96931949D01*
X139679458Y-96886991D01*
X139614278Y-96828875D01*
X139540444Y-96762099D01*
X139275155Y-96521458D01*
X139269511Y-96740589D01*
X139267469Y-96816128D01*
X139265498Y-96872354D01*
X139263161Y-96912524D01*
X139260019Y-96939896D01*
X139255636Y-96957728D01*
X139249576Y-96969279D01*
X139241400Y-96977807D01*
X139237216Y-96981282D01*
X139200235Y-97000372D01*
X139165292Y-96997493D01*
X139134864Y-96973100D01*
X139127903Y-96963286D01*
X139122477Y-96951826D01*
X139118397Y-96935968D01*
X139115471Y-96912963D01*
X139113508Y-96880062D01*
X139112317Y-96834516D01*
X139111708Y-96773573D01*
X139111489Y-96694486D01*
X139111466Y-96635956D01*
X139111540Y-96544407D01*
X139111887Y-96472687D01*
X139112699Y-96418045D01*
X139114167Y-96377732D01*
X139116481Y-96348998D01*
X139119833Y-96329093D01*
X139124412Y-96315268D01*
X139130411Y-96304772D01*
X139134864Y-96298811D01*
X139146150Y-96284691D01*
X139156699Y-96274029D01*
X139168107Y-96267892D01*
X139181970Y-96267343D01*
X139199886Y-96273448D01*
G36*
X139199886Y-96273448D02*
G01*
X139223452Y-96287273D01*
X139254265Y-96309881D01*
X139293922Y-96342338D01*
X139344020Y-96385708D01*
X139406157Y-96441058D01*
X139481928Y-96509451D01*
X139568666Y-96588084D01*
X139749289Y-96751878D01*
X139754933Y-96532029D01*
X139756971Y-96456351D01*
X139758937Y-96399994D01*
X139761266Y-96359706D01*
X139764394Y-96332235D01*
X139768755Y-96314329D01*
X139774784Y-96302737D01*
X139782916Y-96294208D01*
X139787228Y-96290623D01*
X139821759Y-96271670D01*
X139854617Y-96274441D01*
X139880682Y-96290633D01*
X139907333Y-96312199D01*
X139910648Y-96627151D01*
X139911565Y-96719779D01*
X139912032Y-96792544D01*
X139911887Y-96848161D01*
X139910968Y-96889342D01*
X139909113Y-96918803D01*
X139906161Y-96939255D01*
X139901950Y-96953413D01*
X139896318Y-96963991D01*
X139890073Y-96972474D01*
X139876561Y-96988207D01*
X139863117Y-96998636D01*
X139847876Y-97002639D01*
X139828974Y-96999094D01*
X139804545Y-96986879D01*
X139772727Y-96964871D01*
X139731652Y-96931949D01*
X139679458Y-96886991D01*
X139614278Y-96828875D01*
X139540444Y-96762099D01*
X139275155Y-96521458D01*
X139269511Y-96740589D01*
X139267469Y-96816128D01*
X139265498Y-96872354D01*
X139263161Y-96912524D01*
X139260019Y-96939896D01*
X139255636Y-96957728D01*
X139249576Y-96969279D01*
X139241400Y-96977807D01*
X139237216Y-96981282D01*
X139200235Y-97000372D01*
X139165292Y-96997493D01*
X139134864Y-96973100D01*
X139127903Y-96963286D01*
X139122477Y-96951826D01*
X139118397Y-96935968D01*
X139115471Y-96912963D01*
X139113508Y-96880062D01*
X139112317Y-96834516D01*
X139111708Y-96773573D01*
X139111489Y-96694486D01*
X139111466Y-96635956D01*
X139111540Y-96544407D01*
X139111887Y-96472687D01*
X139112699Y-96418045D01*
X139114167Y-96377732D01*
X139116481Y-96348998D01*
X139119833Y-96329093D01*
X139124412Y-96315268D01*
X139130411Y-96304772D01*
X139134864Y-96298811D01*
X139146150Y-96284691D01*
X139156699Y-96274029D01*
X139168107Y-96267892D01*
X139181970Y-96267343D01*
X139199886Y-96273448D01*
G37*
X138549919Y-96274599D02*
X138618435Y-96286095D01*
X138671057Y-96303967D01*
X138705292Y-96327499D01*
X138714621Y-96340924D01*
X138724107Y-96372148D01*
X138717723Y-96400395D01*
X138697570Y-96427182D01*
X138666255Y-96439713D01*
X138620817Y-96438696D01*
X138585674Y-96431906D01*
X138507581Y-96418971D01*
X138427774Y-96417742D01*
X138338445Y-96428241D01*
X138313771Y-96432690D01*
X138230709Y-96456108D01*
X138165727Y-96490945D01*
X138119539Y-96536604D01*
X138092855Y-96592494D01*
X138087337Y-96621388D01*
X138090949Y-96680012D01*
X138114271Y-96731879D01*
X138155176Y-96775978D01*
X138211541Y-96811299D01*
X138281240Y-96836829D01*
X138362148Y-96851559D01*
X138452140Y-96854478D01*
X138549090Y-96844575D01*
X138554564Y-96843641D01*
X138593125Y-96836459D01*
X138614506Y-96829521D01*
X138623773Y-96819227D01*
X138625994Y-96801976D01*
X138626044Y-96792841D01*
X138626044Y-96754489D01*
X138557569Y-96754489D01*
X138497100Y-96750347D01*
X138455835Y-96737147D01*
X138431825Y-96713730D01*
X138423123Y-96678936D01*
X138423017Y-96674394D01*
X138428108Y-96644654D01*
X138445567Y-96623419D01*
X138478061Y-96609366D01*
X138528257Y-96601173D01*
X138576877Y-96598161D01*
X138647544Y-96596433D01*
X138698802Y-96599070D01*
X138733761Y-96608800D01*
X138755530Y-96628353D01*
X138767220Y-96660456D01*
X138771940Y-96707838D01*
X138772800Y-96770071D01*
X138771391Y-96839535D01*
X138767152Y-96886786D01*
X138760064Y-96912012D01*
X138758689Y-96913988D01*
X138719772Y-96945508D01*
X138662714Y-96970470D01*
X138591131Y-96988340D01*
X138508642Y-96998586D01*
X138418861Y-97000673D01*
X138325408Y-96994068D01*
X138270444Y-96985956D01*
X138184234Y-96961554D01*
X138104108Y-96921662D01*
X138037023Y-96869887D01*
X138026827Y-96859539D01*
X137993698Y-96816035D01*
X137963806Y-96762118D01*
X137940643Y-96705592D01*
X137927702Y-96654259D01*
X137926142Y-96634544D01*
X137932782Y-96593419D01*
X137950432Y-96542252D01*
X137975703Y-96488394D01*
X138005211Y-96439195D01*
X138031281Y-96406334D01*
X138092235Y-96357452D01*
X138171031Y-96318545D01*
X138264843Y-96290494D01*
X138370850Y-96274179D01*
X138468000Y-96270192D01*
X138549919Y-96274599D01*
G36*
X138549919Y-96274599D02*
G01*
X138618435Y-96286095D01*
X138671057Y-96303967D01*
X138705292Y-96327499D01*
X138714621Y-96340924D01*
X138724107Y-96372148D01*
X138717723Y-96400395D01*
X138697570Y-96427182D01*
X138666255Y-96439713D01*
X138620817Y-96438696D01*
X138585674Y-96431906D01*
X138507581Y-96418971D01*
X138427774Y-96417742D01*
X138338445Y-96428241D01*
X138313771Y-96432690D01*
X138230709Y-96456108D01*
X138165727Y-96490945D01*
X138119539Y-96536604D01*
X138092855Y-96592494D01*
X138087337Y-96621388D01*
X138090949Y-96680012D01*
X138114271Y-96731879D01*
X138155176Y-96775978D01*
X138211541Y-96811299D01*
X138281240Y-96836829D01*
X138362148Y-96851559D01*
X138452140Y-96854478D01*
X138549090Y-96844575D01*
X138554564Y-96843641D01*
X138593125Y-96836459D01*
X138614506Y-96829521D01*
X138623773Y-96819227D01*
X138625994Y-96801976D01*
X138626044Y-96792841D01*
X138626044Y-96754489D01*
X138557569Y-96754489D01*
X138497100Y-96750347D01*
X138455835Y-96737147D01*
X138431825Y-96713730D01*
X138423123Y-96678936D01*
X138423017Y-96674394D01*
X138428108Y-96644654D01*
X138445567Y-96623419D01*
X138478061Y-96609366D01*
X138528257Y-96601173D01*
X138576877Y-96598161D01*
X138647544Y-96596433D01*
X138698802Y-96599070D01*
X138733761Y-96608800D01*
X138755530Y-96628353D01*
X138767220Y-96660456D01*
X138771940Y-96707838D01*
X138772800Y-96770071D01*
X138771391Y-96839535D01*
X138767152Y-96886786D01*
X138760064Y-96912012D01*
X138758689Y-96913988D01*
X138719772Y-96945508D01*
X138662714Y-96970470D01*
X138591131Y-96988340D01*
X138508642Y-96998586D01*
X138418861Y-97000673D01*
X138325408Y-96994068D01*
X138270444Y-96985956D01*
X138184234Y-96961554D01*
X138104108Y-96921662D01*
X138037023Y-96869887D01*
X138026827Y-96859539D01*
X137993698Y-96816035D01*
X137963806Y-96762118D01*
X137940643Y-96705592D01*
X137927702Y-96654259D01*
X137926142Y-96634544D01*
X137932782Y-96593419D01*
X137950432Y-96542252D01*
X137975703Y-96488394D01*
X138005211Y-96439195D01*
X138031281Y-96406334D01*
X138092235Y-96357452D01*
X138171031Y-96318545D01*
X138264843Y-96290494D01*
X138370850Y-96274179D01*
X138468000Y-96270192D01*
X138549919Y-96274599D01*
G37*
X140730343Y-96269260D02*
X140806701Y-96270174D01*
X140865217Y-96272311D01*
X140908255Y-96276175D01*
X140938183Y-96282267D01*
X140957368Y-96291090D01*
X140968176Y-96303146D01*
X140972973Y-96318939D01*
X140974127Y-96338970D01*
X140974133Y-96341335D01*
X140973131Y-96363992D01*
X140968396Y-96381503D01*
X140957333Y-96394574D01*
X140937348Y-96403913D01*
X140905846Y-96410227D01*
X140860232Y-96414222D01*
X140797913Y-96416606D01*
X140716293Y-96418086D01*
X140691277Y-96418414D01*
X140449200Y-96421467D01*
X140445814Y-96486378D01*
X140442429Y-96551289D01*
X140610576Y-96551289D01*
X140676266Y-96551531D01*
X140723172Y-96552556D01*
X140755083Y-96554811D01*
X140775791Y-96558742D01*
X140789084Y-96564798D01*
X140798755Y-96573424D01*
X140798817Y-96573493D01*
X140816356Y-96607112D01*
X140815722Y-96643448D01*
X140797314Y-96674423D01*
X140793671Y-96677607D01*
X140780741Y-96685812D01*
X140763024Y-96691521D01*
X140736570Y-96695162D01*
X140697432Y-96697167D01*
X140641662Y-96697964D01*
X140605994Y-96698045D01*
X140443555Y-96698045D01*
X140443555Y-96856089D01*
X140690161Y-96856089D01*
X140771580Y-96856231D01*
X140833410Y-96856814D01*
X140878637Y-96858068D01*
X140910248Y-96860227D01*
X140931231Y-96863523D01*
X140944573Y-96868189D01*
X140953261Y-96874457D01*
X140955450Y-96876733D01*
X140971614Y-96908280D01*
X140972797Y-96944168D01*
X140959536Y-96975285D01*
X140949043Y-96985271D01*
X140938129Y-96990769D01*
X140921217Y-96995022D01*
X140895633Y-96998180D01*
X140858701Y-97000392D01*
X140807746Y-97001806D01*
X140740094Y-97002572D01*
X140653069Y-97002838D01*
X140633394Y-97002845D01*
X140544911Y-97002787D01*
X140476227Y-97002467D01*
X140424564Y-97001667D01*
X140387145Y-97000167D01*
X140361190Y-96997749D01*
X140343922Y-96994194D01*
X140332562Y-96989282D01*
X140324332Y-96982795D01*
X140319817Y-96978138D01*
X140313021Y-96969889D01*
X140307712Y-96959669D01*
X140303706Y-96944800D01*
X140300821Y-96922602D01*
X140298874Y-96890393D01*
X140297681Y-96845496D01*
X140297061Y-96785228D01*
X140296829Y-96706911D01*
X140296800Y-96640994D01*
X140296871Y-96548628D01*
X140297208Y-96476117D01*
X140297998Y-96420737D01*
X140299426Y-96379765D01*
X140301679Y-96350478D01*
X140304943Y-96330153D01*
X140309404Y-96316066D01*
X140315248Y-96305495D01*
X140320197Y-96298811D01*
X140343594Y-96269067D01*
X140633774Y-96269067D01*
X140730343Y-96269260D01*
G36*
X140730343Y-96269260D02*
G01*
X140806701Y-96270174D01*
X140865217Y-96272311D01*
X140908255Y-96276175D01*
X140938183Y-96282267D01*
X140957368Y-96291090D01*
X140968176Y-96303146D01*
X140972973Y-96318939D01*
X140974127Y-96338970D01*
X140974133Y-96341335D01*
X140973131Y-96363992D01*
X140968396Y-96381503D01*
X140957333Y-96394574D01*
X140937348Y-96403913D01*
X140905846Y-96410227D01*
X140860232Y-96414222D01*
X140797913Y-96416606D01*
X140716293Y-96418086D01*
X140691277Y-96418414D01*
X140449200Y-96421467D01*
X140445814Y-96486378D01*
X140442429Y-96551289D01*
X140610576Y-96551289D01*
X140676266Y-96551531D01*
X140723172Y-96552556D01*
X140755083Y-96554811D01*
X140775791Y-96558742D01*
X140789084Y-96564798D01*
X140798755Y-96573424D01*
X140798817Y-96573493D01*
X140816356Y-96607112D01*
X140815722Y-96643448D01*
X140797314Y-96674423D01*
X140793671Y-96677607D01*
X140780741Y-96685812D01*
X140763024Y-96691521D01*
X140736570Y-96695162D01*
X140697432Y-96697167D01*
X140641662Y-96697964D01*
X140605994Y-96698045D01*
X140443555Y-96698045D01*
X140443555Y-96856089D01*
X140690161Y-96856089D01*
X140771580Y-96856231D01*
X140833410Y-96856814D01*
X140878637Y-96858068D01*
X140910248Y-96860227D01*
X140931231Y-96863523D01*
X140944573Y-96868189D01*
X140953261Y-96874457D01*
X140955450Y-96876733D01*
X140971614Y-96908280D01*
X140972797Y-96944168D01*
X140959536Y-96975285D01*
X140949043Y-96985271D01*
X140938129Y-96990769D01*
X140921217Y-96995022D01*
X140895633Y-96998180D01*
X140858701Y-97000392D01*
X140807746Y-97001806D01*
X140740094Y-97002572D01*
X140653069Y-97002838D01*
X140633394Y-97002845D01*
X140544911Y-97002787D01*
X140476227Y-97002467D01*
X140424564Y-97001667D01*
X140387145Y-97000167D01*
X140361190Y-96997749D01*
X140343922Y-96994194D01*
X140332562Y-96989282D01*
X140324332Y-96982795D01*
X140319817Y-96978138D01*
X140313021Y-96969889D01*
X140307712Y-96959669D01*
X140303706Y-96944800D01*
X140300821Y-96922602D01*
X140298874Y-96890393D01*
X140297681Y-96845496D01*
X140297061Y-96785228D01*
X140296829Y-96706911D01*
X140296800Y-96640994D01*
X140296871Y-96548628D01*
X140297208Y-96476117D01*
X140297998Y-96420737D01*
X140299426Y-96379765D01*
X140301679Y-96350478D01*
X140304943Y-96330153D01*
X140309404Y-96316066D01*
X140315248Y-96305495D01*
X140320197Y-96298811D01*
X140343594Y-96269067D01*
X140633774Y-96269067D01*
X140730343Y-96269260D01*
G37*
X135787206Y-96269146D02*
X135856614Y-96269518D01*
X135909003Y-96270385D01*
X135947153Y-96271946D01*
X135973841Y-96274403D01*
X135991847Y-96277957D01*
X136003951Y-96282810D01*
X136012931Y-96289161D01*
X136016182Y-96292084D01*
X136035957Y-96323142D01*
X136039518Y-96358828D01*
X136026509Y-96390510D01*
X136020494Y-96396913D01*
X136010765Y-96403121D01*
X135995099Y-96407910D01*
X135970592Y-96411514D01*
X135934339Y-96414164D01*
X135883435Y-96416095D01*
X135814974Y-96417539D01*
X135752383Y-96418418D01*
X135504666Y-96421467D01*
X135501281Y-96486378D01*
X135497895Y-96551289D01*
X135666042Y-96551289D01*
X135739041Y-96551919D01*
X135792483Y-96554553D01*
X135829372Y-96560309D01*
X135852712Y-96570304D01*
X135865506Y-96585656D01*
X135870758Y-96607482D01*
X135871555Y-96627738D01*
X135869077Y-96652592D01*
X135859723Y-96670906D01*
X135840617Y-96683637D01*
X135808882Y-96691741D01*
X135761641Y-96696176D01*
X135696017Y-96697899D01*
X135660199Y-96698045D01*
X135499022Y-96698045D01*
X135499022Y-96856089D01*
X135747378Y-96856089D01*
X135828787Y-96856202D01*
X135890658Y-96856712D01*
X135936032Y-96857870D01*
X135967946Y-96859930D01*
X135989441Y-96863146D01*
X136003557Y-96867772D01*
X136013332Y-96874059D01*
X136018311Y-96878667D01*
X136035390Y-96905560D01*
X136040889Y-96929467D01*
X136033037Y-96958667D01*
X136018311Y-96980267D01*
X136010454Y-96987066D01*
X136000312Y-96992346D01*
X135985156Y-96996298D01*
X135962259Y-96999113D01*
X135928891Y-97000982D01*
X135882325Y-97002098D01*
X135819833Y-97002651D01*
X135738686Y-97002833D01*
X135696578Y-97002845D01*
X135606402Y-97002765D01*
X135536076Y-97002398D01*
X135482871Y-97001552D01*
X135444060Y-97000036D01*
X135416913Y-96997659D01*
X135398702Y-96994229D01*
X135386700Y-96989554D01*
X135378178Y-96983444D01*
X135374844Y-96980267D01*
X135368245Y-96972670D01*
X135363073Y-96962870D01*
X135359154Y-96948239D01*
X135356316Y-96926152D01*
X135354385Y-96893982D01*
X135353188Y-96849103D01*
X135352552Y-96788889D01*
X135352303Y-96710713D01*
X135352266Y-96637923D01*
X135352300Y-96544707D01*
X135352535Y-96471431D01*
X135353170Y-96415458D01*
X135354406Y-96374151D01*
X135356444Y-96344872D01*
X135359483Y-96324984D01*
X135363723Y-96311850D01*
X135369365Y-96302832D01*
X135376609Y-96295293D01*
X135378394Y-96293612D01*
X135387055Y-96286172D01*
X135397118Y-96280409D01*
X135411375Y-96276112D01*
X135432617Y-96273064D01*
X135463636Y-96271051D01*
X135507223Y-96269860D01*
X135566169Y-96269275D01*
X135643266Y-96269083D01*
X135697999Y-96269067D01*
X135787206Y-96269146D01*
G36*
X135787206Y-96269146D02*
G01*
X135856614Y-96269518D01*
X135909003Y-96270385D01*
X135947153Y-96271946D01*
X135973841Y-96274403D01*
X135991847Y-96277957D01*
X136003951Y-96282810D01*
X136012931Y-96289161D01*
X136016182Y-96292084D01*
X136035957Y-96323142D01*
X136039518Y-96358828D01*
X136026509Y-96390510D01*
X136020494Y-96396913D01*
X136010765Y-96403121D01*
X135995099Y-96407910D01*
X135970592Y-96411514D01*
X135934339Y-96414164D01*
X135883435Y-96416095D01*
X135814974Y-96417539D01*
X135752383Y-96418418D01*
X135504666Y-96421467D01*
X135501281Y-96486378D01*
X135497895Y-96551289D01*
X135666042Y-96551289D01*
X135739041Y-96551919D01*
X135792483Y-96554553D01*
X135829372Y-96560309D01*
X135852712Y-96570304D01*
X135865506Y-96585656D01*
X135870758Y-96607482D01*
X135871555Y-96627738D01*
X135869077Y-96652592D01*
X135859723Y-96670906D01*
X135840617Y-96683637D01*
X135808882Y-96691741D01*
X135761641Y-96696176D01*
X135696017Y-96697899D01*
X135660199Y-96698045D01*
X135499022Y-96698045D01*
X135499022Y-96856089D01*
X135747378Y-96856089D01*
X135828787Y-96856202D01*
X135890658Y-96856712D01*
X135936032Y-96857870D01*
X135967946Y-96859930D01*
X135989441Y-96863146D01*
X136003557Y-96867772D01*
X136013332Y-96874059D01*
X136018311Y-96878667D01*
X136035390Y-96905560D01*
X136040889Y-96929467D01*
X136033037Y-96958667D01*
X136018311Y-96980267D01*
X136010454Y-96987066D01*
X136000312Y-96992346D01*
X135985156Y-96996298D01*
X135962259Y-96999113D01*
X135928891Y-97000982D01*
X135882325Y-97002098D01*
X135819833Y-97002651D01*
X135738686Y-97002833D01*
X135696578Y-97002845D01*
X135606402Y-97002765D01*
X135536076Y-97002398D01*
X135482871Y-97001552D01*
X135444060Y-97000036D01*
X135416913Y-96997659D01*
X135398702Y-96994229D01*
X135386700Y-96989554D01*
X135378178Y-96983444D01*
X135374844Y-96980267D01*
X135368245Y-96972670D01*
X135363073Y-96962870D01*
X135359154Y-96948239D01*
X135356316Y-96926152D01*
X135354385Y-96893982D01*
X135353188Y-96849103D01*
X135352552Y-96788889D01*
X135352303Y-96710713D01*
X135352266Y-96637923D01*
X135352300Y-96544707D01*
X135352535Y-96471431D01*
X135353170Y-96415458D01*
X135354406Y-96374151D01*
X135356444Y-96344872D01*
X135359483Y-96324984D01*
X135363723Y-96311850D01*
X135369365Y-96302832D01*
X135376609Y-96295293D01*
X135378394Y-96293612D01*
X135387055Y-96286172D01*
X135397118Y-96280409D01*
X135411375Y-96276112D01*
X135432617Y-96273064D01*
X135463636Y-96271051D01*
X135507223Y-96269860D01*
X135566169Y-96269275D01*
X135643266Y-96269083D01*
X135697999Y-96269067D01*
X135787206Y-96269146D01*
G37*
X144244665Y-96271034D02*
X144264255Y-96278035D01*
X144265010Y-96278377D01*
X144291613Y-96298678D01*
X144306270Y-96319561D01*
X144309138Y-96329352D01*
X144308996Y-96342361D01*
X144304961Y-96360895D01*
X144296146Y-96387257D01*
X144281669Y-96423752D01*
X144260645Y-96472687D01*
X144232188Y-96536365D01*
X144195415Y-96617093D01*
X144175175Y-96661216D01*
X144138625Y-96739985D01*
X144104315Y-96812423D01*
X144073552Y-96875880D01*
X144047648Y-96927708D01*
X144027910Y-96965259D01*
X144015650Y-96985884D01*
X144013224Y-96988733D01*
X143982183Y-97001302D01*
X143947121Y-96999619D01*
X143919000Y-96984332D01*
X143917854Y-96983089D01*
X143906668Y-96966154D01*
X143887904Y-96933170D01*
X143863875Y-96888380D01*
X143836897Y-96836032D01*
X143827201Y-96816742D01*
X143754014Y-96670150D01*
X143674240Y-96829393D01*
X143645767Y-96884415D01*
X143619350Y-96932132D01*
X143597148Y-96968893D01*
X143581319Y-96991044D01*
X143575954Y-96995741D01*
X143534257Y-97002102D01*
X143499849Y-96988733D01*
X143489728Y-96974446D01*
X143472214Y-96942692D01*
X143448735Y-96896597D01*
X143420720Y-96839285D01*
X143389599Y-96773880D01*
X143356799Y-96703507D01*
X143323750Y-96631291D01*
X143291881Y-96560355D01*
X143262619Y-96493825D01*
X143237395Y-96434826D01*
X143217636Y-96386481D01*
X143204772Y-96351915D01*
X143200231Y-96334253D01*
X143200277Y-96333613D01*
X143211326Y-96311388D01*
X143233410Y-96288753D01*
X143234710Y-96287768D01*
X143261853Y-96272425D01*
X143286958Y-96272574D01*
X143296368Y-96275466D01*
X143307834Y-96281718D01*
X143320010Y-96294014D01*
X143334357Y-96314908D01*
X143352336Y-96346949D01*
X143375407Y-96392688D01*
X143405030Y-96454677D01*
X143431745Y-96511898D01*
X143462480Y-96578226D01*
X143490021Y-96637874D01*
X143512938Y-96687725D01*
X143529798Y-96724664D01*
X143539173Y-96745573D01*
X143540540Y-96748845D01*
X143546689Y-96743497D01*
X143560822Y-96721109D01*
X143581057Y-96684946D01*
X143605515Y-96638277D01*
X143615248Y-96619022D01*
X143648217Y-96554004D01*
X143673643Y-96506654D01*
X143693612Y-96474219D01*
X143710210Y-96453946D01*
X143725524Y-96443082D01*
X143741640Y-96438875D01*
X143752143Y-96438400D01*
X143770670Y-96440042D01*
X143786904Y-96446831D01*
X143803035Y-96461566D01*
X143821251Y-96487044D01*
X143843739Y-96526061D01*
X143872689Y-96581414D01*
X143888662Y-96612903D01*
X143914570Y-96663087D01*
X143937167Y-96704704D01*
X143954458Y-96734242D01*
X143964450Y-96748189D01*
X143965809Y-96748770D01*
X143972261Y-96737793D01*
X143986708Y-96709290D01*
X144007703Y-96666244D01*
X144033797Y-96611638D01*
X144063546Y-96548454D01*
X144078180Y-96517071D01*
X144116250Y-96436078D01*
X144146905Y-96373756D01*
X144171737Y-96328071D01*
X144192337Y-96296989D01*
X144210298Y-96278478D01*
X144227210Y-96270504D01*
X144244665Y-96271034D01*
G36*
X144244665Y-96271034D02*
G01*
X144264255Y-96278035D01*
X144265010Y-96278377D01*
X144291613Y-96298678D01*
X144306270Y-96319561D01*
X144309138Y-96329352D01*
X144308996Y-96342361D01*
X144304961Y-96360895D01*
X144296146Y-96387257D01*
X144281669Y-96423752D01*
X144260645Y-96472687D01*
X144232188Y-96536365D01*
X144195415Y-96617093D01*
X144175175Y-96661216D01*
X144138625Y-96739985D01*
X144104315Y-96812423D01*
X144073552Y-96875880D01*
X144047648Y-96927708D01*
X144027910Y-96965259D01*
X144015650Y-96985884D01*
X144013224Y-96988733D01*
X143982183Y-97001302D01*
X143947121Y-96999619D01*
X143919000Y-96984332D01*
X143917854Y-96983089D01*
X143906668Y-96966154D01*
X143887904Y-96933170D01*
X143863875Y-96888380D01*
X143836897Y-96836032D01*
X143827201Y-96816742D01*
X143754014Y-96670150D01*
X143674240Y-96829393D01*
X143645767Y-96884415D01*
X143619350Y-96932132D01*
X143597148Y-96968893D01*
X143581319Y-96991044D01*
X143575954Y-96995741D01*
X143534257Y-97002102D01*
X143499849Y-96988733D01*
X143489728Y-96974446D01*
X143472214Y-96942692D01*
X143448735Y-96896597D01*
X143420720Y-96839285D01*
X143389599Y-96773880D01*
X143356799Y-96703507D01*
X143323750Y-96631291D01*
X143291881Y-96560355D01*
X143262619Y-96493825D01*
X143237395Y-96434826D01*
X143217636Y-96386481D01*
X143204772Y-96351915D01*
X143200231Y-96334253D01*
X143200277Y-96333613D01*
X143211326Y-96311388D01*
X143233410Y-96288753D01*
X143234710Y-96287768D01*
X143261853Y-96272425D01*
X143286958Y-96272574D01*
X143296368Y-96275466D01*
X143307834Y-96281718D01*
X143320010Y-96294014D01*
X143334357Y-96314908D01*
X143352336Y-96346949D01*
X143375407Y-96392688D01*
X143405030Y-96454677D01*
X143431745Y-96511898D01*
X143462480Y-96578226D01*
X143490021Y-96637874D01*
X143512938Y-96687725D01*
X143529798Y-96724664D01*
X143539173Y-96745573D01*
X143540540Y-96748845D01*
X143546689Y-96743497D01*
X143560822Y-96721109D01*
X143581057Y-96684946D01*
X143605515Y-96638277D01*
X143615248Y-96619022D01*
X143648217Y-96554004D01*
X143673643Y-96506654D01*
X143693612Y-96474219D01*
X143710210Y-96453946D01*
X143725524Y-96443082D01*
X143741640Y-96438875D01*
X143752143Y-96438400D01*
X143770670Y-96440042D01*
X143786904Y-96446831D01*
X143803035Y-96461566D01*
X143821251Y-96487044D01*
X143843739Y-96526061D01*
X143872689Y-96581414D01*
X143888662Y-96612903D01*
X143914570Y-96663087D01*
X143937167Y-96704704D01*
X143954458Y-96734242D01*
X143964450Y-96748189D01*
X143965809Y-96748770D01*
X143972261Y-96737793D01*
X143986708Y-96709290D01*
X144007703Y-96666244D01*
X144033797Y-96611638D01*
X144063546Y-96548454D01*
X144078180Y-96517071D01*
X144116250Y-96436078D01*
X144146905Y-96373756D01*
X144171737Y-96328071D01*
X144192337Y-96296989D01*
X144210298Y-96278478D01*
X144227210Y-96270504D01*
X144244665Y-96271034D01*
G37*
X136808297Y-96270351D02*
X136883112Y-96275581D01*
X136952694Y-96283750D01*
X137012998Y-96294550D01*
X137059980Y-96307673D01*
X137089594Y-96322813D01*
X137094140Y-96327269D01*
X137109946Y-96361850D01*
X137105153Y-96397351D01*
X137080636Y-96427725D01*
X137079466Y-96428596D01*
X137065046Y-96437954D01*
X137049992Y-96442876D01*
X137028995Y-96443473D01*
X136996743Y-96439861D01*
X136947927Y-96432154D01*
X136944000Y-96431505D01*
X136871261Y-96422569D01*
X136792783Y-96418161D01*
X136714073Y-96418119D01*
X136640639Y-96422279D01*
X136577989Y-96430479D01*
X136531630Y-96442557D01*
X136528584Y-96443771D01*
X136494952Y-96462615D01*
X136483136Y-96481685D01*
X136492386Y-96500439D01*
X136521953Y-96518337D01*
X136571089Y-96534837D01*
X136639043Y-96549396D01*
X136684355Y-96556406D01*
X136778544Y-96569889D01*
X136853456Y-96582214D01*
X136912283Y-96594449D01*
X136958215Y-96607661D01*
X136994445Y-96622917D01*
X137024162Y-96641285D01*
X137050558Y-96663831D01*
X137071770Y-96685971D01*
X137096935Y-96716819D01*
X137109319Y-96743345D01*
X137113192Y-96776026D01*
X137113333Y-96787995D01*
X137110424Y-96827712D01*
X137098798Y-96857259D01*
X137078677Y-96883486D01*
X137037784Y-96923576D01*
X136992183Y-96954149D01*
X136938487Y-96976203D01*
X136873308Y-96990735D01*
X136793256Y-96998741D01*
X136694943Y-97001218D01*
X136678711Y-97001177D01*
X136613151Y-96999818D01*
X136548134Y-96996730D01*
X136490748Y-96992356D01*
X136448078Y-96987140D01*
X136444628Y-96986541D01*
X136402204Y-96976491D01*
X136366220Y-96963796D01*
X136345850Y-96952190D01*
X136326893Y-96921572D01*
X136325573Y-96885918D01*
X136341915Y-96854144D01*
X136345571Y-96850551D01*
X136360685Y-96839876D01*
X136379585Y-96835276D01*
X136408838Y-96836059D01*
X136444349Y-96840127D01*
X136484030Y-96843762D01*
X136539655Y-96846828D01*
X136604594Y-96849053D01*
X136672215Y-96850164D01*
X136690000Y-96850237D01*
X136757872Y-96849964D01*
X136807546Y-96848646D01*
X136843390Y-96845827D01*
X136869776Y-96841050D01*
X136891074Y-96833857D01*
X136903874Y-96827867D01*
X136932000Y-96811233D01*
X136949932Y-96796168D01*
X136952553Y-96791897D01*
X136947024Y-96774263D01*
X136920740Y-96757192D01*
X136875522Y-96741458D01*
X136813192Y-96727838D01*
X136794829Y-96724804D01*
X136698910Y-96709738D01*
X136622359Y-96697146D01*
X136562220Y-96686111D01*
X136515540Y-96675720D01*
X136479363Y-96665056D01*
X136450735Y-96653205D01*
X136426702Y-96639251D01*
X136404308Y-96622281D01*
X136380598Y-96601378D01*
X136372620Y-96594049D01*
X136344647Y-96566699D01*
X136329840Y-96545029D01*
X136324048Y-96520232D01*
X136323111Y-96488983D01*
X136333425Y-96427705D01*
X136364248Y-96375640D01*
X136415405Y-96332958D01*
X136486717Y-96299825D01*
X136537600Y-96284964D01*
X136592900Y-96275366D01*
X136659147Y-96269936D01*
X136732294Y-96268367D01*
X136808297Y-96270351D01*
G36*
X136808297Y-96270351D02*
G01*
X136883112Y-96275581D01*
X136952694Y-96283750D01*
X137012998Y-96294550D01*
X137059980Y-96307673D01*
X137089594Y-96322813D01*
X137094140Y-96327269D01*
X137109946Y-96361850D01*
X137105153Y-96397351D01*
X137080636Y-96427725D01*
X137079466Y-96428596D01*
X137065046Y-96437954D01*
X137049992Y-96442876D01*
X137028995Y-96443473D01*
X136996743Y-96439861D01*
X136947927Y-96432154D01*
X136944000Y-96431505D01*
X136871261Y-96422569D01*
X136792783Y-96418161D01*
X136714073Y-96418119D01*
X136640639Y-96422279D01*
X136577989Y-96430479D01*
X136531630Y-96442557D01*
X136528584Y-96443771D01*
X136494952Y-96462615D01*
X136483136Y-96481685D01*
X136492386Y-96500439D01*
X136521953Y-96518337D01*
X136571089Y-96534837D01*
X136639043Y-96549396D01*
X136684355Y-96556406D01*
X136778544Y-96569889D01*
X136853456Y-96582214D01*
X136912283Y-96594449D01*
X136958215Y-96607661D01*
X136994445Y-96622917D01*
X137024162Y-96641285D01*
X137050558Y-96663831D01*
X137071770Y-96685971D01*
X137096935Y-96716819D01*
X137109319Y-96743345D01*
X137113192Y-96776026D01*
X137113333Y-96787995D01*
X137110424Y-96827712D01*
X137098798Y-96857259D01*
X137078677Y-96883486D01*
X137037784Y-96923576D01*
X136992183Y-96954149D01*
X136938487Y-96976203D01*
X136873308Y-96990735D01*
X136793256Y-96998741D01*
X136694943Y-97001218D01*
X136678711Y-97001177D01*
X136613151Y-96999818D01*
X136548134Y-96996730D01*
X136490748Y-96992356D01*
X136448078Y-96987140D01*
X136444628Y-96986541D01*
X136402204Y-96976491D01*
X136366220Y-96963796D01*
X136345850Y-96952190D01*
X136326893Y-96921572D01*
X136325573Y-96885918D01*
X136341915Y-96854144D01*
X136345571Y-96850551D01*
X136360685Y-96839876D01*
X136379585Y-96835276D01*
X136408838Y-96836059D01*
X136444349Y-96840127D01*
X136484030Y-96843762D01*
X136539655Y-96846828D01*
X136604594Y-96849053D01*
X136672215Y-96850164D01*
X136690000Y-96850237D01*
X136757872Y-96849964D01*
X136807546Y-96848646D01*
X136843390Y-96845827D01*
X136869776Y-96841050D01*
X136891074Y-96833857D01*
X136903874Y-96827867D01*
X136932000Y-96811233D01*
X136949932Y-96796168D01*
X136952553Y-96791897D01*
X136947024Y-96774263D01*
X136920740Y-96757192D01*
X136875522Y-96741458D01*
X136813192Y-96727838D01*
X136794829Y-96724804D01*
X136698910Y-96709738D01*
X136622359Y-96697146D01*
X136562220Y-96686111D01*
X136515540Y-96675720D01*
X136479363Y-96665056D01*
X136450735Y-96653205D01*
X136426702Y-96639251D01*
X136404308Y-96622281D01*
X136380598Y-96601378D01*
X136372620Y-96594049D01*
X136344647Y-96566699D01*
X136329840Y-96545029D01*
X136324048Y-96520232D01*
X136323111Y-96488983D01*
X136333425Y-96427705D01*
X136364248Y-96375640D01*
X136415405Y-96332958D01*
X136486717Y-96299825D01*
X136537600Y-96284964D01*
X136592900Y-96275366D01*
X136659147Y-96269936D01*
X136732294Y-96268367D01*
X136808297Y-96270351D01*
G37*
X140828429Y-91949071D02*
X140988570Y-91970245D01*
X141152510Y-92010385D01*
X141322313Y-92069889D01*
X141500043Y-92149154D01*
X141511310Y-92154699D01*
X141569005Y-92182725D01*
X141620552Y-92206802D01*
X141662191Y-92225249D01*
X141690162Y-92236386D01*
X141699733Y-92238933D01*
X141718950Y-92243941D01*
X141723561Y-92248147D01*
X141718458Y-92258580D01*
X141702418Y-92284868D01*
X141677288Y-92324257D01*
X141644914Y-92373991D01*
X141607143Y-92431315D01*
X141565822Y-92493476D01*
X141522798Y-92557718D01*
X141479917Y-92621285D01*
X141439026Y-92681425D01*
X141401971Y-92735380D01*
X141370600Y-92780397D01*
X141346759Y-92813721D01*
X141332294Y-92832597D01*
X141330309Y-92834787D01*
X141320191Y-92830138D01*
X141297850Y-92812962D01*
X141267280Y-92786440D01*
X141251536Y-92771964D01*
X141155047Y-92696682D01*
X141048336Y-92641241D01*
X140932832Y-92606141D01*
X140809962Y-92591880D01*
X140740561Y-92593051D01*
X140619423Y-92610212D01*
X140510205Y-92646094D01*
X140412582Y-92700959D01*
X140326228Y-92775070D01*
X140250815Y-92868688D01*
X140186018Y-92982076D01*
X140148601Y-93068667D01*
X140104748Y-93204366D01*
X140072428Y-93351850D01*
X140051557Y-93507314D01*
X140042051Y-93666956D01*
X140043827Y-93826973D01*
X140056803Y-93983561D01*
X140080894Y-94132918D01*
X140116018Y-94271240D01*
X140162092Y-94394724D01*
X140178373Y-94428978D01*
X140246620Y-94543064D01*
X140327079Y-94639557D01*
X140418570Y-94717670D01*
X140519911Y-94776617D01*
X140629920Y-94815612D01*
X140747415Y-94833868D01*
X140788883Y-94835211D01*
X140910441Y-94824290D01*
X141030878Y-94791474D01*
X141148666Y-94737439D01*
X141262277Y-94662865D01*
X141353685Y-94584539D01*
X141400215Y-94540008D01*
X141581483Y-94837271D01*
X141626580Y-94911433D01*
X141667819Y-94979646D01*
X141703735Y-95039459D01*
X141732866Y-95088420D01*
X141753750Y-95124079D01*
X141764924Y-95143984D01*
X141766375Y-95147079D01*
X141758146Y-95156718D01*
X141732567Y-95173999D01*
X141692873Y-95197283D01*
X141642297Y-95224934D01*
X141584074Y-95255315D01*
X141521437Y-95286790D01*
X141457621Y-95317722D01*
X141395860Y-95346473D01*
X141339388Y-95371408D01*
X141291438Y-95390889D01*
X141267986Y-95399318D01*
X141134221Y-95437133D01*
X140996327Y-95462136D01*
X140848622Y-95475140D01*
X140721833Y-95477468D01*
X140653878Y-95476373D01*
X140588277Y-95474275D01*
X140530847Y-95471434D01*
X140487403Y-95468106D01*
X140473298Y-95466422D01*
X140334284Y-95437587D01*
X140192757Y-95392468D01*
X140055275Y-95333750D01*
X139928394Y-95264120D01*
X139850889Y-95211441D01*
X139723481Y-95103239D01*
X139605178Y-94976671D01*
X139498172Y-94834866D01*
X139404652Y-94680951D01*
X139326810Y-94518053D01*
X139282956Y-94400756D01*
X139232708Y-94217128D01*
X139199209Y-94022581D01*
X139182449Y-93821325D01*
X139182416Y-93617568D01*
X139199101Y-93415521D01*
X139232493Y-93219392D01*
X139282580Y-93033391D01*
X139286397Y-93021803D01*
X139349281Y-92859750D01*
X139426028Y-92711832D01*
X139519242Y-92573865D01*
X139631527Y-92441661D01*
X139675392Y-92396399D01*
X139811534Y-92272457D01*
X139951491Y-92169915D01*
X140097411Y-92087656D01*
X140251442Y-92024564D01*
X140415732Y-91979523D01*
X140511289Y-91962033D01*
X140670023Y-91946466D01*
X140828429Y-91949071D01*
G36*
X140828429Y-91949071D02*
G01*
X140988570Y-91970245D01*
X141152510Y-92010385D01*
X141322313Y-92069889D01*
X141500043Y-92149154D01*
X141511310Y-92154699D01*
X141569005Y-92182725D01*
X141620552Y-92206802D01*
X141662191Y-92225249D01*
X141690162Y-92236386D01*
X141699733Y-92238933D01*
X141718950Y-92243941D01*
X141723561Y-92248147D01*
X141718458Y-92258580D01*
X141702418Y-92284868D01*
X141677288Y-92324257D01*
X141644914Y-92373991D01*
X141607143Y-92431315D01*
X141565822Y-92493476D01*
X141522798Y-92557718D01*
X141479917Y-92621285D01*
X141439026Y-92681425D01*
X141401971Y-92735380D01*
X141370600Y-92780397D01*
X141346759Y-92813721D01*
X141332294Y-92832597D01*
X141330309Y-92834787D01*
X141320191Y-92830138D01*
X141297850Y-92812962D01*
X141267280Y-92786440D01*
X141251536Y-92771964D01*
X141155047Y-92696682D01*
X141048336Y-92641241D01*
X140932832Y-92606141D01*
X140809962Y-92591880D01*
X140740561Y-92593051D01*
X140619423Y-92610212D01*
X140510205Y-92646094D01*
X140412582Y-92700959D01*
X140326228Y-92775070D01*
X140250815Y-92868688D01*
X140186018Y-92982076D01*
X140148601Y-93068667D01*
X140104748Y-93204366D01*
X140072428Y-93351850D01*
X140051557Y-93507314D01*
X140042051Y-93666956D01*
X140043827Y-93826973D01*
X140056803Y-93983561D01*
X140080894Y-94132918D01*
X140116018Y-94271240D01*
X140162092Y-94394724D01*
X140178373Y-94428978D01*
X140246620Y-94543064D01*
X140327079Y-94639557D01*
X140418570Y-94717670D01*
X140519911Y-94776617D01*
X140629920Y-94815612D01*
X140747415Y-94833868D01*
X140788883Y-94835211D01*
X140910441Y-94824290D01*
X141030878Y-94791474D01*
X141148666Y-94737439D01*
X141262277Y-94662865D01*
X141353685Y-94584539D01*
X141400215Y-94540008D01*
X141581483Y-94837271D01*
X141626580Y-94911433D01*
X141667819Y-94979646D01*
X141703735Y-95039459D01*
X141732866Y-95088420D01*
X141753750Y-95124079D01*
X141764924Y-95143984D01*
X141766375Y-95147079D01*
X141758146Y-95156718D01*
X141732567Y-95173999D01*
X141692873Y-95197283D01*
X141642297Y-95224934D01*
X141584074Y-95255315D01*
X141521437Y-95286790D01*
X141457621Y-95317722D01*
X141395860Y-95346473D01*
X141339388Y-95371408D01*
X141291438Y-95390889D01*
X141267986Y-95399318D01*
X141134221Y-95437133D01*
X140996327Y-95462136D01*
X140848622Y-95475140D01*
X140721833Y-95477468D01*
X140653878Y-95476373D01*
X140588277Y-95474275D01*
X140530847Y-95471434D01*
X140487403Y-95468106D01*
X140473298Y-95466422D01*
X140334284Y-95437587D01*
X140192757Y-95392468D01*
X140055275Y-95333750D01*
X139928394Y-95264120D01*
X139850889Y-95211441D01*
X139723481Y-95103239D01*
X139605178Y-94976671D01*
X139498172Y-94834866D01*
X139404652Y-94680951D01*
X139326810Y-94518053D01*
X139282956Y-94400756D01*
X139232708Y-94217128D01*
X139199209Y-94022581D01*
X139182449Y-93821325D01*
X139182416Y-93617568D01*
X139199101Y-93415521D01*
X139232493Y-93219392D01*
X139282580Y-93033391D01*
X139286397Y-93021803D01*
X139349281Y-92859750D01*
X139426028Y-92711832D01*
X139519242Y-92573865D01*
X139631527Y-92441661D01*
X139675392Y-92396399D01*
X139811534Y-92272457D01*
X139951491Y-92169915D01*
X140097411Y-92087656D01*
X140251442Y-92024564D01*
X140415732Y-91979523D01*
X140511289Y-91962033D01*
X140670023Y-91946466D01*
X140828429Y-91949071D01*
G37*
X146686507Y-93472245D02*
X146686526Y-93706662D01*
X146686552Y-93919603D01*
X146686625Y-94112168D01*
X146686782Y-94285459D01*
X146687064Y-94440576D01*
X146687509Y-94578620D01*
X146688156Y-94700692D01*
X146689045Y-94807894D01*
X146690213Y-94901326D01*
X146691701Y-94982090D01*
X146693546Y-95051286D01*
X146695789Y-95110015D01*
X146698469Y-95159379D01*
X146701623Y-95200478D01*
X146705292Y-95234413D01*
X146709513Y-95262286D01*
X146714327Y-95285198D01*
X146719773Y-95304249D01*
X146725888Y-95320540D01*
X146732712Y-95335173D01*
X146740285Y-95349249D01*
X146748645Y-95363868D01*
X146753839Y-95372974D01*
X146788104Y-95433689D01*
X145929955Y-95433689D01*
X145929955Y-95337733D01*
X145929224Y-95294370D01*
X145927272Y-95261205D01*
X145924463Y-95243424D01*
X145923221Y-95241778D01*
X145911799Y-95248662D01*
X145889084Y-95266505D01*
X145866385Y-95285879D01*
X145811800Y-95326614D01*
X145742321Y-95367617D01*
X145665270Y-95405123D01*
X145587965Y-95435364D01*
X145557113Y-95445012D01*
X145488616Y-95459578D01*
X145405764Y-95469539D01*
X145316371Y-95474583D01*
X145228248Y-95474396D01*
X145149207Y-95468666D01*
X145111511Y-95462858D01*
X144973414Y-95424797D01*
X144846113Y-95367073D01*
X144730292Y-95290211D01*
X144626637Y-95194739D01*
X144535833Y-95081179D01*
X144469031Y-94970381D01*
X144414164Y-94853625D01*
X144372163Y-94734276D01*
X144342167Y-94608283D01*
X144323311Y-94471594D01*
X144314732Y-94320158D01*
X144314006Y-94242711D01*
X144316100Y-94185934D01*
X145145217Y-94185934D01*
X145145424Y-94279002D01*
X145148337Y-94366692D01*
X145154000Y-94443772D01*
X145162455Y-94505009D01*
X145165038Y-94517350D01*
X145196840Y-94624633D01*
X145238498Y-94711658D01*
X145290363Y-94778642D01*
X145352781Y-94825805D01*
X145426100Y-94853365D01*
X145510669Y-94861541D01*
X145606835Y-94850551D01*
X145670311Y-94834829D01*
X145719454Y-94816639D01*
X145773583Y-94790791D01*
X145814244Y-94767089D01*
X145884800Y-94720721D01*
X145884800Y-93570530D01*
X145817392Y-93526962D01*
X145738867Y-93486040D01*
X145654681Y-93459389D01*
X145569557Y-93447465D01*
X145488216Y-93450722D01*
X145415380Y-93469615D01*
X145383426Y-93485184D01*
X145325501Y-93528181D01*
X145276544Y-93584953D01*
X145235390Y-93657575D01*
X145200874Y-93748121D01*
X145171833Y-93858666D01*
X145170552Y-93864533D01*
X145160381Y-93926788D01*
X145152739Y-94004594D01*
X145147670Y-94092720D01*
X145145217Y-94185934D01*
X144316100Y-94185934D01*
X144321857Y-94029895D01*
X144343802Y-93834059D01*
X144379786Y-93655332D01*
X144429759Y-93493845D01*
X144493668Y-93349726D01*
X144571462Y-93223106D01*
X144663089Y-93114115D01*
X144768497Y-93022883D01*
X144813662Y-92991932D01*
X144914611Y-92935785D01*
X145017901Y-92896174D01*
X145127989Y-92872014D01*
X145249330Y-92862219D01*
X145341836Y-92863265D01*
X145471490Y-92874231D01*
X145584084Y-92896046D01*
X145682875Y-92929714D01*
X145771121Y-92976236D01*
X145819986Y-93010448D01*
X145849353Y-93032362D01*
X145871043Y-93047333D01*
X145879253Y-93051733D01*
X145880868Y-93040904D01*
X145882159Y-93010251D01*
X145883138Y-92962526D01*
X145883817Y-92900479D01*
X145884210Y-92826862D01*
X145884330Y-92744427D01*
X145884188Y-92655925D01*
X145883797Y-92564107D01*
X145883171Y-92471724D01*
X145882320Y-92381528D01*
X145881260Y-92296271D01*
X145880001Y-92218703D01*
X145878556Y-92151576D01*
X145876938Y-92097641D01*
X145875161Y-92059650D01*
X145874669Y-92052667D01*
X145867092Y-91982251D01*
X145855531Y-91927102D01*
X145837792Y-91879981D01*
X145811682Y-91833647D01*
X145805415Y-91824067D01*
X145780983Y-91787378D01*
X146686311Y-91787378D01*
X146686507Y-93472245D01*
G36*
X146686507Y-93472245D02*
G01*
X146686526Y-93706662D01*
X146686552Y-93919603D01*
X146686625Y-94112168D01*
X146686782Y-94285459D01*
X146687064Y-94440576D01*
X146687509Y-94578620D01*
X146688156Y-94700692D01*
X146689045Y-94807894D01*
X146690213Y-94901326D01*
X146691701Y-94982090D01*
X146693546Y-95051286D01*
X146695789Y-95110015D01*
X146698469Y-95159379D01*
X146701623Y-95200478D01*
X146705292Y-95234413D01*
X146709513Y-95262286D01*
X146714327Y-95285198D01*
X146719773Y-95304249D01*
X146725888Y-95320540D01*
X146732712Y-95335173D01*
X146740285Y-95349249D01*
X146748645Y-95363868D01*
X146753839Y-95372974D01*
X146788104Y-95433689D01*
X145929955Y-95433689D01*
X145929955Y-95337733D01*
X145929224Y-95294370D01*
X145927272Y-95261205D01*
X145924463Y-95243424D01*
X145923221Y-95241778D01*
X145911799Y-95248662D01*
X145889084Y-95266505D01*
X145866385Y-95285879D01*
X145811800Y-95326614D01*
X145742321Y-95367617D01*
X145665270Y-95405123D01*
X145587965Y-95435364D01*
X145557113Y-95445012D01*
X145488616Y-95459578D01*
X145405764Y-95469539D01*
X145316371Y-95474583D01*
X145228248Y-95474396D01*
X145149207Y-95468666D01*
X145111511Y-95462858D01*
X144973414Y-95424797D01*
X144846113Y-95367073D01*
X144730292Y-95290211D01*
X144626637Y-95194739D01*
X144535833Y-95081179D01*
X144469031Y-94970381D01*
X144414164Y-94853625D01*
X144372163Y-94734276D01*
X144342167Y-94608283D01*
X144323311Y-94471594D01*
X144314732Y-94320158D01*
X144314006Y-94242711D01*
X144316100Y-94185934D01*
X145145217Y-94185934D01*
X145145424Y-94279002D01*
X145148337Y-94366692D01*
X145154000Y-94443772D01*
X145162455Y-94505009D01*
X145165038Y-94517350D01*
X145196840Y-94624633D01*
X145238498Y-94711658D01*
X145290363Y-94778642D01*
X145352781Y-94825805D01*
X145426100Y-94853365D01*
X145510669Y-94861541D01*
X145606835Y-94850551D01*
X145670311Y-94834829D01*
X145719454Y-94816639D01*
X145773583Y-94790791D01*
X145814244Y-94767089D01*
X145884800Y-94720721D01*
X145884800Y-93570530D01*
X145817392Y-93526962D01*
X145738867Y-93486040D01*
X145654681Y-93459389D01*
X145569557Y-93447465D01*
X145488216Y-93450722D01*
X145415380Y-93469615D01*
X145383426Y-93485184D01*
X145325501Y-93528181D01*
X145276544Y-93584953D01*
X145235390Y-93657575D01*
X145200874Y-93748121D01*
X145171833Y-93858666D01*
X145170552Y-93864533D01*
X145160381Y-93926788D01*
X145152739Y-94004594D01*
X145147670Y-94092720D01*
X145145217Y-94185934D01*
X144316100Y-94185934D01*
X144321857Y-94029895D01*
X144343802Y-93834059D01*
X144379786Y-93655332D01*
X144429759Y-93493845D01*
X144493668Y-93349726D01*
X144571462Y-93223106D01*
X144663089Y-93114115D01*
X144768497Y-93022883D01*
X144813662Y-92991932D01*
X144914611Y-92935785D01*
X145017901Y-92896174D01*
X145127989Y-92872014D01*
X145249330Y-92862219D01*
X145341836Y-92863265D01*
X145471490Y-92874231D01*
X145584084Y-92896046D01*
X145682875Y-92929714D01*
X145771121Y-92976236D01*
X145819986Y-93010448D01*
X145849353Y-93032362D01*
X145871043Y-93047333D01*
X145879253Y-93051733D01*
X145880868Y-93040904D01*
X145882159Y-93010251D01*
X145883138Y-92962526D01*
X145883817Y-92900479D01*
X145884210Y-92826862D01*
X145884330Y-92744427D01*
X145884188Y-92655925D01*
X145883797Y-92564107D01*
X145883171Y-92471724D01*
X145882320Y-92381528D01*
X145881260Y-92296271D01*
X145880001Y-92218703D01*
X145878556Y-92151576D01*
X145876938Y-92097641D01*
X145875161Y-92059650D01*
X145874669Y-92052667D01*
X145867092Y-91982251D01*
X145855531Y-91927102D01*
X145837792Y-91879981D01*
X145811682Y-91833647D01*
X145805415Y-91824067D01*
X145780983Y-91787378D01*
X146686311Y-91787378D01*
X146686507Y-93472245D01*
G37*
X143173574Y-92866552D02*
X143325492Y-92886567D01*
X143460756Y-92920202D01*
X143580239Y-92967725D01*
X143684815Y-93029405D01*
X143762424Y-93092965D01*
X143831265Y-93167099D01*
X143885006Y-93246871D01*
X143927910Y-93339091D01*
X143943384Y-93382161D01*
X143956244Y-93421142D01*
X143967446Y-93457289D01*
X143977120Y-93492434D01*
X143985396Y-93528410D01*
X143992403Y-93567050D01*
X143998272Y-93610185D01*
X144003131Y-93659649D01*
X144007110Y-93717273D01*
X144010340Y-93784891D01*
X144012949Y-93864334D01*
X144015067Y-93957436D01*
X144016824Y-94066027D01*
X144018349Y-94191942D01*
X144019772Y-94337012D01*
X144021025Y-94479778D01*
X144022351Y-94635968D01*
X144023556Y-94771239D01*
X144024766Y-94887246D01*
X144026106Y-94985645D01*
X144027700Y-95068093D01*
X144029675Y-95136246D01*
X144032156Y-95191760D01*
X144035269Y-95236292D01*
X144039138Y-95271498D01*
X144043889Y-95299034D01*
X144049648Y-95320556D01*
X144056539Y-95337722D01*
X144064689Y-95352186D01*
X144074223Y-95365606D01*
X144085266Y-95379638D01*
X144089566Y-95385071D01*
X144105386Y-95407910D01*
X144112422Y-95423463D01*
X144112444Y-95423922D01*
X144101567Y-95426121D01*
X144070582Y-95428147D01*
X144021957Y-95429942D01*
X143958163Y-95431451D01*
X143881669Y-95432616D01*
X143794944Y-95433380D01*
X143700457Y-95433686D01*
X143689550Y-95433689D01*
X143266657Y-95433689D01*
X143263395Y-95337622D01*
X143260133Y-95241556D01*
X143198044Y-95292543D01*
X143100714Y-95360057D01*
X142990813Y-95414749D01*
X142904349Y-95444978D01*
X142835278Y-95459666D01*
X142751925Y-95469659D01*
X142662159Y-95474646D01*
X142573845Y-95474313D01*
X142494851Y-95468351D01*
X142458622Y-95462638D01*
X142318603Y-95424776D01*
X142192178Y-95369932D01*
X142080260Y-95298924D01*
X141983762Y-95212568D01*
X141903600Y-95111679D01*
X141840687Y-94997076D01*
X141796312Y-94870984D01*
X141783978Y-94814401D01*
X141776368Y-94752202D01*
X141772739Y-94677363D01*
X141772245Y-94643467D01*
X141772310Y-94640282D01*
X142532248Y-94640282D01*
X142541541Y-94715333D01*
X142569728Y-94779160D01*
X142618197Y-94834798D01*
X142623254Y-94839211D01*
X142671548Y-94874037D01*
X142723257Y-94896620D01*
X142783989Y-94908540D01*
X142859352Y-94911383D01*
X142877459Y-94910978D01*
X142931278Y-94908325D01*
X142971308Y-94902909D01*
X143006324Y-94892745D01*
X143045103Y-94875850D01*
X143055745Y-94870672D01*
X143116396Y-94834844D01*
X143163215Y-94792212D01*
X143175952Y-94776973D01*
X143220622Y-94720462D01*
X143220622Y-94524586D01*
X143220086Y-94445939D01*
X143218396Y-94387988D01*
X143215428Y-94348875D01*
X143211057Y-94326741D01*
X143206972Y-94320274D01*
X143191047Y-94317111D01*
X143157264Y-94314488D01*
X143110340Y-94312655D01*
X143054993Y-94311857D01*
X143046106Y-94311842D01*
X142925330Y-94317096D01*
X142822660Y-94333263D01*
X142736106Y-94360961D01*
X142663681Y-94400808D01*
X142608751Y-94447758D01*
X142564204Y-94505645D01*
X142539480Y-94568693D01*
X142532248Y-94640282D01*
X141772310Y-94640282D01*
X141774178Y-94549712D01*
X141782522Y-94470812D01*
X141798768Y-94399590D01*
X141824405Y-94328864D01*
X141848401Y-94276493D01*
X141907020Y-94181196D01*
X141985117Y-94093170D01*
X142080315Y-94014017D01*
X142190238Y-93945340D01*
X142312510Y-93888741D01*
X142444755Y-93845821D01*
X142509422Y-93830882D01*
X142645604Y-93808777D01*
X142794049Y-93794194D01*
X142945505Y-93787813D01*
X143072064Y-93789445D01*
X143233950Y-93796224D01*
X143226530Y-93737245D01*
X143207238Y-93638092D01*
X143176104Y-93557372D01*
X143132269Y-93494466D01*
X143074871Y-93448756D01*
X143003048Y-93419622D01*
X142915941Y-93406447D01*
X142812686Y-93408611D01*
X142774711Y-93412612D01*
X142633520Y-93437780D01*
X142496707Y-93478814D01*
X142402178Y-93516815D01*
X142357018Y-93536190D01*
X142318585Y-93551760D01*
X142292234Y-93561405D01*
X142284546Y-93563452D01*
X142274802Y-93554374D01*
X142258083Y-93525405D01*
X142234232Y-93476217D01*
X142203093Y-93406484D01*
X142164507Y-93315879D01*
X142157910Y-93300089D01*
X142127853Y-93227772D01*
X142100874Y-93162425D01*
X142078136Y-93106906D01*
X142060806Y-93064072D01*
X142050048Y-93036781D01*
X142046941Y-93027942D01*
X142056940Y-93023187D01*
X142083217Y-93017910D01*
X142111489Y-93014231D01*
X142141646Y-93009474D01*
X142189433Y-93000028D01*
X142250612Y-92986820D01*
X142320946Y-92970776D01*
X142396194Y-92952820D01*
X142424755Y-92945797D01*
X142529816Y-92920209D01*
X142617480Y-92900147D01*
X142692068Y-92884969D01*
X142757903Y-92874035D01*
X142819307Y-92866704D01*
X142880602Y-92862335D01*
X142946110Y-92860287D01*
X143004128Y-92859889D01*
X143173574Y-92866552D01*
G36*
X143173574Y-92866552D02*
G01*
X143325492Y-92886567D01*
X143460756Y-92920202D01*
X143580239Y-92967725D01*
X143684815Y-93029405D01*
X143762424Y-93092965D01*
X143831265Y-93167099D01*
X143885006Y-93246871D01*
X143927910Y-93339091D01*
X143943384Y-93382161D01*
X143956244Y-93421142D01*
X143967446Y-93457289D01*
X143977120Y-93492434D01*
X143985396Y-93528410D01*
X143992403Y-93567050D01*
X143998272Y-93610185D01*
X144003131Y-93659649D01*
X144007110Y-93717273D01*
X144010340Y-93784891D01*
X144012949Y-93864334D01*
X144015067Y-93957436D01*
X144016824Y-94066027D01*
X144018349Y-94191942D01*
X144019772Y-94337012D01*
X144021025Y-94479778D01*
X144022351Y-94635968D01*
X144023556Y-94771239D01*
X144024766Y-94887246D01*
X144026106Y-94985645D01*
X144027700Y-95068093D01*
X144029675Y-95136246D01*
X144032156Y-95191760D01*
X144035269Y-95236292D01*
X144039138Y-95271498D01*
X144043889Y-95299034D01*
X144049648Y-95320556D01*
X144056539Y-95337722D01*
X144064689Y-95352186D01*
X144074223Y-95365606D01*
X144085266Y-95379638D01*
X144089566Y-95385071D01*
X144105386Y-95407910D01*
X144112422Y-95423463D01*
X144112444Y-95423922D01*
X144101567Y-95426121D01*
X144070582Y-95428147D01*
X144021957Y-95429942D01*
X143958163Y-95431451D01*
X143881669Y-95432616D01*
X143794944Y-95433380D01*
X143700457Y-95433686D01*
X143689550Y-95433689D01*
X143266657Y-95433689D01*
X143263395Y-95337622D01*
X143260133Y-95241556D01*
X143198044Y-95292543D01*
X143100714Y-95360057D01*
X142990813Y-95414749D01*
X142904349Y-95444978D01*
X142835278Y-95459666D01*
X142751925Y-95469659D01*
X142662159Y-95474646D01*
X142573845Y-95474313D01*
X142494851Y-95468351D01*
X142458622Y-95462638D01*
X142318603Y-95424776D01*
X142192178Y-95369932D01*
X142080260Y-95298924D01*
X141983762Y-95212568D01*
X141903600Y-95111679D01*
X141840687Y-94997076D01*
X141796312Y-94870984D01*
X141783978Y-94814401D01*
X141776368Y-94752202D01*
X141772739Y-94677363D01*
X141772245Y-94643467D01*
X141772310Y-94640282D01*
X142532248Y-94640282D01*
X142541541Y-94715333D01*
X142569728Y-94779160D01*
X142618197Y-94834798D01*
X142623254Y-94839211D01*
X142671548Y-94874037D01*
X142723257Y-94896620D01*
X142783989Y-94908540D01*
X142859352Y-94911383D01*
X142877459Y-94910978D01*
X142931278Y-94908325D01*
X142971308Y-94902909D01*
X143006324Y-94892745D01*
X143045103Y-94875850D01*
X143055745Y-94870672D01*
X143116396Y-94834844D01*
X143163215Y-94792212D01*
X143175952Y-94776973D01*
X143220622Y-94720462D01*
X143220622Y-94524586D01*
X143220086Y-94445939D01*
X143218396Y-94387988D01*
X143215428Y-94348875D01*
X143211057Y-94326741D01*
X143206972Y-94320274D01*
X143191047Y-94317111D01*
X143157264Y-94314488D01*
X143110340Y-94312655D01*
X143054993Y-94311857D01*
X143046106Y-94311842D01*
X142925330Y-94317096D01*
X142822660Y-94333263D01*
X142736106Y-94360961D01*
X142663681Y-94400808D01*
X142608751Y-94447758D01*
X142564204Y-94505645D01*
X142539480Y-94568693D01*
X142532248Y-94640282D01*
X141772310Y-94640282D01*
X141774178Y-94549712D01*
X141782522Y-94470812D01*
X141798768Y-94399590D01*
X141824405Y-94328864D01*
X141848401Y-94276493D01*
X141907020Y-94181196D01*
X141985117Y-94093170D01*
X142080315Y-94014017D01*
X142190238Y-93945340D01*
X142312510Y-93888741D01*
X142444755Y-93845821D01*
X142509422Y-93830882D01*
X142645604Y-93808777D01*
X142794049Y-93794194D01*
X142945505Y-93787813D01*
X143072064Y-93789445D01*
X143233950Y-93796224D01*
X143226530Y-93737245D01*
X143207238Y-93638092D01*
X143176104Y-93557372D01*
X143132269Y-93494466D01*
X143074871Y-93448756D01*
X143003048Y-93419622D01*
X142915941Y-93406447D01*
X142812686Y-93408611D01*
X142774711Y-93412612D01*
X142633520Y-93437780D01*
X142496707Y-93478814D01*
X142402178Y-93516815D01*
X142357018Y-93536190D01*
X142318585Y-93551760D01*
X142292234Y-93561405D01*
X142284546Y-93563452D01*
X142274802Y-93554374D01*
X142258083Y-93525405D01*
X142234232Y-93476217D01*
X142203093Y-93406484D01*
X142164507Y-93315879D01*
X142157910Y-93300089D01*
X142127853Y-93227772D01*
X142100874Y-93162425D01*
X142078136Y-93106906D01*
X142060806Y-93064072D01*
X142050048Y-93036781D01*
X142046941Y-93027942D01*
X142056940Y-93023187D01*
X142083217Y-93017910D01*
X142111489Y-93014231D01*
X142141646Y-93009474D01*
X142189433Y-93000028D01*
X142250612Y-92986820D01*
X142320946Y-92970776D01*
X142396194Y-92952820D01*
X142424755Y-92945797D01*
X142529816Y-92920209D01*
X142617480Y-92900147D01*
X142692068Y-92884969D01*
X142757903Y-92874035D01*
X142819307Y-92866704D01*
X142880602Y-92862335D01*
X142946110Y-92860287D01*
X143004128Y-92859889D01*
X143173574Y-92866552D01*
G37*
X137553600Y-91489054D02*
X137564465Y-91602993D01*
X137596082Y-91710616D01*
X137646985Y-91809615D01*
X137715707Y-91897684D01*
X137800781Y-91972516D01*
X137897768Y-92030384D01*
X138004036Y-92070005D01*
X138111050Y-92088573D01*
X138216700Y-92087434D01*
X138318875Y-92067930D01*
X138415466Y-92031406D01*
X138504362Y-91979205D01*
X138583454Y-91912673D01*
X138650631Y-91833152D01*
X138703783Y-91741987D01*
X138740801Y-91640523D01*
X138759573Y-91530102D01*
X138761511Y-91480206D01*
X138761511Y-91392267D01*
X138813440Y-91392267D01*
X138849747Y-91395111D01*
X138876645Y-91406911D01*
X138903751Y-91430649D01*
X138942133Y-91469031D01*
X138942133Y-93660602D01*
X138942124Y-93922739D01*
X138942092Y-94163241D01*
X138942028Y-94383048D01*
X138941924Y-94583101D01*
X138941773Y-94764344D01*
X138941566Y-94927716D01*
X138941294Y-95074160D01*
X138940950Y-95204617D01*
X138940526Y-95320029D01*
X138940013Y-95421338D01*
X138939403Y-95509484D01*
X138938688Y-95585410D01*
X138937860Y-95650057D01*
X138936911Y-95704367D01*
X138935833Y-95749280D01*
X138934617Y-95785740D01*
X138933255Y-95814687D01*
X138931739Y-95837063D01*
X138930062Y-95853809D01*
X138928214Y-95865868D01*
X138926187Y-95874180D01*
X138923975Y-95879687D01*
X138922892Y-95881537D01*
X138918729Y-95888549D01*
X138915195Y-95894996D01*
X138911365Y-95900900D01*
X138906318Y-95906286D01*
X138899129Y-95911178D01*
X138888877Y-95915598D01*
X138874636Y-95919572D01*
X138855486Y-95923121D01*
X138830501Y-95926270D01*
X138798760Y-95929042D01*
X138759338Y-95931461D01*
X138711314Y-95933551D01*
X138653763Y-95935335D01*
X138585763Y-95936837D01*
X138506390Y-95938080D01*
X138414721Y-95939089D01*
X138309834Y-95939885D01*
X138190804Y-95940494D01*
X138056710Y-95940939D01*
X137906627Y-95941243D01*
X137739633Y-95941430D01*
X137554804Y-95941524D01*
X137351217Y-95941548D01*
X137127950Y-95941525D01*
X136884078Y-95941480D01*
X136618679Y-95941437D01*
X136580296Y-95941432D01*
X136313318Y-95941389D01*
X136067998Y-95941318D01*
X135843417Y-95941213D01*
X135638655Y-95941066D01*
X135452794Y-95940869D01*
X135284912Y-95940616D01*
X135134092Y-95940300D01*
X134999413Y-95939913D01*
X134879956Y-95939447D01*
X134774801Y-95938897D01*
X134683029Y-95938253D01*
X134603721Y-95937511D01*
X134535957Y-95936661D01*
X134478818Y-95935697D01*
X134431383Y-95934611D01*
X134392734Y-95933397D01*
X134361951Y-95932047D01*
X134338115Y-95930555D01*
X134320306Y-95928911D01*
X134307605Y-95927111D01*
X134299092Y-95925145D01*
X134294734Y-95923477D01*
X134286272Y-95919906D01*
X134278503Y-95917270D01*
X134271398Y-95914634D01*
X134264927Y-95911062D01*
X134259061Y-95905621D01*
X134253771Y-95897375D01*
X134249026Y-95885390D01*
X134244798Y-95868731D01*
X134241057Y-95846463D01*
X134237773Y-95817652D01*
X134234917Y-95781363D01*
X134232460Y-95736661D01*
X134230371Y-95682611D01*
X134228622Y-95618279D01*
X134227183Y-95542730D01*
X134226024Y-95455030D01*
X134225117Y-95354243D01*
X134224431Y-95239434D01*
X134223937Y-95109670D01*
X134223605Y-94964015D01*
X134223407Y-94801535D01*
X134223313Y-94621295D01*
X134223292Y-94422360D01*
X134223315Y-94203796D01*
X134223354Y-93964668D01*
X134223378Y-93704040D01*
X134223378Y-93661889D01*
X134223364Y-93398992D01*
X134223339Y-93157732D01*
X134223329Y-92937165D01*
X134223358Y-92736352D01*
X134223452Y-92554349D01*
X134223638Y-92390216D01*
X134223941Y-92243011D01*
X134224386Y-92111792D01*
X134224966Y-92001867D01*
X134527803Y-92001867D01*
X134567593Y-92059711D01*
X134578764Y-92075479D01*
X134588834Y-92089441D01*
X134597862Y-92102784D01*
X134605903Y-92116693D01*
X134613014Y-92132356D01*
X134619253Y-92150958D01*
X134624675Y-92173686D01*
X134629338Y-92201727D01*
X134633299Y-92236267D01*
X134636615Y-92278492D01*
X134639341Y-92329589D01*
X134641536Y-92390744D01*
X134643255Y-92463144D01*
X134644556Y-92547975D01*
X134645495Y-92646422D01*
X134646130Y-92759674D01*
X134646516Y-92888916D01*
X134646712Y-93035334D01*
X134646773Y-93200116D01*
X134646757Y-93384447D01*
X134646720Y-93589513D01*
X134646711Y-93712133D01*
X134646735Y-93929082D01*
X134646769Y-94124642D01*
X134646757Y-94299999D01*
X134646642Y-94456341D01*
X134646370Y-94594857D01*
X134645882Y-94716734D01*
X134645124Y-94823160D01*
X134644038Y-94915322D01*
X134642569Y-94994409D01*
X134640660Y-95061608D01*
X134638256Y-95118107D01*
X134635299Y-95165093D01*
X134631734Y-95203755D01*
X134627505Y-95235280D01*
X134622554Y-95260855D01*
X134616827Y-95281670D01*
X134610267Y-95298911D01*
X134602817Y-95313765D01*
X134594421Y-95327422D01*
X134585024Y-95341069D01*
X134574568Y-95355893D01*
X134568477Y-95364783D01*
X134529704Y-95422400D01*
X135061268Y-95422400D01*
X135184517Y-95422365D01*
X135287013Y-95422215D01*
X135370580Y-95421878D01*
X135437044Y-95421286D01*
X135488229Y-95420367D01*
X135525959Y-95419051D01*
X135552060Y-95417269D01*
X135568356Y-95414951D01*
X135576672Y-95412026D01*
X135578832Y-95408424D01*
X135576661Y-95404075D01*
X135575465Y-95402645D01*
X135550315Y-95365573D01*
X135524417Y-95312772D01*
X135500808Y-95250770D01*
X135492539Y-95224357D01*
X135487922Y-95206416D01*
X135484021Y-95185355D01*
X135480752Y-95159089D01*
X135478034Y-95125532D01*
X135475785Y-95082599D01*
X135473923Y-95028204D01*
X135472364Y-94960262D01*
X135471028Y-94876688D01*
X135469831Y-94775395D01*
X135468692Y-94654300D01*
X135468315Y-94609600D01*
X135467298Y-94484449D01*
X135466540Y-94380082D01*
X135466097Y-94294707D01*
X135466030Y-94226533D01*
X135466395Y-94173765D01*
X135467252Y-94134614D01*
X135468659Y-94107285D01*
X135470675Y-94089986D01*
X135473357Y-94080926D01*
X135476764Y-94078312D01*
X135480956Y-94080351D01*
X135485429Y-94084667D01*
X135495784Y-94097602D01*
X135517842Y-94126676D01*
X135550043Y-94169759D01*
X135590826Y-94224718D01*
X135638630Y-94289423D01*
X135691895Y-94361742D01*
X135749060Y-94439544D01*
X135808563Y-94520698D01*
X135868845Y-94603072D01*
X135928345Y-94684536D01*
X135985502Y-94762957D01*
X136038755Y-94836204D01*
X136086543Y-94902147D01*
X136127307Y-94958654D01*
X136159484Y-95003593D01*
X136181515Y-95034834D01*
X136186083Y-95041466D01*
X136209004Y-95078369D01*
X136235812Y-95126359D01*
X136261211Y-95175897D01*
X136264432Y-95182577D01*
X136286110Y-95230772D01*
X136298696Y-95268334D01*
X136304426Y-95304160D01*
X136305544Y-95346200D01*
X136304910Y-95422400D01*
X137459349Y-95422400D01*
X137368185Y-95328669D01*
X137321388Y-95278775D01*
X137271101Y-95222295D01*
X137225056Y-95168026D01*
X137204631Y-95142673D01*
X137174193Y-95103128D01*
X137134138Y-95049916D01*
X137085639Y-94984667D01*
X137029865Y-94909011D01*
X136967989Y-94824577D01*
X136901181Y-94732994D01*
X136830613Y-94635892D01*
X136757455Y-94534901D01*
X136682879Y-94431650D01*
X136608056Y-94327768D01*
X136534157Y-94224885D01*
X136462354Y-94124631D01*
X136393816Y-94028636D01*
X136329716Y-93938527D01*
X136271225Y-93855936D01*
X136219514Y-93782492D01*
X136175753Y-93719824D01*
X136141115Y-93669561D01*
X136116770Y-93633334D01*
X136103889Y-93612771D01*
X136102131Y-93608668D01*
X136110090Y-93597342D01*
X136130885Y-93570162D01*
X136163153Y-93528829D01*
X136205530Y-93475044D01*
X136256653Y-93410506D01*
X136315159Y-93336918D01*
X136379686Y-93255978D01*
X136448869Y-93169388D01*
X136521347Y-93078848D01*
X136595754Y-92986060D01*
X136655483Y-92911702D01*
X137666489Y-92911702D01*
X137672398Y-92924659D01*
X137686728Y-92946908D01*
X137687775Y-92948391D01*
X137706562Y-92978544D01*
X137726209Y-93015375D01*
X137730108Y-93023511D01*
X137733644Y-93031940D01*
X137736770Y-93042059D01*
X137739514Y-93055260D01*
X137741908Y-93072938D01*
X137743981Y-93096484D01*
X137745765Y-93127293D01*
X137747288Y-93166757D01*
X137748581Y-93216269D01*
X137749674Y-93277223D01*
X137750597Y-93351011D01*
X137751381Y-93439028D01*
X137752055Y-93542665D01*
X137752650Y-93663316D01*
X137753195Y-93802374D01*
X137753721Y-93961232D01*
X137754255Y-94140089D01*
X137754794Y-94325207D01*
X137755228Y-94489145D01*
X137755491Y-94633303D01*
X137755516Y-94759079D01*
X137755235Y-94867871D01*
X137754581Y-94961077D01*
X137753486Y-95040097D01*
X137751882Y-95106328D01*
X137749703Y-95161170D01*
X137746881Y-95206021D01*
X137743349Y-95242278D01*
X137739039Y-95271341D01*
X137733883Y-95294609D01*
X137727815Y-95313479D01*
X137720767Y-95329351D01*
X137712671Y-95343622D01*
X137703460Y-95357691D01*
X137694960Y-95370158D01*
X137677824Y-95396452D01*
X137667678Y-95414037D01*
X137666489Y-95417257D01*
X137677396Y-95418334D01*
X137708589Y-95419335D01*
X137757777Y-95420235D01*
X137822667Y-95421010D01*
X137900970Y-95421637D01*
X137990393Y-95422091D01*
X138088644Y-95422349D01*
X138157555Y-95422400D01*
X138262548Y-95422180D01*
X138359390Y-95421548D01*
X138445893Y-95420549D01*
X138519868Y-95419227D01*
X138579126Y-95417626D01*
X138621480Y-95415791D01*
X138644740Y-95413765D01*
X138648622Y-95412493D01*
X138640924Y-95397591D01*
X138632926Y-95389560D01*
X138619754Y-95372434D01*
X138602515Y-95342183D01*
X138590593Y-95317622D01*
X138563955Y-95258711D01*
X138560880Y-94081845D01*
X138557805Y-92904978D01*
X138112147Y-92904978D01*
X138014330Y-92905142D01*
X137923936Y-92905611D01*
X137843370Y-92906347D01*
X137775038Y-92907316D01*
X137721344Y-92908480D01*
X137684695Y-92909803D01*
X137667496Y-92911249D01*
X137666489Y-92911702D01*
X136655483Y-92911702D01*
X136670730Y-92892722D01*
X136744910Y-92800537D01*
X136816931Y-92711204D01*
X136885431Y-92626424D01*
X136949045Y-92547898D01*
X137006412Y-92477326D01*
X137056167Y-92416409D01*
X137096948Y-92366847D01*
X137114112Y-92346178D01*
X137200404Y-92245516D01*
X137277003Y-92162259D01*
X137345817Y-92094438D01*
X137408752Y-92040089D01*
X137418133Y-92032722D01*
X137457644Y-92002117D01*
X136325884Y-92001867D01*
X136331173Y-92049844D01*
X136327870Y-92107188D01*
X136306339Y-92175463D01*
X136266365Y-92255212D01*
X136221057Y-92327495D01*
X136204839Y-92350140D01*
X136176786Y-92387696D01*
X136138570Y-92438021D01*
X136091863Y-92498973D01*
X136038339Y-92568411D01*
X135979669Y-92644194D01*
X135917525Y-92724180D01*
X135853579Y-92806228D01*
X135789505Y-92888196D01*
X135726973Y-92967943D01*
X135667657Y-93043327D01*
X135613229Y-93112207D01*
X135565361Y-93172442D01*
X135525725Y-93221889D01*
X135495994Y-93258408D01*
X135477839Y-93279858D01*
X135474780Y-93283156D01*
X135471921Y-93275149D01*
X135469707Y-93244855D01*
X135468143Y-93192556D01*
X135467233Y-93118531D01*
X135466980Y-93023063D01*
X135467387Y-92906434D01*
X135468296Y-92786445D01*
X135469618Y-92654333D01*
X135471143Y-92542594D01*
X135473119Y-92449025D01*
X135475794Y-92371419D01*
X135479418Y-92307574D01*
X135484239Y-92255283D01*
X135490506Y-92212344D01*
X135498468Y-92176551D01*
X135508373Y-92145700D01*
X135520469Y-92117586D01*
X135535007Y-92090005D01*
X135549689Y-92064966D01*
X135587686Y-92001867D01*
X134527803Y-92001867D01*
X134224966Y-92001867D01*
X134224999Y-91995617D01*
X134225805Y-91893544D01*
X134226830Y-91804633D01*
X134228100Y-91727941D01*
X134229640Y-91662527D01*
X134231476Y-91607449D01*
X134233633Y-91561765D01*
X134236137Y-91524534D01*
X134239013Y-91494813D01*
X134242287Y-91471662D01*
X134245985Y-91454139D01*
X134250131Y-91441301D01*
X134254753Y-91432208D01*
X134259874Y-91425918D01*
X134265522Y-91421488D01*
X134271721Y-91417978D01*
X134278496Y-91414445D01*
X134284492Y-91410876D01*
X134289725Y-91408300D01*
X134297901Y-91405972D01*
X134310114Y-91403878D01*
X134327459Y-91402007D01*
X134351031Y-91400347D01*
X134381923Y-91398884D01*
X134421232Y-91397608D01*
X134470050Y-91396504D01*
X134529473Y-91395561D01*
X134600596Y-91394767D01*
X134684512Y-91394109D01*
X134782317Y-91393575D01*
X134895106Y-91393153D01*
X135023971Y-91392829D01*
X135170009Y-91392592D01*
X135334314Y-91392430D01*
X135517980Y-91392330D01*
X135722103Y-91392280D01*
X135933247Y-91392267D01*
X137553600Y-91392267D01*
X137553600Y-91489054D01*
G36*
X137553600Y-91489054D02*
G01*
X137564465Y-91602993D01*
X137596082Y-91710616D01*
X137646985Y-91809615D01*
X137715707Y-91897684D01*
X137800781Y-91972516D01*
X137897768Y-92030384D01*
X138004036Y-92070005D01*
X138111050Y-92088573D01*
X138216700Y-92087434D01*
X138318875Y-92067930D01*
X138415466Y-92031406D01*
X138504362Y-91979205D01*
X138583454Y-91912673D01*
X138650631Y-91833152D01*
X138703783Y-91741987D01*
X138740801Y-91640523D01*
X138759573Y-91530102D01*
X138761511Y-91480206D01*
X138761511Y-91392267D01*
X138813440Y-91392267D01*
X138849747Y-91395111D01*
X138876645Y-91406911D01*
X138903751Y-91430649D01*
X138942133Y-91469031D01*
X138942133Y-93660602D01*
X138942124Y-93922739D01*
X138942092Y-94163241D01*
X138942028Y-94383048D01*
X138941924Y-94583101D01*
X138941773Y-94764344D01*
X138941566Y-94927716D01*
X138941294Y-95074160D01*
X138940950Y-95204617D01*
X138940526Y-95320029D01*
X138940013Y-95421338D01*
X138939403Y-95509484D01*
X138938688Y-95585410D01*
X138937860Y-95650057D01*
X138936911Y-95704367D01*
X138935833Y-95749280D01*
X138934617Y-95785740D01*
X138933255Y-95814687D01*
X138931739Y-95837063D01*
X138930062Y-95853809D01*
X138928214Y-95865868D01*
X138926187Y-95874180D01*
X138923975Y-95879687D01*
X138922892Y-95881537D01*
X138918729Y-95888549D01*
X138915195Y-95894996D01*
X138911365Y-95900900D01*
X138906318Y-95906286D01*
X138899129Y-95911178D01*
X138888877Y-95915598D01*
X138874636Y-95919572D01*
X138855486Y-95923121D01*
X138830501Y-95926270D01*
X138798760Y-95929042D01*
X138759338Y-95931461D01*
X138711314Y-95933551D01*
X138653763Y-95935335D01*
X138585763Y-95936837D01*
X138506390Y-95938080D01*
X138414721Y-95939089D01*
X138309834Y-95939885D01*
X138190804Y-95940494D01*
X138056710Y-95940939D01*
X137906627Y-95941243D01*
X137739633Y-95941430D01*
X137554804Y-95941524D01*
X137351217Y-95941548D01*
X137127950Y-95941525D01*
X136884078Y-95941480D01*
X136618679Y-95941437D01*
X136580296Y-95941432D01*
X136313318Y-95941389D01*
X136067998Y-95941318D01*
X135843417Y-95941213D01*
X135638655Y-95941066D01*
X135452794Y-95940869D01*
X135284912Y-95940616D01*
X135134092Y-95940300D01*
X134999413Y-95939913D01*
X134879956Y-95939447D01*
X134774801Y-95938897D01*
X134683029Y-95938253D01*
X134603721Y-95937511D01*
X134535957Y-95936661D01*
X134478818Y-95935697D01*
X134431383Y-95934611D01*
X134392734Y-95933397D01*
X134361951Y-95932047D01*
X134338115Y-95930555D01*
X134320306Y-95928911D01*
X134307605Y-95927111D01*
X134299092Y-95925145D01*
X134294734Y-95923477D01*
X134286272Y-95919906D01*
X134278503Y-95917270D01*
X134271398Y-95914634D01*
X134264927Y-95911062D01*
X134259061Y-95905621D01*
X134253771Y-95897375D01*
X134249026Y-95885390D01*
X134244798Y-95868731D01*
X134241057Y-95846463D01*
X134237773Y-95817652D01*
X134234917Y-95781363D01*
X134232460Y-95736661D01*
X134230371Y-95682611D01*
X134228622Y-95618279D01*
X134227183Y-95542730D01*
X134226024Y-95455030D01*
X134225117Y-95354243D01*
X134224431Y-95239434D01*
X134223937Y-95109670D01*
X134223605Y-94964015D01*
X134223407Y-94801535D01*
X134223313Y-94621295D01*
X134223292Y-94422360D01*
X134223315Y-94203796D01*
X134223354Y-93964668D01*
X134223378Y-93704040D01*
X134223378Y-93661889D01*
X134223364Y-93398992D01*
X134223339Y-93157732D01*
X134223329Y-92937165D01*
X134223358Y-92736352D01*
X134223452Y-92554349D01*
X134223638Y-92390216D01*
X134223941Y-92243011D01*
X134224386Y-92111792D01*
X134224966Y-92001867D01*
X134527803Y-92001867D01*
X134567593Y-92059711D01*
X134578764Y-92075479D01*
X134588834Y-92089441D01*
X134597862Y-92102784D01*
X134605903Y-92116693D01*
X134613014Y-92132356D01*
X134619253Y-92150958D01*
X134624675Y-92173686D01*
X134629338Y-92201727D01*
X134633299Y-92236267D01*
X134636615Y-92278492D01*
X134639341Y-92329589D01*
X134641536Y-92390744D01*
X134643255Y-92463144D01*
X134644556Y-92547975D01*
X134645495Y-92646422D01*
X134646130Y-92759674D01*
X134646516Y-92888916D01*
X134646712Y-93035334D01*
X134646773Y-93200116D01*
X134646757Y-93384447D01*
X134646720Y-93589513D01*
X134646711Y-93712133D01*
X134646735Y-93929082D01*
X134646769Y-94124642D01*
X134646757Y-94299999D01*
X134646642Y-94456341D01*
X134646370Y-94594857D01*
X134645882Y-94716734D01*
X134645124Y-94823160D01*
X134644038Y-94915322D01*
X134642569Y-94994409D01*
X134640660Y-95061608D01*
X134638256Y-95118107D01*
X134635299Y-95165093D01*
X134631734Y-95203755D01*
X134627505Y-95235280D01*
X134622554Y-95260855D01*
X134616827Y-95281670D01*
X134610267Y-95298911D01*
X134602817Y-95313765D01*
X134594421Y-95327422D01*
X134585024Y-95341069D01*
X134574568Y-95355893D01*
X134568477Y-95364783D01*
X134529704Y-95422400D01*
X135061268Y-95422400D01*
X135184517Y-95422365D01*
X135287013Y-95422215D01*
X135370580Y-95421878D01*
X135437044Y-95421286D01*
X135488229Y-95420367D01*
X135525959Y-95419051D01*
X135552060Y-95417269D01*
X135568356Y-95414951D01*
X135576672Y-95412026D01*
X135578832Y-95408424D01*
X135576661Y-95404075D01*
X135575465Y-95402645D01*
X135550315Y-95365573D01*
X135524417Y-95312772D01*
X135500808Y-95250770D01*
X135492539Y-95224357D01*
X135487922Y-95206416D01*
X135484021Y-95185355D01*
X135480752Y-95159089D01*
X135478034Y-95125532D01*
X135475785Y-95082599D01*
X135473923Y-95028204D01*
X135472364Y-94960262D01*
X135471028Y-94876688D01*
X135469831Y-94775395D01*
X135468692Y-94654300D01*
X135468315Y-94609600D01*
X135467298Y-94484449D01*
X135466540Y-94380082D01*
X135466097Y-94294707D01*
X135466030Y-94226533D01*
X135466395Y-94173765D01*
X135467252Y-94134614D01*
X135468659Y-94107285D01*
X135470675Y-94089986D01*
X135473357Y-94080926D01*
X135476764Y-94078312D01*
X135480956Y-94080351D01*
X135485429Y-94084667D01*
X135495784Y-94097602D01*
X135517842Y-94126676D01*
X135550043Y-94169759D01*
X135590826Y-94224718D01*
X135638630Y-94289423D01*
X135691895Y-94361742D01*
X135749060Y-94439544D01*
X135808563Y-94520698D01*
X135868845Y-94603072D01*
X135928345Y-94684536D01*
X135985502Y-94762957D01*
X136038755Y-94836204D01*
X136086543Y-94902147D01*
X136127307Y-94958654D01*
X136159484Y-95003593D01*
X136181515Y-95034834D01*
X136186083Y-95041466D01*
X136209004Y-95078369D01*
X136235812Y-95126359D01*
X136261211Y-95175897D01*
X136264432Y-95182577D01*
X136286110Y-95230772D01*
X136298696Y-95268334D01*
X136304426Y-95304160D01*
X136305544Y-95346200D01*
X136304910Y-95422400D01*
X137459349Y-95422400D01*
X137454347Y-95417257D01*
X137666489Y-95417257D01*
X137677396Y-95418334D01*
X137708589Y-95419335D01*
X137757777Y-95420235D01*
X137822667Y-95421010D01*
X137900970Y-95421637D01*
X137990393Y-95422091D01*
X138088644Y-95422349D01*
X138157555Y-95422400D01*
X138262548Y-95422180D01*
X138359390Y-95421548D01*
X138445893Y-95420549D01*
X138519868Y-95419227D01*
X138579126Y-95417626D01*
X138621480Y-95415791D01*
X138644740Y-95413765D01*
X138648622Y-95412493D01*
X138640924Y-95397591D01*
X138632926Y-95389560D01*
X138619754Y-95372434D01*
X138602515Y-95342183D01*
X138590593Y-95317622D01*
X138563955Y-95258711D01*
X138560880Y-94081845D01*
X138557805Y-92904978D01*
X138112147Y-92904978D01*
X138014330Y-92905142D01*
X137923936Y-92905611D01*
X137843370Y-92906347D01*
X137775038Y-92907316D01*
X137721344Y-92908480D01*
X137684695Y-92909803D01*
X137667496Y-92911249D01*
X137666489Y-92911702D01*
X137672398Y-92924659D01*
X137686728Y-92946908D01*
X137687775Y-92948391D01*
X137706562Y-92978544D01*
X137726209Y-93015375D01*
X137730108Y-93023511D01*
X137733644Y-93031940D01*
X137736770Y-93042059D01*
X137739514Y-93055260D01*
X137741908Y-93072938D01*
X137743981Y-93096484D01*
X137745765Y-93127293D01*
X137747288Y-93166757D01*
X137748581Y-93216269D01*
X137749674Y-93277223D01*
X137750597Y-93351011D01*
X137751381Y-93439028D01*
X137752055Y-93542665D01*
X137752650Y-93663316D01*
X137753195Y-93802374D01*
X137753721Y-93961232D01*
X137754255Y-94140089D01*
X137754794Y-94325207D01*
X137755228Y-94489145D01*
X137755491Y-94633303D01*
X137755516Y-94759079D01*
X137755235Y-94867871D01*
X137754581Y-94961077D01*
X137753486Y-95040097D01*
X137751882Y-95106328D01*
X137749703Y-95161170D01*
X137746881Y-95206021D01*
X137743349Y-95242278D01*
X137739039Y-95271341D01*
X137733883Y-95294609D01*
X137727815Y-95313479D01*
X137720767Y-95329351D01*
X137712671Y-95343622D01*
X137703460Y-95357691D01*
X137694960Y-95370158D01*
X137677824Y-95396452D01*
X137667678Y-95414037D01*
X137666489Y-95417257D01*
X137454347Y-95417257D01*
X137368185Y-95328669D01*
X137321388Y-95278775D01*
X137271101Y-95222295D01*
X137225056Y-95168026D01*
X137204631Y-95142673D01*
X137174193Y-95103128D01*
X137134138Y-95049916D01*
X137085639Y-94984667D01*
X137029865Y-94909011D01*
X136967989Y-94824577D01*
X136901181Y-94732994D01*
X136830613Y-94635892D01*
X136757455Y-94534901D01*
X136682879Y-94431650D01*
X136608056Y-94327768D01*
X136534157Y-94224885D01*
X136462354Y-94124631D01*
X136393816Y-94028636D01*
X136329716Y-93938527D01*
X136271225Y-93855936D01*
X136219514Y-93782492D01*
X136175753Y-93719824D01*
X136141115Y-93669561D01*
X136116770Y-93633334D01*
X136103889Y-93612771D01*
X136102131Y-93608668D01*
X136110090Y-93597342D01*
X136130885Y-93570162D01*
X136163153Y-93528829D01*
X136205530Y-93475044D01*
X136256653Y-93410506D01*
X136315159Y-93336918D01*
X136379686Y-93255978D01*
X136448869Y-93169388D01*
X136521347Y-93078848D01*
X136595754Y-92986060D01*
X136655483Y-92911702D01*
X136670730Y-92892722D01*
X136744910Y-92800537D01*
X136816931Y-92711204D01*
X136885431Y-92626424D01*
X136949045Y-92547898D01*
X137006412Y-92477326D01*
X137056167Y-92416409D01*
X137096948Y-92366847D01*
X137114112Y-92346178D01*
X137200404Y-92245516D01*
X137277003Y-92162259D01*
X137345817Y-92094438D01*
X137408752Y-92040089D01*
X137418133Y-92032722D01*
X137457644Y-92002117D01*
X136325884Y-92001867D01*
X136331173Y-92049844D01*
X136327870Y-92107188D01*
X136306339Y-92175463D01*
X136266365Y-92255212D01*
X136221057Y-92327495D01*
X136204839Y-92350140D01*
X136176786Y-92387696D01*
X136138570Y-92438021D01*
X136091863Y-92498973D01*
X136038339Y-92568411D01*
X135979669Y-92644194D01*
X135917525Y-92724180D01*
X135853579Y-92806228D01*
X135789505Y-92888196D01*
X135726973Y-92967943D01*
X135667657Y-93043327D01*
X135613229Y-93112207D01*
X135565361Y-93172442D01*
X135525725Y-93221889D01*
X135495994Y-93258408D01*
X135477839Y-93279858D01*
X135474780Y-93283156D01*
X135471921Y-93275149D01*
X135469707Y-93244855D01*
X135468143Y-93192556D01*
X135467233Y-93118531D01*
X135466980Y-93023063D01*
X135467387Y-92906434D01*
X135468296Y-92786445D01*
X135469618Y-92654333D01*
X135471143Y-92542594D01*
X135473119Y-92449025D01*
X135475794Y-92371419D01*
X135479418Y-92307574D01*
X135484239Y-92255283D01*
X135490506Y-92212344D01*
X135498468Y-92176551D01*
X135508373Y-92145700D01*
X135520469Y-92117586D01*
X135535007Y-92090005D01*
X135549689Y-92064966D01*
X135587686Y-92001867D01*
X134527803Y-92001867D01*
X134224966Y-92001867D01*
X134224999Y-91995617D01*
X134225805Y-91893544D01*
X134226830Y-91804633D01*
X134228100Y-91727941D01*
X134229640Y-91662527D01*
X134231476Y-91607449D01*
X134233633Y-91561765D01*
X134236137Y-91524534D01*
X134239013Y-91494813D01*
X134242287Y-91471662D01*
X134245985Y-91454139D01*
X134250131Y-91441301D01*
X134254753Y-91432208D01*
X134259874Y-91425918D01*
X134265522Y-91421488D01*
X134271721Y-91417978D01*
X134278496Y-91414445D01*
X134284492Y-91410876D01*
X134289725Y-91408300D01*
X134297901Y-91405972D01*
X134310114Y-91403878D01*
X134327459Y-91402007D01*
X134351031Y-91400347D01*
X134381923Y-91398884D01*
X134421232Y-91397608D01*
X134470050Y-91396504D01*
X134529473Y-91395561D01*
X134600596Y-91394767D01*
X134684512Y-91394109D01*
X134782317Y-91393575D01*
X134895106Y-91393153D01*
X135023971Y-91392829D01*
X135170009Y-91392592D01*
X135334314Y-91392430D01*
X135517980Y-91392330D01*
X135722103Y-91392280D01*
X135933247Y-91392267D01*
X137553600Y-91392267D01*
X137553600Y-91489054D01*
G37*
D13*
G36*
X145316829Y-125534898D02*
G01*
X140625417Y-125534898D01*
X140625417Y-124392503D01*
X145316829Y-124392503D01*
X145316829Y-125534898D01*
G37*
G36*
X143948627Y-122069691D02*
G01*
X143956627Y-122070300D01*
X143964510Y-122071301D01*
X143972267Y-122072687D01*
X143979888Y-122074446D01*
X143987363Y-122076569D01*
X143994682Y-122079045D01*
X144001836Y-122081866D01*
X144008813Y-122085021D01*
X144015606Y-122088500D01*
X144022202Y-122092293D01*
X144028594Y-122096391D01*
X144034770Y-122100783D01*
X144040721Y-122105459D01*
X144046437Y-122110410D01*
X144051907Y-122115626D01*
X144057123Y-122121097D01*
X144062075Y-122126813D01*
X144066751Y-122132764D01*
X144071143Y-122138940D01*
X144075241Y-122145332D01*
X144079034Y-122151928D01*
X144082513Y-122158720D01*
X144085668Y-122165698D01*
X144088488Y-122172852D01*
X144090965Y-122180171D01*
X144093088Y-122187646D01*
X144094847Y-122195267D01*
X144096232Y-122203024D01*
X144097234Y-122210907D01*
X144097843Y-122218907D01*
X144098048Y-122227013D01*
X144097843Y-122235118D01*
X144097234Y-122243118D01*
X144096232Y-122251001D01*
X144094847Y-122258758D01*
X144093088Y-122266378D01*
X144090965Y-122273853D01*
X144088488Y-122281172D01*
X144085668Y-122288325D01*
X144082513Y-122295302D01*
X144079034Y-122302094D01*
X144075241Y-122308690D01*
X144071143Y-122315081D01*
X144066751Y-122321256D01*
X144062075Y-122327206D01*
X144057123Y-122332921D01*
X144051907Y-122338392D01*
X144046437Y-122343607D01*
X144040721Y-122348558D01*
X144034770Y-122353234D01*
X144028594Y-122357625D01*
X144022202Y-122361722D01*
X144015606Y-122365515D01*
X144008813Y-122368993D01*
X144001836Y-122372147D01*
X143994682Y-122374968D01*
X143987363Y-122377444D01*
X143979888Y-122379566D01*
X143972267Y-122381325D01*
X143964510Y-122382710D01*
X143956627Y-122383712D01*
X143948627Y-122384320D01*
X143940522Y-122384525D01*
X143932416Y-122384320D01*
X143924416Y-122383712D01*
X143916533Y-122382710D01*
X143908776Y-122381325D01*
X143901155Y-122379566D01*
X143893680Y-122377444D01*
X143886361Y-122374967D01*
X143879207Y-122372147D01*
X143872229Y-122368993D01*
X143865437Y-122365515D01*
X143858840Y-122361722D01*
X143852449Y-122357625D01*
X143846273Y-122353234D01*
X143840322Y-122348558D01*
X143834606Y-122343607D01*
X143829135Y-122338392D01*
X143823919Y-122332921D01*
X143818968Y-122327206D01*
X143814291Y-122321256D01*
X143809899Y-122315080D01*
X143805802Y-122308690D01*
X143802009Y-122302093D01*
X143798530Y-122295302D01*
X143795375Y-122288325D01*
X143792554Y-122281172D01*
X143790078Y-122273853D01*
X143787955Y-122266378D01*
X143786196Y-122258758D01*
X143784810Y-122251001D01*
X143783809Y-122243118D01*
X143783200Y-122235118D01*
X143782995Y-122227013D01*
X143783200Y-122218907D01*
X143783809Y-122210907D01*
X143784810Y-122203024D01*
X143786196Y-122195267D01*
X143787955Y-122187646D01*
X143790078Y-122180171D01*
X143792554Y-122172852D01*
X143795375Y-122165698D01*
X143798530Y-122158721D01*
X143802009Y-122151928D01*
X143805802Y-122145332D01*
X143809899Y-122138940D01*
X143814291Y-122132764D01*
X143818968Y-122126813D01*
X143823919Y-122121097D01*
X143829135Y-122115627D01*
X143834606Y-122110411D01*
X143840322Y-122105459D01*
X143846273Y-122100783D01*
X143852449Y-122096391D01*
X143858840Y-122092293D01*
X143865437Y-122088500D01*
X143872229Y-122085021D01*
X143879207Y-122081866D01*
X143886361Y-122079045D01*
X143893680Y-122076569D01*
X143901155Y-122074446D01*
X143908776Y-122072687D01*
X143916533Y-122071301D01*
X143924416Y-122070300D01*
X143932416Y-122069691D01*
X143940522Y-122069486D01*
X143948627Y-122069691D01*
G37*
G36*
X145842222Y-117663210D02*
G01*
X144603429Y-118925051D01*
X144629215Y-118925051D01*
X144629215Y-119489657D01*
X144260418Y-119489657D01*
X144063490Y-121602616D01*
X145520207Y-123136788D01*
X145423565Y-123228505D01*
X144400456Y-122149248D01*
X144401949Y-122158763D01*
X144403251Y-122168340D01*
X144404359Y-122177978D01*
X144405270Y-122187675D01*
X144405982Y-122197429D01*
X144406494Y-122207238D01*
X144406802Y-122217100D01*
X144406906Y-122227013D01*
X144406299Y-122251013D01*
X144404498Y-122274698D01*
X144401532Y-122298039D01*
X144397431Y-122321006D01*
X144392223Y-122343570D01*
X144385939Y-122365702D01*
X144378607Y-122387372D01*
X144370256Y-122408551D01*
X144360916Y-122429209D01*
X144350617Y-122449318D01*
X144339388Y-122468849D01*
X144327257Y-122487771D01*
X144314254Y-122506055D01*
X144300409Y-122523673D01*
X144285751Y-122540595D01*
X144270309Y-122556791D01*
X144254112Y-122572233D01*
X144237190Y-122586891D01*
X144219572Y-122600736D01*
X144201287Y-122613738D01*
X144182365Y-122625869D01*
X144162834Y-122637098D01*
X144142725Y-122647397D01*
X144122067Y-122656736D01*
X144100888Y-122665086D01*
X144079219Y-122672418D01*
X144057088Y-122678702D01*
X144034524Y-122683909D01*
X144011558Y-122688010D01*
X143988218Y-122690976D01*
X143964534Y-122692777D01*
X143940534Y-122693384D01*
X143907287Y-122692217D01*
X143874669Y-122688769D01*
X143842758Y-122683119D01*
X143811635Y-122675344D01*
X143781376Y-122665523D01*
X143752061Y-122653736D01*
X143723768Y-122640059D01*
X143696576Y-122624572D01*
X143670563Y-122607354D01*
X143645807Y-122588482D01*
X143622388Y-122568035D01*
X143600384Y-122546091D01*
X143579873Y-122522730D01*
X143560934Y-122498029D01*
X143543645Y-122472068D01*
X143528085Y-122444923D01*
X142387593Y-122444923D01*
X142387593Y-122688553D01*
X142087533Y-122688553D01*
X142087533Y-122444302D01*
X142084243Y-122443757D01*
X142080968Y-122443049D01*
X142077712Y-122442185D01*
X142074480Y-122441168D01*
X142071278Y-122440004D01*
X142068111Y-122438698D01*
X142064985Y-122437255D01*
X142061905Y-122435679D01*
X142055903Y-122432150D01*
X142050149Y-122428150D01*
X142044686Y-122423719D01*
X142039557Y-122418895D01*
X142034804Y-122413719D01*
X142030471Y-122408229D01*
X142026600Y-122402466D01*
X142024851Y-122399493D01*
X142023234Y-122396467D01*
X142021754Y-122393392D01*
X142020416Y-122390273D01*
X142019226Y-122387115D01*
X142018189Y-122383922D01*
X142017310Y-122380701D01*
X142016595Y-122377455D01*
X142016049Y-122374190D01*
X142015678Y-122370910D01*
X141951610Y-121626230D01*
X140362033Y-123245386D01*
X140267010Y-123152009D01*
X141915947Y-121474021D01*
X142101026Y-121474021D01*
X142170614Y-122283011D01*
X143477456Y-122283011D01*
X143476686Y-122276110D01*
X143476015Y-122269178D01*
X143475445Y-122262218D01*
X143474977Y-122255230D01*
X143474611Y-122248214D01*
X143474348Y-122241172D01*
X143474190Y-122234105D01*
X143474137Y-122227013D01*
X143697971Y-122227013D01*
X143698286Y-122239494D01*
X143699223Y-122251811D01*
X143700765Y-122263950D01*
X143702898Y-122275894D01*
X143705606Y-122287628D01*
X143708875Y-122299138D01*
X143712688Y-122310408D01*
X143717030Y-122321422D01*
X143721887Y-122332166D01*
X143727243Y-122342625D01*
X143733083Y-122352782D01*
X143739392Y-122362623D01*
X143746154Y-122372132D01*
X143753355Y-122381295D01*
X143760978Y-122390096D01*
X143769009Y-122398520D01*
X143777432Y-122406551D01*
X143786233Y-122414175D01*
X143795395Y-122421375D01*
X143804905Y-122428138D01*
X143814746Y-122434447D01*
X143824903Y-122440287D01*
X143835362Y-122445644D01*
X143846106Y-122450501D01*
X143857121Y-122454844D01*
X143868391Y-122458658D01*
X143879901Y-122461926D01*
X143891636Y-122464635D01*
X143903581Y-122466768D01*
X143915720Y-122468310D01*
X143928039Y-122469247D01*
X143940521Y-122469563D01*
X143953002Y-122469247D01*
X143965320Y-122468310D01*
X143977458Y-122466768D01*
X143989402Y-122464635D01*
X144001137Y-122461926D01*
X144012647Y-122458658D01*
X144023916Y-122454844D01*
X144034931Y-122450501D01*
X144045675Y-122445644D01*
X144056133Y-122440287D01*
X144066290Y-122434447D01*
X144076131Y-122428138D01*
X144085641Y-122421375D01*
X144094804Y-122414175D01*
X144103605Y-122406551D01*
X144112028Y-122398520D01*
X144120060Y-122390096D01*
X144127683Y-122381295D01*
X144134884Y-122372132D01*
X144141646Y-122362623D01*
X144147955Y-122352782D01*
X144153796Y-122342625D01*
X144159152Y-122332166D01*
X144164010Y-122321422D01*
X144168353Y-122310408D01*
X144172166Y-122299138D01*
X144175435Y-122287628D01*
X144178143Y-122275894D01*
X144180276Y-122263950D01*
X144181819Y-122251811D01*
X144182756Y-122239494D01*
X144183071Y-122227013D01*
X144182756Y-122214530D01*
X144181819Y-122202212D01*
X144180276Y-122190073D01*
X144178143Y-122178128D01*
X144175435Y-122166392D01*
X144172166Y-122154882D01*
X144168353Y-122143612D01*
X144164010Y-122132597D01*
X144159152Y-122121853D01*
X144153796Y-122111395D01*
X144147955Y-122101237D01*
X144141646Y-122091396D01*
X144134884Y-122081887D01*
X144127683Y-122072724D01*
X144120060Y-122063924D01*
X144112028Y-122055500D01*
X144103605Y-122047469D01*
X144094804Y-122039846D01*
X144085641Y-122032646D01*
X144076131Y-122025884D01*
X144066290Y-122019575D01*
X144056133Y-122013735D01*
X144045675Y-122008379D01*
X144034931Y-122003522D01*
X144023916Y-121999179D01*
X144012647Y-121995366D01*
X144001137Y-121992098D01*
X143989402Y-121989390D01*
X143977458Y-121987257D01*
X143965320Y-121985714D01*
X143953002Y-121984778D01*
X143940521Y-121984462D01*
X143928039Y-121984778D01*
X143915720Y-121985714D01*
X143903581Y-121987257D01*
X143891636Y-121989390D01*
X143879901Y-121992098D01*
X143868391Y-121995366D01*
X143857121Y-121999179D01*
X143846106Y-122003522D01*
X143835362Y-122008379D01*
X143824903Y-122013735D01*
X143814746Y-122019575D01*
X143804905Y-122025884D01*
X143795396Y-122032646D01*
X143786233Y-122039846D01*
X143777432Y-122047469D01*
X143769009Y-122055500D01*
X143760978Y-122063924D01*
X143753355Y-122072724D01*
X143746154Y-122081887D01*
X143739392Y-122091396D01*
X143733084Y-122101237D01*
X143727244Y-122111395D01*
X143721887Y-122121853D01*
X143717030Y-122132597D01*
X143712688Y-122143612D01*
X143708875Y-122154882D01*
X143705606Y-122166392D01*
X143702898Y-122178128D01*
X143700765Y-122190073D01*
X143699223Y-122202212D01*
X143698286Y-122214530D01*
X143697971Y-122227013D01*
X143474137Y-122227013D01*
X143474660Y-122204726D01*
X143476214Y-122182708D01*
X143478774Y-122160984D01*
X143482319Y-122139576D01*
X143486824Y-122118509D01*
X143492266Y-122097804D01*
X143498621Y-122077487D01*
X143505866Y-122057579D01*
X143513978Y-122038105D01*
X143522932Y-122019089D01*
X143532707Y-122000553D01*
X143543278Y-121982521D01*
X143554622Y-121965016D01*
X143566715Y-121948062D01*
X143579534Y-121931683D01*
X143593055Y-121915901D01*
X143607256Y-121900740D01*
X143622113Y-121886224D01*
X143637601Y-121872376D01*
X143653699Y-121859219D01*
X143670382Y-121846777D01*
X143687627Y-121835073D01*
X143705411Y-121824131D01*
X143723709Y-121813975D01*
X143742500Y-121804627D01*
X143761758Y-121796111D01*
X143781462Y-121788450D01*
X143801586Y-121781668D01*
X143822109Y-121775789D01*
X143843006Y-121770835D01*
X143864255Y-121766831D01*
X143885831Y-121763799D01*
X143899190Y-121620482D01*
X142945195Y-120614145D01*
X142101026Y-121474021D01*
X141915947Y-121474021D01*
X141936699Y-121452903D01*
X141772925Y-119548989D01*
X141935445Y-119548989D01*
X142086143Y-121300829D01*
X142852372Y-120521092D01*
X143036548Y-120521092D01*
X143915383Y-121446656D01*
X144097764Y-119489657D01*
X144079777Y-119489657D01*
X144079777Y-119458433D01*
X143036548Y-120521092D01*
X142852372Y-120521092D01*
X142854719Y-120518704D01*
X141935445Y-119548989D01*
X141772925Y-119548989D01*
X141756706Y-119360441D01*
X140168276Y-117684854D01*
X140168276Y-117500327D01*
X141738989Y-119154553D01*
X141698180Y-118680154D01*
X141860703Y-118680154D01*
X141917700Y-119342764D01*
X142946032Y-120425772D01*
X143554290Y-119806814D01*
X142696735Y-119806814D01*
X142696735Y-119482964D01*
X143688539Y-119482964D01*
X143688539Y-119670190D01*
X144009032Y-119344059D01*
X144273965Y-119344059D01*
X144487504Y-119344059D01*
X144487504Y-119070676D01*
X144460476Y-119070676D01*
X144282561Y-119251897D01*
X144273965Y-119344059D01*
X144009032Y-119344059D01*
X144079777Y-119272070D01*
X144079777Y-118925079D01*
X144150376Y-118925079D01*
X144173194Y-118680154D01*
X141860703Y-118680154D01*
X141698180Y-118680154D01*
X141697604Y-118673447D01*
X141502538Y-118673447D01*
X141502538Y-118511522D01*
X141674165Y-118511522D01*
X142285216Y-118511522D01*
X144166838Y-118511522D01*
X144159298Y-118495458D01*
X144150547Y-118479928D01*
X144140625Y-118464923D01*
X144129571Y-118450434D01*
X144117424Y-118436454D01*
X144104224Y-118422972D01*
X144090010Y-118409980D01*
X144074821Y-118397469D01*
X144058696Y-118385431D01*
X144041675Y-118373857D01*
X144023797Y-118362737D01*
X144005101Y-118352064D01*
X143965412Y-118332020D01*
X143922922Y-118313655D01*
X143877945Y-118296898D01*
X143830796Y-118281679D01*
X143781788Y-118267928D01*
X143731235Y-118255574D01*
X143679451Y-118244546D01*
X143626750Y-118234775D01*
X143573446Y-118226191D01*
X143519867Y-118218723D01*
X143519867Y-118369851D01*
X142723749Y-118369851D01*
X142723749Y-118207926D01*
X142723749Y-118201692D01*
X142670235Y-118206064D01*
X142615681Y-118211321D01*
X142560422Y-118217530D01*
X142504791Y-118224760D01*
X142449121Y-118233077D01*
X142393747Y-118242550D01*
X142339000Y-118253247D01*
X142285216Y-118265234D01*
X142285216Y-118511522D01*
X141674165Y-118511522D01*
X141674169Y-118511508D01*
X141847290Y-118511508D01*
X142008513Y-118511508D01*
X142008513Y-118364170D01*
X141995006Y-118371717D01*
X141981893Y-118379473D01*
X141969189Y-118387440D01*
X141956906Y-118395621D01*
X141945058Y-118404019D01*
X141933659Y-118412637D01*
X141922722Y-118421477D01*
X141912260Y-118430543D01*
X141902287Y-118439836D01*
X141892817Y-118449361D01*
X141883861Y-118459119D01*
X141875435Y-118469113D01*
X141867552Y-118479346D01*
X141860224Y-118489821D01*
X141853465Y-118500541D01*
X141847290Y-118511508D01*
X141674169Y-118511508D01*
X141675319Y-118508040D01*
X141676565Y-118504417D01*
X141677908Y-118500657D01*
X141679350Y-118496763D01*
X141680894Y-118492739D01*
X141682545Y-118488588D01*
X141684303Y-118484314D01*
X141686174Y-118479920D01*
X141697579Y-118455626D01*
X141710363Y-118432199D01*
X141724480Y-118409623D01*
X141739885Y-118387883D01*
X141756532Y-118366963D01*
X141774376Y-118346848D01*
X141793369Y-118327524D01*
X141813468Y-118308974D01*
X141834625Y-118291184D01*
X141856795Y-118274139D01*
X141869422Y-118265234D01*
X141879932Y-118257822D01*
X141903991Y-118242220D01*
X141928926Y-118227317D01*
X141954690Y-118213097D01*
X141981239Y-118199545D01*
X142008526Y-118186646D01*
X142008526Y-118133684D01*
X142885647Y-118133684D01*
X142885647Y-118207926D01*
X143357915Y-118207926D01*
X143357915Y-118133684D01*
X142885647Y-118133684D01*
X142008526Y-118133684D01*
X142008526Y-118079628D01*
X142285216Y-118079628D01*
X142285216Y-118096184D01*
X142339624Y-118084458D01*
X142394587Y-118074075D01*
X142449886Y-118064963D01*
X142505302Y-118057048D01*
X142560616Y-118050256D01*
X142615607Y-118044516D01*
X142670058Y-118039753D01*
X142723749Y-118035894D01*
X142723749Y-117971772D01*
X143519867Y-117971772D01*
X143519867Y-118053843D01*
X143627581Y-118069374D01*
X143681158Y-118078889D01*
X143734242Y-118089665D01*
X143786606Y-118101772D01*
X143838023Y-118115281D01*
X143888265Y-118130264D01*
X143937106Y-118146791D01*
X143984318Y-118164933D01*
X144029675Y-118184762D01*
X144072951Y-118206348D01*
X144113916Y-118229762D01*
X144152346Y-118255075D01*
X144188013Y-118282359D01*
X144220689Y-118311683D01*
X144250149Y-118343120D01*
X144257812Y-118333900D01*
X144265968Y-118325122D01*
X144274594Y-118316808D01*
X144283671Y-118308978D01*
X144293176Y-118301654D01*
X144303089Y-118294857D01*
X144313390Y-118288607D01*
X144324056Y-118282926D01*
X144335067Y-118277835D01*
X144346402Y-118273354D01*
X144358039Y-118269505D01*
X144369959Y-118266309D01*
X144382139Y-118263786D01*
X144394559Y-118261958D01*
X144407198Y-118260846D01*
X144420035Y-118260471D01*
X144431146Y-118260752D01*
X144442110Y-118261585D01*
X144452916Y-118262958D01*
X144463548Y-118264857D01*
X144473994Y-118267268D01*
X144484239Y-118270177D01*
X144494271Y-118273571D01*
X144504076Y-118277436D01*
X144513639Y-118281760D01*
X144522948Y-118286528D01*
X144531990Y-118291726D01*
X144540749Y-118297342D01*
X144549214Y-118303361D01*
X144557370Y-118309770D01*
X144565204Y-118316556D01*
X144572702Y-118323704D01*
X144579850Y-118331202D01*
X144586636Y-118339036D01*
X144593045Y-118347192D01*
X144599064Y-118355656D01*
X144604680Y-118364416D01*
X144609878Y-118373457D01*
X144614646Y-118382767D01*
X144618969Y-118392330D01*
X144622835Y-118402135D01*
X144626229Y-118412167D01*
X144629138Y-118422412D01*
X144631549Y-118432858D01*
X144633448Y-118443490D01*
X144634820Y-118454295D01*
X144635654Y-118465260D01*
X144635935Y-118476371D01*
X144635654Y-118487480D01*
X144634820Y-118498444D01*
X144633448Y-118509248D01*
X144631549Y-118519880D01*
X144629138Y-118530325D01*
X144626229Y-118540570D01*
X144622835Y-118550601D01*
X144618969Y-118560406D01*
X144614646Y-118569969D01*
X144609878Y-118579278D01*
X144604680Y-118588319D01*
X144599064Y-118597079D01*
X144593045Y-118605544D01*
X144586636Y-118613700D01*
X144579850Y-118621534D01*
X144572702Y-118629032D01*
X144565204Y-118636181D01*
X144557370Y-118642967D01*
X144549214Y-118649377D01*
X144540749Y-118655396D01*
X144531990Y-118661012D01*
X144522948Y-118666211D01*
X144513639Y-118670979D01*
X144504076Y-118675303D01*
X144494271Y-118679169D01*
X144484239Y-118682564D01*
X144473994Y-118685473D01*
X144463548Y-118687884D01*
X144452916Y-118689783D01*
X144442110Y-118691156D01*
X144431146Y-118691990D01*
X144420035Y-118692271D01*
X144414485Y-118692201D01*
X144408970Y-118691992D01*
X144403491Y-118691646D01*
X144398049Y-118691165D01*
X144392647Y-118690550D01*
X144387285Y-118689803D01*
X144381967Y-118688925D01*
X144376693Y-118687919D01*
X144371465Y-118686786D01*
X144366285Y-118685527D01*
X144361155Y-118684144D01*
X144356076Y-118682639D01*
X144351050Y-118681013D01*
X144346079Y-118679269D01*
X144341164Y-118677408D01*
X144336307Y-118675431D01*
X144313029Y-118925065D01*
X144420790Y-118925065D01*
X145842222Y-117478589D01*
X145842222Y-117663210D01*
G37*
D14*
%TO.C,J1*%
X98387500Y-110750000D02*
X98997500Y-110310000D01*
X98997500Y-111190000D01*
X98387500Y-110750000D01*
G36*
X98997500Y-111190000D02*
G01*
X98387500Y-110750000D01*
X98997500Y-110310000D01*
X98997500Y-111190000D01*
G37*
X98387500Y-103130000D02*
X98387500Y-110450000D01*
X90347500Y-103130000D02*
X98387500Y-103130000D01*
X94967500Y-103938000D02*
X94967500Y-103130000D01*
X93967500Y-103938000D02*
X93967500Y-103130000D01*
X96267500Y-105207000D02*
X96267500Y-103130000D01*
X96267500Y-108870000D02*
X96267500Y-106293000D01*
X94967500Y-108870000D02*
X94967500Y-107562000D01*
X93967500Y-108870000D02*
X93967500Y-107562000D01*
X98387500Y-111050000D02*
X98387500Y-113870000D01*
X98387500Y-113870000D02*
X90347500Y-113870000D01*
X96267500Y-113870000D02*
X96267500Y-112630000D01*
X94967500Y-113870000D02*
X94967500Y-112630000D01*
X93967500Y-113870000D02*
X93967500Y-112630000D01*
X90347500Y-113870000D02*
X90347500Y-103130000D01*
%TO.C,R1*%
X123580000Y-98080000D02*
X127420000Y-98080000D01*
X127420000Y-99920000D01*
X123580000Y-99920000D01*
X123580000Y-98080000D01*
X128370000Y-99000000D02*
X127420000Y-99000000D01*
X122630000Y-99000000D02*
X123580000Y-99000000D01*
%TO.C,R2*%
X123580000Y-101080000D02*
X127420000Y-101080000D01*
X127420000Y-102920000D01*
X123580000Y-102920000D01*
X123580000Y-101080000D01*
X128370000Y-102000000D02*
X127420000Y-102000000D01*
X122630000Y-102000000D02*
X123580000Y-102000000D01*
%TO.C,C1*%
X130032198Y-112455000D02*
G75*
G02*
X121792198Y-112455000I-4120000J0D01*
G01*
X121792198Y-112455000D02*
G75*
G02*
X130032198Y-112455000I4120000J0D01*
G01*
X129992198Y-111922000D02*
X129992198Y-112988000D01*
X129952198Y-111687000D02*
X129952198Y-113223000D01*
X129912198Y-111508000D02*
X129912198Y-113402000D01*
X129872198Y-111358000D02*
X129872198Y-113552000D01*
X129832198Y-111227000D02*
X129832198Y-113683000D01*
X129792198Y-111109000D02*
X129792198Y-113801000D01*
X129752198Y-111002000D02*
X129752198Y-113908000D01*
X129712198Y-110903000D02*
X129712198Y-114007000D01*
X129672198Y-110811000D02*
X129672198Y-114099000D01*
X129632198Y-110724000D02*
X129632198Y-114186000D01*
X129592198Y-110642000D02*
X129592198Y-114268000D01*
X129552198Y-110565000D02*
X129552198Y-114345000D01*
X129512198Y-110491000D02*
X129512198Y-114419000D01*
X129472198Y-110421000D02*
X129472198Y-114489000D01*
X129432198Y-110354000D02*
X129432198Y-114556000D01*
X129392198Y-110290000D02*
X129392198Y-114620000D01*
X129352198Y-110228000D02*
X129352198Y-114682000D01*
X129312198Y-110168000D02*
X129312198Y-114742000D01*
X129272198Y-110111000D02*
X129272198Y-114799000D01*
X129232198Y-110055000D02*
X129232198Y-114855000D01*
X129192198Y-110002000D02*
X129192198Y-114908000D01*
X129152198Y-109950000D02*
X129152198Y-114960000D01*
X129112198Y-109900000D02*
X129112198Y-115010000D01*
X129072198Y-109851000D02*
X129072198Y-115059000D01*
X129032198Y-109804000D02*
X129032198Y-115106000D01*
X128992198Y-109759000D02*
X128992198Y-115151000D01*
X128952198Y-109714000D02*
X128952198Y-115196000D01*
X128912198Y-109671000D02*
X128912198Y-115239000D01*
X128872198Y-109629000D02*
X128872198Y-115281000D01*
X128832198Y-113495000D02*
X128832198Y-115322000D01*
X128832198Y-109588000D02*
X128832198Y-111415000D01*
X128792198Y-113495000D02*
X128792198Y-115361000D01*
X128792198Y-109549000D02*
X128792198Y-111415000D01*
X128752198Y-113495000D02*
X128752198Y-115400000D01*
X128752198Y-109510000D02*
X128752198Y-111415000D01*
X128712198Y-113495000D02*
X128712198Y-115437000D01*
X128712198Y-109473000D02*
X128712198Y-111415000D01*
X128672198Y-113495000D02*
X128672198Y-115474000D01*
X128672198Y-109436000D02*
X128672198Y-111415000D01*
X128632198Y-113495000D02*
X128632198Y-115510000D01*
X128632198Y-109400000D02*
X128632198Y-111415000D01*
X128592198Y-113495000D02*
X128592198Y-115544000D01*
X128592198Y-109366000D02*
X128592198Y-111415000D01*
X128552198Y-113495000D02*
X128552198Y-115578000D01*
X128552198Y-109332000D02*
X128552198Y-111415000D01*
X128512198Y-113495000D02*
X128512198Y-115611000D01*
X128512198Y-109299000D02*
X128512198Y-111415000D01*
X128472198Y-113495000D02*
X128472198Y-115643000D01*
X128472198Y-109267000D02*
X128472198Y-111415000D01*
X128432198Y-113495000D02*
X128432198Y-115674000D01*
X128432198Y-109236000D02*
X128432198Y-111415000D01*
X128392198Y-113495000D02*
X128392198Y-115705000D01*
X128392198Y-109205000D02*
X128392198Y-111415000D01*
X128352198Y-113495000D02*
X128352198Y-115735000D01*
X128352198Y-109175000D02*
X128352198Y-111415000D01*
X128312198Y-113495000D02*
X128312198Y-115764000D01*
X128312198Y-109146000D02*
X128312198Y-111415000D01*
X128272198Y-113495000D02*
X128272198Y-115792000D01*
X128272198Y-109118000D02*
X128272198Y-111415000D01*
X128232198Y-113495000D02*
X128232198Y-115820000D01*
X128232198Y-109090000D02*
X128232198Y-111415000D01*
X128192198Y-113495000D02*
X128192198Y-115847000D01*
X128192198Y-109063000D02*
X128192198Y-111415000D01*
X128152198Y-113495000D02*
X128152198Y-115873000D01*
X128152198Y-109037000D02*
X128152198Y-111415000D01*
X128112198Y-113495000D02*
X128112198Y-115898000D01*
X128112198Y-109012000D02*
X128112198Y-111415000D01*
X128072198Y-113495000D02*
X128072198Y-115923000D01*
X128072198Y-108987000D02*
X128072198Y-111415000D01*
X128032198Y-113495000D02*
X128032198Y-115948000D01*
X128032198Y-108962000D02*
X128032198Y-111415000D01*
X127992198Y-113495000D02*
X127992198Y-115971000D01*
X127992198Y-108939000D02*
X127992198Y-111415000D01*
X127952198Y-113495000D02*
X127952198Y-115994000D01*
X127952198Y-108916000D02*
X127952198Y-111415000D01*
X127912198Y-113495000D02*
X127912198Y-116017000D01*
X127912198Y-108893000D02*
X127912198Y-111415000D01*
X127872198Y-113495000D02*
X127872198Y-116039000D01*
X127872198Y-108871000D02*
X127872198Y-111415000D01*
X127832198Y-113495000D02*
X127832198Y-116060000D01*
X127832198Y-108850000D02*
X127832198Y-111415000D01*
X127792198Y-113495000D02*
X127792198Y-116081000D01*
X127792198Y-108829000D02*
X127792198Y-111415000D01*
X127752198Y-113495000D02*
X127752198Y-116101000D01*
X127752198Y-108809000D02*
X127752198Y-111415000D01*
X127712198Y-113495000D02*
X127712198Y-116121000D01*
X127712198Y-108789000D02*
X127712198Y-111415000D01*
X127672198Y-113495000D02*
X127672198Y-116140000D01*
X127672198Y-108770000D02*
X127672198Y-111415000D01*
X127632198Y-113495000D02*
X127632198Y-116159000D01*
X127632198Y-108751000D02*
X127632198Y-111415000D01*
X127592198Y-113495000D02*
X127592198Y-116177000D01*
X127592198Y-108733000D02*
X127592198Y-111415000D01*
X127552198Y-113495000D02*
X127552198Y-116195000D01*
X127552198Y-108715000D02*
X127552198Y-111415000D01*
X127512198Y-113495000D02*
X127512198Y-116212000D01*
X127512198Y-108698000D02*
X127512198Y-111415000D01*
X127472198Y-113495000D02*
X127472198Y-116228000D01*
X127472198Y-108682000D02*
X127472198Y-111415000D01*
X127432198Y-113495000D02*
X127432198Y-116244000D01*
X127432198Y-108666000D02*
X127432198Y-111415000D01*
X127392198Y-113495000D02*
X127392198Y-116260000D01*
X127392198Y-108650000D02*
X127392198Y-111415000D01*
X127352198Y-113495000D02*
X127352198Y-116275000D01*
X127352198Y-108635000D02*
X127352198Y-111415000D01*
X127312198Y-113495000D02*
X127312198Y-116290000D01*
X127312198Y-108620000D02*
X127312198Y-111415000D01*
X127272198Y-113495000D02*
X127272198Y-116304000D01*
X127272198Y-108606000D02*
X127272198Y-111415000D01*
X127232198Y-113495000D02*
X127232198Y-116318000D01*
X127232198Y-108592000D02*
X127232198Y-111415000D01*
X127192198Y-113495000D02*
X127192198Y-116331000D01*
X127192198Y-108579000D02*
X127192198Y-111415000D01*
X127152198Y-113495000D02*
X127152198Y-116344000D01*
X127152198Y-108566000D02*
X127152198Y-111415000D01*
X127112198Y-113495000D02*
X127112198Y-116356000D01*
X127112198Y-108554000D02*
X127112198Y-111415000D01*
X127072198Y-113495000D02*
X127072198Y-116368000D01*
X127072198Y-108542000D02*
X127072198Y-111415000D01*
X127032198Y-113495000D02*
X127032198Y-116380000D01*
X127032198Y-108530000D02*
X127032198Y-111415000D01*
X126992198Y-113495000D02*
X126992198Y-116391000D01*
X126992198Y-108519000D02*
X126992198Y-111415000D01*
X126952198Y-113495000D02*
X126952198Y-116402000D01*
X126952198Y-108508000D02*
X126952198Y-111415000D01*
X126912198Y-113495000D02*
X126912198Y-116412000D01*
X126912198Y-108498000D02*
X126912198Y-111415000D01*
X126872198Y-113495000D02*
X126872198Y-116422000D01*
X126872198Y-108488000D02*
X126872198Y-111415000D01*
X126832198Y-113495000D02*
X126832198Y-116431000D01*
X126832198Y-108479000D02*
X126832198Y-111415000D01*
X126792198Y-113495000D02*
X126792198Y-116440000D01*
X126792198Y-108470000D02*
X126792198Y-111415000D01*
X126752198Y-108462000D02*
X126752198Y-116448000D01*
X126712198Y-108453000D02*
X126712198Y-116457000D01*
X126672198Y-108446000D02*
X126672198Y-116464000D01*
X126632198Y-108438000D02*
X126632198Y-116472000D01*
X126592198Y-108432000D02*
X126592198Y-116478000D01*
X126552198Y-108425000D02*
X126552198Y-116485000D01*
X126512198Y-108419000D02*
X126512198Y-116491000D01*
X126472198Y-108413000D02*
X126472198Y-116497000D01*
X126432198Y-108408000D02*
X126432198Y-116502000D01*
X126392198Y-108403000D02*
X126392198Y-116507000D01*
X126352198Y-108399000D02*
X126352198Y-116511000D01*
X126312198Y-108394000D02*
X126312198Y-116516000D01*
X126272198Y-108391000D02*
X126272198Y-116519000D01*
X126232198Y-108387000D02*
X126232198Y-116523000D01*
X126192198Y-108385000D02*
X126192198Y-116525000D01*
X126152198Y-108382000D02*
X126152198Y-116528000D01*
X126112198Y-108380000D02*
X126112198Y-116530000D01*
X126072198Y-108378000D02*
X126072198Y-116532000D01*
X126032198Y-108377000D02*
X126032198Y-116533000D01*
X125992198Y-108376000D02*
X125992198Y-116534000D01*
X125952198Y-108375000D02*
X125952198Y-116535000D01*
X125912198Y-108375000D02*
X125912198Y-116535000D01*
X121902500Y-109740000D02*
X121902500Y-110540000D01*
X121502500Y-110140000D02*
X122302500Y-110140000D01*
%TO.C,D4*%
X113530000Y-113860000D02*
X116470000Y-113860000D01*
X116470000Y-119300000D01*
X113530000Y-119300000D01*
X113530000Y-113860000D01*
X115000000Y-120320000D02*
X115000000Y-119300000D01*
X116470000Y-114880000D02*
X113530000Y-114880000D01*
X116470000Y-114760000D02*
X113530000Y-114760000D01*
X116470000Y-114640000D02*
X113530000Y-114640000D01*
X115000000Y-112840000D02*
X115000000Y-113860000D01*
%TO.C,D2*%
X108000000Y-112760000D02*
X108000000Y-113780000D01*
X109470000Y-114560000D02*
X106530000Y-114560000D01*
X109470000Y-114680000D02*
X106530000Y-114680000D01*
X109470000Y-114800000D02*
X106530000Y-114800000D01*
X108000000Y-120240000D02*
X108000000Y-119220000D01*
X106530000Y-113780000D02*
X109470000Y-113780000D01*
X109470000Y-119220000D01*
X106530000Y-119220000D01*
X106530000Y-113780000D01*
%TO.C,D1*%
X108000000Y-97340000D02*
X108000000Y-98360000D01*
X109470000Y-99140000D02*
X106530000Y-99140000D01*
X109470000Y-99260000D02*
X106530000Y-99260000D01*
X109470000Y-99380000D02*
X106530000Y-99380000D01*
X108000000Y-104820000D02*
X108000000Y-103800000D01*
X106530000Y-98360000D02*
X109470000Y-98360000D01*
X109470000Y-103800000D01*
X106530000Y-103800000D01*
X106530000Y-98360000D01*
%TO.C,D3*%
X113530000Y-98280000D02*
X116470000Y-98280000D01*
X116470000Y-103720000D01*
X113530000Y-103720000D01*
X113530000Y-98280000D01*
X115000000Y-104740000D02*
X115000000Y-103720000D01*
X116470000Y-99300000D02*
X113530000Y-99300000D01*
X116470000Y-99180000D02*
X113530000Y-99180000D01*
X116470000Y-99060000D02*
X113530000Y-99060000D01*
X115000000Y-97260000D02*
X115000000Y-98280000D01*
%TO.C,J2*%
X144880000Y-113620000D02*
X144880000Y-102880000D01*
X148500000Y-113620000D02*
X148500000Y-112380000D01*
X149500000Y-113620000D02*
X149500000Y-112380000D01*
X150800000Y-113620000D02*
X150800000Y-112380000D01*
X152920000Y-113620000D02*
X144880000Y-113620000D01*
X152920000Y-110800000D02*
X152920000Y-113620000D01*
X148500000Y-108620000D02*
X148500000Y-107312000D01*
X149500000Y-108620000D02*
X149500000Y-107312000D01*
X150800000Y-108620000D02*
X150800000Y-106043000D01*
X150800000Y-104957000D02*
X150800000Y-102880000D01*
X148500000Y-103688000D02*
X148500000Y-102880000D01*
X149500000Y-103688000D02*
X149500000Y-102880000D01*
X144880000Y-102880000D02*
X152920000Y-102880000D01*
X152920000Y-102880000D02*
X152920000Y-110200000D01*
X152920000Y-110500000D02*
X153530000Y-110060000D01*
X153530000Y-110940000D01*
X152920000Y-110500000D01*
G36*
X153530000Y-110940000D02*
G01*
X152920000Y-110500000D01*
X153530000Y-110060000D01*
X153530000Y-110940000D01*
G37*
%TO.C,D5*%
X137747500Y-105115000D02*
G75*
G02*
X132747500Y-105115000I-2500000J0D01*
G01*
X132747500Y-105115000D02*
G75*
G02*
X137747500Y-105115000I2500000J0D01*
G01*
X138237500Y-105115000D02*
G75*
G02*
X132687500Y-106659830I-2990000J0D01*
G01*
X132687500Y-103570170D02*
G75*
G02*
X138237500Y-105115000I2560000J-1544830D01*
G01*
X132687500Y-103570000D02*
X132687500Y-106660000D01*
%TD*%
M02*
